<?xml version="1.0" standalone="no"?>
<!DOCTYPE svg PUBLIC "-//W3C//DTD SVG 1.1//EN" "http://www.w3.org/Graphics/SVG/1.1/DTD/svg11.dtd" >
<svg>
<metadata>
Created by FontForge 20090622 at Thu Sep 15 06:15:06 2016
 By deploy user
Copyright &#194;&#169; 2014 by Type Dynamic. All rights reserved.
</metadata>
<defs>
<font id="Sailec-BlackItalic" horiz-adv-x="309" >
  <font-face 
    font-family="Sailec Black"
    font-weight="900"
    font-style="italic"
    font-stretch="normal"
    units-per-em="1000"
    panose-1="0 0 10 0 0 0 0 0 0 0"
    ascent="750"
    descent="-250"
    x-height="521"
    cap-height="748"
    bbox="-269 -425 1290.16 1089"
    underline-thickness="50"
    underline-position="-50"
    slope="-10"
    unicode-range="U+000D-U+FB02"
  />
<missing-glyph horiz-adv-x="755" 
d="M651 0h-639l132 748h639zM360 619l54 -131l108 131h-162zM187 223l129 149l-71 149zM484 372l68 -141l54 282zM281 129h156l-53 126z" />
    <glyph glyph-name="fi" unicode="fi" horiz-adv-x="711" 
d="M637 788q49 0 78 -35t20 -84q-7 -40 -39 -67t-71 -27q-49 0 -78 34.5t-20 82.5q7 40 39.5 68t70.5 28zM413 784q38 0 65 -5l-28 -155q-9 2 -29 2q-37 0 -64 -22t-33 -51l-5 -32h114l-29 -156h-113l-64 -365h-183l64 365h-89l28 156h89l8 40q18 102 92 162.5t177 60.5z
M602 0h-182l92 521h183z" />
    <glyph glyph-name="f_j" unicode="fj" horiz-adv-x="711" 
d="M637 788q49 0 78 -35t20 -84q-7 -40 -39 -67t-71 -27q-49 0 -78 34.5t-20 82.5q8 41 39.5 68.5t70.5 27.5zM413 784q38 0 65 -5l-28 -155q-9 2 -29 2q-37 0 -64 -22t-33 -51l-5 -32h114l-29 -156h-113l-64 -365h-183l64 365h-89l28 156h89l8 40q18 102 92 162.5t177 60.5
zM694 521l-98 -561q-19 -102 -93.5 -162.5t-177.5 -60.5q-39 0 -64 5l27 155q10 -2 30 -2q37 0 64 22t32 51l98 553h182z" />
    <glyph glyph-name=".notdef" horiz-adv-x="755" 
d="M651 0h-639l132 748h639zM360 619l54 -131l108 131h-162zM187 223l129 149l-71 149zM484 372l68 -141l54 282zM281 129h156l-53 126z" />
    <glyph glyph-name=".null" horiz-adv-x="0" 
 />
    <glyph glyph-name="nonmarkingreturn" horiz-adv-x="333" 
 />
    <glyph glyph-name="CR" unicode="&#xd;" horiz-adv-x="600" 
 />
    <glyph glyph-name="space" unicode=" " horiz-adv-x="218" 
 />
    <glyph glyph-name="exclam" unicode="!" horiz-adv-x="350" 
d="M269 244h-193l78 504h214zM150 201q49 0 78.5 -35t21.5 -83q-7 -40 -39 -67t-71 -27q-49 0 -78 34.5t-20 82.5q7 40 38.5 67.5t69.5 27.5z" />
    <glyph glyph-name="quotedbl" unicode="&#x22;" horiz-adv-x="473" 
d="M225 449h-137l39 314h170zM451 449h-137l38 314h171z" />
    <glyph glyph-name="numbersign" unicode="#" horiz-adv-x="689" 
d="M643 576h98l-60 -145h-98l-50 -121h97l-59 -145h-98l-69 -165h-150l68 165h-88l-69 -165h-151l69 165h-96l59 145h97l50 121h-95l59 145h95l72 172h151l-72 -172h89l72 172h150zM344 431l-51 -121h89l50 121h-88z" />
    <glyph glyph-name="dollar" unicode="$" horiz-adv-x="668" 
d="M657 520l-197 -8q5 38 -12.5 59t-55.5 21q-42 0 -68 -19t-31 -51q-4 -27 16.5 -42.5t86.5 -32.5q125 -32 184.5 -84t46.5 -149q-15 -103 -85.5 -158.5t-174.5 -64.5l-20 -109h-151l22 119q-96 22 -143.5 83.5t-33.5 154.5l197 7q-6 -42 17.5 -66t69.5 -24q98 0 105 65
q4 27 -21 46t-82 33q-59 15 -98 30t-75 40.5t-50.5 65.5t-6.5 95q13 91 79 153.5t175 72.5l19 108h151l-21 -120q85 -23 127 -82.5t30 -142.5z" />
    <glyph glyph-name="percent" unicode="%" horiz-adv-x="924" 
d="M286 759q86 0 131.5 -57t29.5 -148q-14 -82 -70 -132t-132 -50q-86 0 -132 57.5t-30 147.5q15 83 71 132.5t132 49.5zM270 0h-179l603 748h180zM279 633q-55 0 -66 -74q-6 -61 39 -61q54 0 65 75q6 60 -38 60zM721 376q86 0 131.5 -57t28.5 -147q-14 -83 -70 -133
t-132 -50q-86 0 -132 57.5t-30 148.5q15 82 71.5 131.5t132.5 49.5zM713 250q-56 0 -65 -74q-5 -28 6.5 -44.5t33.5 -16.5q54 0 63 75q4 28 -6.5 44t-31.5 16z" />
    <glyph glyph-name="ampersand" unicode="&#x26;" horiz-adv-x="734" 
d="M621 -11l-96 89q-100 -89 -232 -89q-139 0 -205.5 66.5t-52.5 165.5q9 64 43 109t93 84q-47 65 -37 136q15 103 86.5 156t180.5 53q105 0 168.5 -56.5t65.5 -152.5l-185 -3q-2 29 -13 42.5t-36 13.5q-67 0 -77 -67q-3 -27 11 -48t46 -51l124 -109q25 49 43 103l167 -57
q-35 -88 -80 -161l103 -90zM295 152q57 0 108 39l-121 112q-44 -36 -51 -87q-5 -31 12.5 -47.5t51.5 -16.5z" />
    <glyph glyph-name="quotesingle" unicode="'" horiz-adv-x="247" 
d="M225 449h-137l39 314h170z" />
    <glyph glyph-name="parenleft" unicode="(" horiz-adv-x="324" 
d="M233 745l153 -65q-127 -182 -160 -371q-35 -194 26 -359l-158 -45q-89 190 -46 426q40 236 185 414z" />
    <glyph glyph-name="parenright" unicode=")" horiz-adv-x="324" 
d="M92 690l160 45q87 -188 46 -426q-42 -237 -186 -414l-153 65q127 182 161 371q34 196 -28 359z" />
    <glyph glyph-name="asterisk" unicode="*" horiz-adv-x="390" 
d="M310 648l118 40l15 -94l-122 -36l57 -93l-86 -60l-48 99l-87 -100l-75 60l88 94l-108 36l47 94l106 -40l19 120h100z" />
    <glyph glyph-name="plus" unicode="+" horiz-adv-x="548" 
d="M396 452h156l-29 -164h-156l-28 -162h-177l28 162h-156l29 164h156l29 163h177z" />
    <glyph glyph-name="comma" unicode="," horiz-adv-x="270" 
d="M113 201q51 0 75.5 -36t14.5 -91q-29 -162 -214 -246l2 81q60 32 88 83q-39 9 -59 41t-13 73t36.5 68t69.5 27z" />
    <glyph glyph-name="hyphen" unicode="-" horiz-adv-x="408" 
d="M349 177h-319l30 171h319z" />
    <glyph glyph-name="period" unicode="." horiz-adv-x="281" 
d="M115 201q50 0 79 -35t21 -83q-7 -40 -39 -67t-71 -27q-49 0 -78 34.5t-20 82.5q7 40 38.5 67.5t69.5 27.5z" />
    <glyph glyph-name="slash" unicode="/" horiz-adv-x="455" 
d="M139 -67h-195l399 815h195z" />
    <glyph glyph-name="zero" unicode="0" horiz-adv-x="655" 
d="M389 759q136 0 206 -105t43 -291q-25 -178 -116 -276t-216 -98q-136 0 -206 105t-43 291q24 178 115 276t217 98zM383 588q-56 0 -86.5 -53t-47.5 -168q-29 -207 62 -207q57 0 87.5 53.5t46.5 167.5q29 207 -62 207z" />
    <glyph glyph-name="one" unicode="1" horiz-adv-x="406" 
d="M293 0h-192l88 502l-64 -38l-69 154l228 130h141z" />
    <glyph glyph-name="two" unicode="2" horiz-adv-x="546" 
d="M360 759q112 0 168.5 -63.5t39.5 -167.5q-7 -44 -21.5 -79t-40.5 -67t-43.5 -49t-55.5 -51l-122 -111h219l-31 -171h-475l26 147l243 230q97 92 106 159q6 52 -32 52q-26 0 -39 -18.5t-20 -57.5l-191 10q43 237 269 237z" />
    <glyph glyph-name="three" unicode="3" horiz-adv-x="575" 
d="M359 759q121 0 177 -65t36 -174q-9 -51 -29.5 -81.5t-59.5 -58.5q26 -18 40.5 -62t4.5 -101q-19 -108 -95 -168t-183 -60q-127 0 -185.5 65.5t-40.5 173.5l193 -1q-12 -67 44 -67q64 0 76 75q6 31 -7 50t-43 19h-86l29 161h71q67 0 80 65q4 27 -5 42.5t-29 15.5
q-55 0 -71 -74l-188 23q20 107 89.5 164.5t181.5 57.5z" />
    <glyph glyph-name="four" unicode="4" horiz-adv-x="608" 
d="M485 274h103l-30 -171h-103l-18 -103h-164l18 103h-291l28 159l394 486h147zM224 274h97l29 157z" />
    <glyph glyph-name="five" unicode="5" horiz-adv-x="577" 
d="M305 577l-15 -95q15 3 34 3q109 0 171 -66.5t41 -186.5q-16 -114 -91 -178.5t-189 -64.5q-121 0 -182.5 61t-48.5 161l193 6q-4 -27 9.5 -42t39.5 -15q65 0 78 83q5 32 -7.5 51t-37.5 19q-26 0 -54 -14l-183 -1l80 450h454l-30 -171h-262z" />
    <glyph glyph-name="six" unicode="6" horiz-adv-x="617" 
d="M642 748l-227 -262q88 -24 135 -92t33 -162q-16 -110 -94 -176.5t-190 -66.5q-125 0 -200 74.5t-58 191.5q14 93 73 160l293 333h235zM388 252q9 89 -61 89q-38 0 -63 -28q-23 -29 -28 -65q-8 -88 62 -88q39 0 63 27.5t27 64.5z" />
    <glyph glyph-name="seven" unicode="7" horiz-adv-x="542" 
d="M569 593l-360 -593h-223l359 577h-271l31 171h492z" />
    <glyph glyph-name="eight" unicode="8" horiz-adv-x="624" 
d="M378 759q117 0 182.5 -62.5t48.5 -166.5q-13 -80 -71 -136q58 -68 41 -176q-17 -106 -99 -167.5t-196 -61.5q-124 0 -194 69t-52 183q18 106 96 169q-40 60 -26 143q15 97 89.5 151.5t180.5 54.5zM368 588q-29 0 -49 -18.5t-23 -48.5q-3 -55 47 -55q29 0 49 18t23 48
q2 27 -10.5 41.5t-36.5 14.5zM328 322q-42 0 -68 -24t-30 -65q-3 -35 14 -54t50 -19q41 0 67 24t30 65q5 73 -63 73z" />
    <glyph glyph-name="nine" unicode="9" horiz-adv-x="617" 
d="M359 759q125 0 200 -74.5t58 -191.5q-14 -93 -73 -160l-292 -333h-236l227 262q-88 24 -135 92t-33 162q16 110 94 176.5t190 66.5zM331 407q38 0 63 28q23 29 28 65q8 88 -62 88q-39 0 -63 -27.5t-27 -64.5q-9 -89 61 -89z" />
    <glyph glyph-name="colon" unicode=":" horiz-adv-x="281" 
d="M173 532q50 0 79 -35t21 -83q-7 -40 -39 -67t-71 -27q-49 0 -78 34.5t-20 82.5q7 40 38.5 67.5t69.5 27.5zM114 201q50 0 79 -35t21 -83q-7 -40 -39 -67t-71 -27q-49 0 -78 34.5t-20 82.5q7 40 38.5 67.5t69.5 27.5z" />
    <glyph glyph-name="semicolon" unicode=";" horiz-adv-x="281" 
d="M173 532q50 0 79 -35t21 -83q-7 -40 -39 -67t-71 -27q-49 0 -78 34.5t-20 82.5q7 40 38.5 67.5t69.5 27.5zM123 201q51 0 75 -36t15 -91q-30 -162 -215 -246l2 81q58 31 89 83q-39 9 -59.5 41t-13.5 73t37 68t70 27z" />
    <glyph glyph-name="less" unicode="&#x3c;" horiz-adv-x="550" 
d="M555 449l-151 -80l120 -80l-34 -208l-441 288l540 287z" />
    <glyph glyph-name="equal" unicode="=" horiz-adv-x="548" 
d="M545 410h-489l30 171h489zM501 162h-489l30 170h489z" />
    <glyph glyph-name="greater" unicode="&#x3e;" horiz-adv-x="550" 
d="M539 369l-540 -288l34 208l151 80l-120 80l34 207z" />
    <glyph glyph-name="question" unicode="?" horiz-adv-x="555" 
d="M350 761q127 0 191.5 -66.5t43.5 -179.5q-9 -51 -37.5 -87t-73.5 -69q-10 -8 -31.5 -22t-31 -21t-19.5 -20.5t-13 -27.5l-4 -24h-193l6 39q12 75 114 155q7 6 28.5 21t29.5 22.5t18.5 21t12.5 27.5q5 29 -10 44.5t-42 15.5q-35 0 -58 -22t-31 -62l-189 18
q22 108 100.5 172.5t188.5 64.5zM256 201q49 0 78.5 -35t21.5 -83q-7 -40 -39 -67t-71 -27q-49 0 -78 34.5t-20 82.5q7 40 38.5 67.5t69.5 27.5z" />
    <glyph glyph-name="at" unicode="@" horiz-adv-x="795" 
d="M443 606q161 0 248.5 -105.5t64.5 -264.5q-29 -202 -183 -202q-74 0 -108 39q-46 -41 -109 -41q-92 0 -145 63.5t-39 160.5q13 91 70 146.5t137 55.5q73 0 113 -40l7 24h131l-52 -301q-5 -27 22 -27q26 0 51.5 38t35.5 106q17 120 -50.5 199.5t-185.5 79.5
q-131 0 -230 -86.5t-117 -214.5q-18 -127 53.5 -202.5t193.5 -75.5q86 0 167 43l33 -68q-83 -43 -196 -43q-163 0 -253.5 102.5t-66.5 265.5q21 150 137.5 249t270.5 99zM371 154q35 0 58 22t29 60l2 13q5 39 -12 62.5t-51 23.5q-33 0 -55 -22t-29 -63q-7 -43 9.5 -69.5
t48.5 -26.5z" />
    <glyph glyph-name="A" unicode="A" horiz-adv-x="824" 
d="M774 0h-212l-31 118h-288l-72 -118h-212l458 748h163zM335 268h157l-47 181z" />
    <glyph glyph-name="B" unicode="B" horiz-adv-x="718" 
d="M152 748h327q108 0 166 -62t39 -170q-7 -42 -28 -70.5t-57 -56.5q33 -18 52.5 -64t8.5 -111q-19 -104 -92.5 -159t-188.5 -55h-359zM315 577l-21 -113h113q71 0 80 57q12 56 -54 56h-118zM266 300l-23 -129h133q81 0 92 65q4 31 -12.5 47.5t-53.5 16.5h-136z" />
    <glyph glyph-name="C" unicode="C" horiz-adv-x="837" 
d="M494 759q146 0 238.5 -79t95.5 -212l-201 -15q-5 68 -42.5 101.5t-99.5 33.5q-90 0 -151 -62t-75 -163q-14 -98 29 -150.5t120 -52.5q71 0 121.5 36t73.5 104l199 -22q-40 -133 -148 -211t-243 -78q-177 0 -274 107.5t-71 288.5q24 173 143 273.5t285 100.5z" />
    <glyph glyph-name="D" unicode="D" horiz-adv-x="805" 
d="M152 748h298q169 0 265 -105t64 -279q-32 -176 -144 -270t-279 -94h-336zM316 582l-74 -416h128q89 0 147.5 54.5t74.5 161.5q28 200 -151 200h-125z" />
    <glyph glyph-name="E" unicode="E" horiz-adv-x="608" 
d="M612 577h-297l-20 -112h255l-30 -167h-255l-22 -127h299l-31 -171h-491l132 748h490z" />
    <glyph glyph-name="F" unicode="F" horiz-adv-x="592" 
d="M612 577h-297l-19 -109h237l-30 -171h-238l-52 -297h-193l132 748h490z" />
    <glyph glyph-name="G" unicode="G" horiz-adv-x="843" 
d="M458 426h366l-10 -68q-24 -167 -132.5 -268t-270.5 -101q-177 0 -274 107.5t-71 288.5q24 173 143 273.5t286 100.5q136 0 224 -68.5t105 -189.5l-199 -22q-19 109 -136 109q-95 0 -154.5 -56.5t-75.5 -168.5q-15 -103 26 -153t127 -50q114 0 167 95h-145z" />
    <glyph glyph-name="H" unicode="H" horiz-adv-x="768" 
d="M656 0h-193l53 296h-251l-52 -296h-193l132 748h193l-50 -281h251l49 281h193z" />
    <glyph glyph-name="I" unicode="I" horiz-adv-x="325" 
d="M213 0h-193l132 748h193z" />
    <glyph glyph-name="J" unicode="J" horiz-adv-x="635" 
d="M660 748l-82 -470q-25 -138 -109 -213.5t-211 -75.5q-126 0 -191 75.5t-51 201.5l195 8q-6 -59 7.5 -86.5t52.5 -27.5q43 0 73 32t41 88l82 468h193z" />
    <glyph glyph-name="K" unicode="K" horiz-adv-x="749" 
d="M513 444l177 -444h-206l-117 297l-121 -120l-33 -177h-193l132 748h193l-51 -280l263 280h251z" />
    <glyph glyph-name="L" unicode="L" horiz-adv-x="591" 
d="M243 171h297l-30 -171h-490l132 748h193z" />
    <glyph glyph-name="M" unicode="M" horiz-adv-x="969" 
d="M857 0h-193l55 315l-214 -305h-127l-108 314l-57 -324h-193l132 748h164l167 -455l326 455h180z" />
    <glyph glyph-name="N" unicode="N" horiz-adv-x="773" 
d="M661 0h-165l-214 392l-69 -392h-193l132 748h164l214 -394l70 394h193z" />
    <glyph glyph-name="O" unicode="O" horiz-adv-x="880" 
d="M486 759q180 0 283.5 -109.5t84.5 -286.5q-18 -170 -134 -272t-285 -102q-180 0 -284 109.5t-85 286.5q18 170 134 272t286 102zM483 588q-96 0 -156 -61t-67 -164q-6 -95 42 -149t135 -54q96 0 156 61t67 164q6 95 -42 149t-135 54z" />
    <glyph glyph-name="P" unicode="P" horiz-adv-x="678" 
d="M152 748h316q116 0 181.5 -72t47.5 -191q-15 -113 -88.5 -174.5t-187.5 -61.5h-164l-44 -249h-193zM315 577l-28 -158h125q36 0 60.5 20.5t30.5 59.5q5 34 -11.5 56t-51.5 22h-125z" />
    <glyph glyph-name="Q" unicode="Q" horiz-adv-x="886" 
d="M486 759q180 0 283.5 -109.5t84.5 -286.5q-13 -131 -89 -224l73 -86l-142 -126l-82 97q-82 -35 -179 -35q-180 0 -284 109.5t-85 286.5q18 170 134 272t286 102zM558 383l80 -94q19 45 22 96q6 95 -42 149t-135 54q-96 0 -156 -61t-67 -164q-6 -95 42 -149t135 -54
q31 0 56 6l-77 91z" />
    <glyph glyph-name="R" unicode="R" horiz-adv-x="720" 
d="M694 485q-29 -159 -152 -211l98 -274h-202l-88 250h-93l-44 -250h-193l132 748h312q116 0 181.5 -72t48.5 -191zM287 421h122q36 0 59.5 20t30.5 59q5 33 -11 55t-51 22h-122z" />
    <glyph glyph-name="S" unicode="S" horiz-adv-x="668" 
d="M390 759q135 0 208.5 -65.5t58.5 -173.5l-197 -8q5 38 -12.5 59t-55.5 21q-42 0 -68 -19t-31 -51q-4 -27 16.5 -42.5t86.5 -32.5q125 -32 184.5 -84t46.5 -149q-11 -77 -56 -129t-107 -74t-138 -22q-145 0 -224 66.5t-61 183.5l197 7q-6 -42 17.5 -66t69.5 -24
q98 0 105 65q4 27 -21 46t-82 33q-59 15 -98 30t-75 40.5t-50.5 65.5t-6.5 95q14 99 90.5 163.5t202.5 64.5z" />
    <glyph glyph-name="T" unicode="T" horiz-adv-x="700" 
d="M736 577h-234l-102 -577h-192l102 577h-234l30 171h660z" />
    <glyph glyph-name="U" unicode="U" horiz-adv-x="785" 
d="M809 748l-76 -436q-29 -155 -126 -239t-249 -84q-158 0 -235.5 90.5t-49.5 244.5l74 424h193l-77 -430q-27 -158 108 -158q143 0 171 163l74 425h193z" />
    <glyph glyph-name="V" unicode="V" horiz-adv-x="807" 
d="M439 0h-163l-183 748h201l106 -449l264 449h222z" />
    <glyph glyph-name="W" unicode="W" horiz-adv-x="1129" 
d="M815 0h-163l-61 412l-207 -412h-162l-129 748h201l57 -428l210 428h158l58 -428l209 428h222z" />
    <glyph glyph-name="X" unicode="X" horiz-adv-x="749" 
d="M528 371l159 -371h-215l-98 240l-177 -240h-231l294 395l-145 353h214l85 -230l164 230h232z" />
    <glyph glyph-name="Y" unicode="Y" horiz-adv-x="776" 
d="M490 274l-51 -274h-193l51 274l-201 474h216l103 -283l210 283h231z" />
    <glyph glyph-name="Z" unicode="Z" horiz-adv-x="631" 
d="M647 602l-371 -431h306l-30 -171h-560l26 146l370 431h-294l30 171h549z" />
    <glyph glyph-name="bracketleft" unicode="[" horiz-adv-x="333" 
d="M367 567h-82l-86 -493h81l-26 -151h-264l140 795h264z" />
    <glyph glyph-name="backslash" unicode="\" horiz-adv-x="455" 
d="M390 -67h-186l-111 815h186z" />
    <glyph glyph-name="bracketright" unicode="]" horiz-adv-x="333" 
d="M225 -77h-264l26 151h81l87 493h-81l27 151h264z" />
    <glyph glyph-name="asciicircum" unicode="^" horiz-adv-x="621" 
d="M614 371h-203l-55 115l-102 -115h-212l353 397z" />
    <glyph glyph-name="underscore" unicode="_" horiz-adv-x="690" 
d="M569 -171h-600l30 171h600z" />
    <glyph glyph-name="grave" unicode="`" horiz-adv-x="287" 
d="M341 600h-138l-103 191h202z" />
    <glyph glyph-name="a" unicode="a" horiz-adv-x="566" 
d="M326 532q102 0 156 -57.5t36 -156.5l-56 -318h-169l6 32q-52 -43 -135 -43q-75 0 -116 45t-27 123q7 43 29 72t57 44.5t70.5 22t82.5 8.5l72 2l7 30q4 19 -5.5 32t-29.5 13q-47 0 -57 -49l-178 13q13 75 84.5 131t172.5 56zM315 200l-43 -2q-65 -3 -71 -44q-3 -32 35 -32
q28 0 49 16.5t27 46.5z" />
    <glyph glyph-name="b" unicode="b" horiz-adv-x="662" 
d="M336 777l-55 -282q44 37 116 37q117 0 179.5 -79t44.5 -204q-16 -119 -89 -189.5t-186 -70.5q-50 0 -88 14.5t-56 34.5l-13 -38h-172l137 777h182zM355 376q-45 0 -73.5 -28t-35.5 -78l-3 -16q-5 -50 18.5 -79.5t67.5 -29.5q45 0 74 28t36 80q7 57 -17 90t-67 33z" />
    <glyph glyph-name="c" unicode="c" horiz-adv-x="601" 
d="M333 532q103 0 169.5 -57t70.5 -152l-177 -13q0 32 -17 49t-47 17q-44 0 -73 -33.5t-38 -93.5q-6 -49 14 -76.5t56 -27.5q35 0 59 18t33 46l176 -19q-26 -94 -99.5 -147.5t-167.5 -53.5q-126 0 -196.5 76.5t-54.5 206.5q15 121 95.5 190.5t196.5 69.5z" />
    <glyph glyph-name="d" unicode="d" horiz-adv-x="662" 
d="M554 0h-170l3 31q-49 -42 -122 -42q-117 0 -179.5 79t-44.5 204q16 118 89 189t186 71q50 0 86.5 -12.5t49.5 -27.5l55 285h183zM333 376q-45 0 -74 -28t-36 -80q-7 -57 17 -90t67 -33q46 0 74.5 28t34.5 78l3 16q5 50 -18.5 79.5t-67.5 29.5z" />
    <glyph glyph-name="e" unicode="e" horiz-adv-x="603" 
d="M333 532q120 0 184 -72t48 -196l-8 -53h-332q-4 -37 13.5 -59.5t54.5 -22.5q49 0 69 41l183 -12q-23 -79 -94 -124t-161 -45q-130 0 -198.5 77.5t-50.5 205.5q17 120 96.5 190t195.5 70zM330 398q-36 0 -58.5 -22t-30.5 -58h147q9 80 -58 80z" />
    <glyph glyph-name="f" unicode="f" horiz-adv-x="403" 
d="M413 784q38 0 65 -5l-28 -155q-9 2 -29 2q-37 0 -64 -22t-33 -51l-5 -32h114l-29 -156h-113l-64 -365h-183l64 365h-89l28 156h89l8 40q18 102 92 162.5t177 60.5z" />
    <glyph glyph-name="g" unicode="g" horiz-adv-x="650" 
d="M316 532q49 0 87.5 -14.5t56.5 -34.5l13 38h172l-95 -540q-20 -113 -102.5 -179.5t-204.5 -66.5q-128 0 -189.5 56t-57.5 148l178 5q-2 -28 16 -41.5t55 -13.5q49 0 81.5 24.5t41.5 66.5l8 42q-37 -33 -111 -33q-117 0 -179.5 79t-44.5 204q16 118 89 189t186 71z
M333 376q-45 0 -74 -28t-36 -80q-7 -57 17 -90t67 -33q45 0 73.5 28t35.5 78l2 16q6 50 -17.5 79.5t-67.5 29.5z" />
    <glyph glyph-name="h" unicode="h" horiz-adv-x="625" 
d="M336 777l-54 -281q47 36 115 36q99 0 148 -57t31 -156l-56 -319h-182l50 283q6 39 -8 59t-42 20q-73 0 -89 -85l-50 -277h-182l137 777h182z" />
    <glyph glyph-name="i" unicode="i" 
d="M234 788q49 0 78 -35t20 -84q-7 -40 -39 -67t-71 -27q-49 0 -78 34.5t-20 82.5q7 40 39.5 68t70.5 28zM199 0h-182l92 521h183z" />
    <glyph glyph-name="j" unicode="j" 
d="M234 788q49 0 78 -35t20 -84q-7 -40 -39 -67t-71 -27q-49 0 -78 34.5t-20 82.5q8 41 39.5 68.5t70.5 27.5zM291 521l-98 -561q-19 -102 -93.5 -162.5t-177.5 -60.5q-39 0 -64 5l27 155q10 -2 30 -2q37 0 64 22t32 51l98 553h182z" />
    <glyph glyph-name="k" unicode="k" horiz-adv-x="609" 
d="M261 361l160 160h224l-229 -221l134 -300h-196l-74 170l-58 -52l-23 -118h-182l137 777h182z" />
    <glyph glyph-name="l" unicode="l" 
d="M199 0h-182l137 777h182z" />
    <glyph glyph-name="m" unicode="m" horiz-adv-x="927" 
d="M704 532q98 0 146 -57.5t29 -157.5l-56 -317h-182l50 283q13 79 -46 79q-74 0 -85 -88v2l-49 -276h-182l50 283q13 79 -46 79q-69 0 -85 -85l-49 -277h-182l92 521h168l-5 -30q43 41 120 41q110 0 155 -71q63 71 157 71z" />
    <glyph glyph-name="n" unicode="n" horiz-adv-x="624" 
d="M397 532q99 0 148 -57t31 -156l-56 -319h-182l50 283q6 39 -8 59t-42 20q-73 0 -89 -85l-50 -277h-182l92 521h168l-6 -31q42 42 126 42z" />
    <glyph glyph-name="o" unicode="o" horiz-adv-x="643" 
d="M338 532q129 0 204 -79t60 -204q-12 -117 -95 -188.5t-202 -71.5q-129 0 -204 79t-60 204q12 117 95 188.5t202 71.5zM340 376q-51 0 -83 -34.5t-35 -92.5q-1 -50 20 -77t61 -27q50 0 82 34.5t36 92.5q1 50 -20 77t-61 27z" />
    <glyph glyph-name="p" unicode="p" horiz-adv-x="662" 
d="M397 532q117 0 179.5 -79t44.5 -204q-16 -119 -89 -189.5t-186 -70.5q-50 0 -86.5 12.5t-49.5 27.5l-56 -284h-182l136 776h170l-3 -31q49 42 122 42zM355 376q-46 0 -74.5 -28t-34.5 -78l-3 -16q-5 -50 18.5 -79.5t67.5 -29.5q45 0 74 28t36 80q7 57 -17 90t-67 33z" />
    <glyph glyph-name="q" unicode="q" horiz-adv-x="662" 
d="M316 532q49 0 87.5 -14.5t56.5 -34.5l13 38h172l-137 -776h-183l56 281q-44 -37 -116 -37q-117 0 -179.5 79t-44.5 204q16 118 89 189t186 71zM333 376q-45 0 -74 -28t-36 -80q-7 -57 17 -90t67 -33q45 0 73.5 28t35.5 78l2 16q6 50 -17.5 79.5t-67.5 29.5z" />
    <glyph glyph-name="r" unicode="r" horiz-adv-x="402" 
d="M421 526l-29 -176q-59 0 -100.5 -31.5t-49.5 -81.5l-43 -237h-182l92 521h171l-6 -40q48 45 147 45z" />
    <glyph glyph-name="s" unicode="s" horiz-adv-x="510" 
d="M277 532q106 0 160 -49.5t51 -123.5l-181 -4q4 22 -6 35.5t-30 13.5q-37 0 -42 -33q-2 -18 15.5 -28t58.5 -20q86 -21 128.5 -58t33.5 -107q-11 -78 -72 -123.5t-163 -45.5q-111 0 -166.5 45t-50.5 125l180 6q-10 -48 43 -48q42 0 47 32q4 33 -60 50q-51 14 -80 25
t-56 30t-36 48t-3 71q10 75 71.5 117t157.5 42z" />
    <glyph glyph-name="t" unicode="t" horiz-adv-x="433" 
d="M304 365l-28 -153q-5 -32 11 -46t42 -14q23 0 50 5l-27 -163q-40 -5 -82 -5q-101 0 -150 48.5t-32 140.5l34 187h-94l28 156h95l31 168h182l-31 -168h111l-28 -156h-112z" />
    <glyph glyph-name="u" unicode="u" horiz-adv-x="609" 
d="M500 0h-165l3 30q-43 -41 -121 -41q-97 0 -142 54t-29 151l58 327h182l-50 -291q-13 -71 43 -71q68 0 80 74l51 288h182z" />
    <glyph glyph-name="v" unicode="v" horiz-adv-x="599" 
d="M326 0h-145l-134 521h193l50 -260l143 260h211z" />
    <glyph glyph-name="w" unicode="w" horiz-adv-x="862" 
d="M614 0h-145l-45 219l-123 -219h-145l-109 521h193l32 -257l132 257h128l40 -257l124 257h211z" />
    <glyph glyph-name="x" unicode="x" horiz-adv-x="577" 
d="M407 256l112 -256h-196l-54 132l-97 -132h-211l207 266l-111 255h193l53 -133l102 133h210z" />
    <glyph glyph-name="y" unicode="y" horiz-adv-x="598" 
d="M172 -255h-203l195 319l-117 457h201l52 -260l141 260h203z" />
    <glyph glyph-name="z" unicode="z" horiz-adv-x="460" 
d="M445 401l-216 -254h176l-25 -147h-391l21 120l217 254h-169l26 147h382z" />
    <glyph glyph-name="braceleft" unicode="{" horiz-adv-x="334" 
d="M395 718l-27 -151q-42 0 -62 -26t-25 -95q-2 -61 -20.5 -91.5t-78.5 -34.5q96 -7 54 -147q-19 -63 -13.5 -81t46.5 -18h12l-26 -151q-126 0 -186.5 66t-15.5 189q24 46 21.5 57t-48.5 11h-14l26 149h2q47 0 61 18t13 73q-6 116 69 174t200 58h12z" />
    <glyph glyph-name="bar" unicode="|" 
d="M188 -67h-183l144 815h183z" />
    <glyph glyph-name="braceright" unicode="}" horiz-adv-x="334" 
d="M74 567l27 151q126 0 186 -66t15 -189q-24 -46 -21.5 -57t48.5 -11h14l-26 -149h-2q-47 0 -61 -18t-13 -73q6 -116 -68.5 -174t-199.5 -58h-12l26 151q42 0 62 26t26 96q1 59 20 90t80 36q-98 5 -56 146q20 64 14 81.5t-47 17.5h-12z" />
    <glyph glyph-name="asciitilde" unicode="~" horiz-adv-x="549" 
d="M497 483l69 -131q-85 -93 -175 -93q-46 0 -98.5 27t-79.5 27q-72 0 -123 -54l-67 131q84 93 174 93q47 0 99.5 -27t78.5 -27q72 0 122 54z" />
    <glyph glyph-name="exclamdown" unicode="&#xa1;" horiz-adv-x="350" 
d="M198 299q-49 0 -78.5 35t-20.5 83q7 40 38.5 67t70.5 27q50 0 78.5 -34.5t20.5 -82.5q-8 -41 -39 -68t-70 -27zM79 256h193l-78 -504h-214z" />
    <glyph glyph-name="cent" unicode="&#xa2;" horiz-adv-x="601" 
d="M291 145q35 0 59 18t33 46l176 -19q-24 -83 -84 -135t-140 -63l-20 -110h-151l23 124q-79 28 -118.5 97.5t-27.5 168.5q12 106 76.5 173t160.5 83l18 99h151l-20 -110q65 -22 104 -73t42 -121l-177 -13q0 32 -17 49t-47 17q-44 0 -73 -33.5t-38 -93.5q-6 -49 14 -76.5
t56 -27.5z" />
    <glyph glyph-name="sterling" unicode="&#xa3;" horiz-adv-x="577" 
d="M603 538l-192 -6q4 27 -5 41.5t-28 14.5q-25 0 -41 -19t-18 -53l-5 -73h136l-27 -151h-121q-10 -82 -58 -125l300 4l-30 -171h-536l22 158q56 6 83.5 38.5t36.5 95.5h-88l27 151h74l3 43q10 136 72.5 204.5t187.5 68.5q108 0 165 -59t42 -162z" />
    <glyph glyph-name="currency" unicode="&#xa4;" horiz-adv-x="610" 
d="M496 241q-7 -37 -23 -72l88 -103l-129 -115l-93 108q-25 -7 -58 -7q-41 0 -72 12l-129 -113l-100 115l132 115q-8 38 0 82q5 33 24 71l-91 106l131 114l93 -109q29 8 56 8q38 0 72 -13l131 114l99 -114l-132 -117q9 -37 1 -82zM256 245q-11 -65 30 -65q50 0 65 79
q10 65 -31 65q-50 0 -64 -79z" />
    <glyph glyph-name="yen" unicode="&#xa5;" horiz-adv-x="776" 
d="M555 358h76l-20 -113h-126l-10 -51h128l-21 -112h-128l-15 -82h-193l15 82h-130l21 112h130l10 51h-131l19 113h81l-165 390h216l103 -283l210 283h231z" />
    <glyph glyph-name="brokenbar" unicode="&#xa6;" 
d="M276 429h-183l56 319h183zM188 -67h-183l57 319h183z" />
    <glyph glyph-name="section" unicode="&#xa7;" horiz-adv-x="538" 
d="M347 541q110 -24 157 -57t37 -107q-10 -73 -88 -119q49 -39 38 -119q-10 -73 -75.5 -120t-169.5 -47q-120 0 -180 48t-47 128l181 3q-3 -23 7 -38t36 -15q63 0 68 46q0 8 -1 12.5t-8 11t-24.5 13t-46.5 12.5q-54 12 -86.5 23t-62.5 29.5t-41.5 46t-6.5 66.5q12 75 91 119
q-49 40 -38 119q11 73 73.5 118t161.5 45q116 0 173 -45.5t47 -121.5l-181 -3q5 44 -38 44q-53 0 -56 -40q-2 -17 12 -28.5t68 -23.5zM310 308q28 14 44 29.5t19 38.5q3 19 -17 27t-89 24q-19 -10 -30.5 -18t-21.5 -21t-12 -29q-3 -18 18 -27t89 -24z" />
    <glyph glyph-name="dieresis" unicode="&#xa8;" horiz-adv-x="418" 
d="M176 773q46 0 72.5 -31.5t18.5 -75.5q-7 -36 -35 -60t-63 -24q-45 0 -71 31.5t-18 75.5q6 36 33.5 60t62.5 24zM395 773q46 0 73 -31.5t19 -75.5q-8 -36 -36 -60t-63 -24q-45 0 -71 31.5t-18 75.5q6 36 34 60t62 24z" />
    <glyph glyph-name="copyright" unicode="&#xa9;" horiz-adv-x="603" 
d="M368 762q124 0 196 -78t55 -193q-15 -107 -99 -176t-198 -69q-126 0 -198 78.5t-56 194.5q16 107 100 175t200 68zM370 701q-90 0 -154.5 -53.5t-76.5 -138.5q-13 -88 38 -144.5t143 -56.5q88 0 152.5 54t76.5 140q13 87 -37.5 143t-141.5 56zM354 663q62 0 102 -32.5
t41 -86.5l-100 -5q-3 37 -40 37q-57 0 -68 -80q-4 -29 8.5 -44t34.5 -15q41 0 55 40l102 -10q-16 -54 -58 -85.5t-94 -31.5q-74 0 -116 46t-31 122q10 68 55 106.5t109 38.5z" />
    <glyph glyph-name="ordfeminine" unicode="&#xaa;" horiz-adv-x="467" 
d="M306 757q97 0 144 -44.5t31 -128.5l-45 -255h-153l4 22q-43 -31 -103 -31q-68 0 -102.5 32t-26.5 93q5 35 24 60t50 38.5t64 20t77 9.5l48 4l3 20q3 34 -25 34q-37 0 -42 -36l-159 5q11 61 68.5 109t142.5 48zM301 488l-35 -5q-38 -5 -42 -28q-2 -11 5 -16.5t21 -5.5
q41 0 47 33z" />
    <glyph glyph-name="guillemotleft" unicode="&#xab;" horiz-adv-x="612" 
d="M344 408l-130 -162l65 -146l-147 -84l-118 249l189 241zM629 408l-130 -162l65 -146l-147 -84l-118 249l189 241z" />
    <glyph glyph-name="logicalnot" unicode="&#xac;" horiz-adv-x="631" 
d="M574 136h-142l36 195h-426l25 141h567z" />
    <glyph glyph-name="registered" unicode="&#xae;" horiz-adv-x="603" 
d="M368 762q124 0 196 -78t55 -193q-15 -107 -99 -176t-198 -69q-126 0 -198 78.5t-56 194.5q16 107 100 175t200 68zM549 502q13 87 -37.5 143t-141.5 56q-90 0 -154.5 -53.5t-76.5 -138.5q-13 -88 38 -144.5t143 -56.5q88 0 152.5 54t76.5 140zM247 659h144q47 0 72 -32
t16 -83q-9 -58 -54 -81l31 -110h-105l-25 97h-16l-18 -97h-99zM323 529h21q33 0 38 25t-23 25h-26z" />
    <glyph glyph-name="macron" unicode="&#xaf;" horiz-adv-x="331" 
d="M388 609h-322l25 140h322z" />
    <glyph glyph-name="degree" unicode="&#xb0;" horiz-adv-x="395" 
d="M271 758q82 0 126.5 -44.5t31.5 -117.5l-3 -22q-13 -72 -64 -111t-123 -39q-82 0 -126 44.5t-31 117.5l4 22q13 73 63 111.5t122 38.5zM267 648q-47 0 -58 -49l-3 -15q-5 -23 5.5 -36.5t31.5 -13.5q24 0 40 14t20 38l2 13q7 49 -38 49z" />
    <glyph glyph-name="plusminus" unicode="&#xb1;" horiz-adv-x="548" 
d="M417 571h156l-29 -165h-156l-28 -162h-177l28 162h-156l30 165h155l29 162h177zM478 29h-489l30 171h489z" />
    <glyph glyph-name="acute" unicode="&#xb4;" horiz-adv-x="287" 
d="M208 600h-146l107 191h210z" />
    <glyph glyph-name="paragraph" unicode="&#xb6;" horiz-adv-x="737" 
d="M785 614h-70l-120 -681h-141l120 681h-74l-121 -681h-140l76 429h-46q-100 0 -152 53.5t-34 151.5q16 90 79.5 135.5t163.5 45.5h483z" />
    <glyph glyph-name="periodcentered" unicode="&#xb7;" horiz-adv-x="301" 
d="M167 447q49 0 78.5 -35t20.5 -83q-7 -40 -38.5 -67t-70.5 -27q-50 0 -78.5 34.5t-20.5 82.5q7 40 38.5 67.5t70.5 27.5z" />
    <glyph glyph-name="cedilla" unicode="&#xb8;" horiz-adv-x="274" 
d="M121 14l-34 -55q49 -2 81 -32.5t23 -83.5q-8 -48 -52.5 -73.5t-98.5 -25.5q-66 0 -108 21l31 81q10 -7 37 -7q54 0 60 30q2 12 -5.5 21.5t-17.5 9.5q-20 0 -49 -9l58 123h75z" />
    <glyph glyph-name="ordmasculine" unicode="&#xba;" horiz-adv-x="517" 
d="M325 757q106 0 165.5 -64.5t44.5 -165.5q-13 -94 -80.5 -150.5t-163.5 -56.5q-107 0 -166.5 64t-44.5 166q13 93 81 150t164 57zM323 619q-34 0 -56 -24t-26 -65q-2 -34 11.5 -52.5t40.5 -18.5q34 0 56.5 23.5t25.5 63.5q3 35 -11 54t-41 19z" />
    <glyph glyph-name="guillemotright" unicode="&#xbb;" horiz-adv-x="612" 
d="M316 257l-190 -241l-140 98l130 162l-65 146l146 84zM600 257l-189 -241l-140 98l129 162l-65 146l147 84z" />
    <glyph glyph-name="onequarter" unicode="&#xbc;" horiz-adv-x="772" 
d="M182 0h-190l625 748h190zM227 322h-139l37 219l-32 -16l-43 119l162 89h87zM708 169h33l-22 -123h-32l-8 -46h-139l7 46h-155l20 108l205 257h134zM536 169h33l11 55z" />
    <glyph glyph-name="onehalf" unicode="&#xbd;" horiz-adv-x="813" 
d="M182 0h-190l625 748h190zM227 322h-139l37 219l-32 -16l-43 119l162 89h87zM674 418q72 0 102.5 -42t20.5 -105q-3 -25 -15 -47.5t-24 -36t-34 -35.5l-28 -28h73l-22 -124h-288l16 96l157 142q21 19 26 44q2 12 -3 12q-7 0 -11 -17l-135 8q12 62 56.5 97.5t108.5 35.5z
" />
    <glyph glyph-name="threequarters" unicode="&#xbe;" horiz-adv-x="843" 
d="M254 0h-190l625 748h190zM237 739q74 0 108 -38.5t22 -103.5q-4 -24 -14 -39.5t-32 -31.5q12 -11 19 -34.5t2 -53.5q-10 -59 -52 -91.5t-102 -32.5q-76 0 -112 38.5t-24 96.5l140 5q-5 -16 2 -16q5 0 9 8.5t4 20.5q-2 8 -7 8h-50l19 108h37q9 0 19.5 10t9.5 24q0 2 -4 2
t-8.5 -6.5t-5.5 -14.5l-131 12q20 129 151 129zM780 169h33l-22 -123h-32l-8 -46h-139l7 46h-155l20 108l205 257h134zM608 169h33l11 55z" />
    <glyph glyph-name="questiondown" unicode="&#xbf;" horiz-adv-x="555" 
d="M300 320q-49 0 -78.5 35t-20.5 83q7 40 38.5 67t70.5 27q49 0 78 -34.5t21 -82.5q-8 -41 -39 -68t-70 -27zM206 -240q-127 0 -191 66t-44 179q9 52 37.5 88t73.5 69q11 8 32 22t30.5 21t20 20.5t12.5 27.5l4 24h193l-6 -39q-12 -75 -114 -155q-7 -6 -28.5 -21
t-29.5 -22.5t-18.5 -21t-12.5 -27.5q-5 -29 10 -45t42 -16q35 0 58 22.5t31 62.5l189 -18q-22 -108 -100.5 -172.5t-188.5 -64.5z" />
    <glyph glyph-name="Agrave" unicode="&#xc0;" horiz-adv-x="824" 
d="M587 795h-160l-171 162h244zM774 0h-212l-31 118h-288l-72 -118h-212l458 748h163zM335 268h157l-47 181z" />
    <glyph glyph-name="Aacute" unicode="&#xc1;" horiz-adv-x="824" 
d="M598 795h-168l144 162h252zM774 0h-212l-31 118h-288l-72 -118h-212l458 748h163zM335 268h157l-47 181z" />
    <glyph glyph-name="Acircumflex" unicode="&#xc2;" horiz-adv-x="824" 
d="M716 795h-147l-37 66l-66 -66h-156l144 170h177zM774 0h-212l-31 118h-288l-72 -118h-212l458 748h163zM335 268h157l-47 181z" />
    <glyph glyph-name="Atilde" unicode="&#xc3;" horiz-adv-x="824" 
d="M466 974q30 0 50 -12t34.5 -24.5t31.5 -12.5q48 0 54 41h99q3 -75 -41.5 -126.5t-102.5 -51.5q-40 0 -69.5 25t-46.5 25q-49 0 -54 -44h-99q-3 75 41.5 127.5t102.5 52.5zM774 0h-212l-31 118h-288l-72 -118h-212l458 748h163zM335 268h157l-47 181z" />
    <glyph glyph-name="Adieresis" unicode="&#xc4;" horiz-adv-x="824" 
d="M423 980q46 0 72.5 -31.5t18.5 -75.5q-6 -36 -33.5 -60t-63.5 -24q-45 0 -71.5 31.5t-18.5 75.5q6 35 34 59.5t62 24.5zM643 980q45 0 72 -31.5t19 -75.5q-6 -36 -34 -60t-64 -24q-45 0 -71.5 31.5t-18.5 75.5q7 35 35 59.5t62 24.5zM774 0h-212l-31 118h-288l-72 -118
h-212l458 748h163zM335 268h157l-47 181z" />
    <glyph glyph-name="Aring" unicode="&#xc5;" horiz-adv-x="824" 
d="M541 1019q56 0 89 -35.5t23 -88.5q-7 -45 -43.5 -73.5t-82.5 -28.5q-57 0 -89.5 36t-23.5 89q8 45 44 73t83 28zM537 941q-31 0 -37 -31q-3 -16 6 -27t25 -11q32 0 37 31q3 17 -5.5 27.5t-25.5 10.5zM774 0h-212l-31 118h-288l-72 -118h-212l458 748h163zM335 268h157
l-47 181z" />
    <glyph glyph-name="AE" unicode="&#xc6;" horiz-adv-x="1052" 
d="M759 577l-20 -112h255l-30 -167h-255l-22 -127h299l-31 -171h-491l13 75h-218l-65 -75h-240l640 748h492l-30 -171h-297zM504 224l32 181l-153 -181h121z" />
    <glyph glyph-name="Ccedilla" unicode="&#xc7;" horiz-adv-x="837" 
d="M408 160q71 0 121.5 36t73.5 104l199 -22q-40 -133 -148 -211t-243 -78h-7l-22 -35q49 -2 81 -32.5t23 -83.5q-8 -48 -52.5 -73.5t-98.5 -25.5q-66 0 -108 21l31 81q10 -7 37 -7q54 0 60 30q2 12 -5.5 21.5t-17.5 9.5q-20 0 -49 -9l51 109q-143 23 -217 126.5t-51 263.5
q24 173 143 273.5t285 100.5q146 0 238.5 -79t95.5 -212l-201 -15q-5 68 -42.5 101.5t-99.5 33.5q-90 0 -151 -62t-75 -163q-14 -98 29 -150.5t120 -52.5z" />
    <glyph glyph-name="Egrave" unicode="&#xc8;" horiz-adv-x="608" 
d="M483 795h-160l-171 162h244zM612 577h-297l-20 -112h255l-30 -167h-255l-22 -127h299l-31 -171h-491l132 748h490z" />
    <glyph glyph-name="Eacute" unicode="&#xc9;" horiz-adv-x="608" 
d="M493 795h-168l144 162h252zM612 577h-297l-20 -112h255l-30 -167h-255l-22 -127h299l-31 -171h-491l132 748h490z" />
    <glyph glyph-name="Ecircumflex" unicode="&#xca;" horiz-adv-x="608" 
d="M611 795h-147l-37 66l-66 -66h-156l144 170h177zM612 577h-297l-20 -112h255l-30 -167h-255l-22 -127h299l-31 -171h-491l132 748h490z" />
    <glyph glyph-name="Edieresis" unicode="&#xcb;" horiz-adv-x="608" 
d="M318 980q46 0 72.5 -31.5t18.5 -75.5q-6 -36 -33.5 -60t-63.5 -24q-45 0 -71.5 31.5t-18.5 75.5q6 35 34 59.5t62 24.5zM538 980q45 0 72 -31.5t19 -75.5q-6 -36 -34 -60t-64 -24q-45 0 -71.5 31.5t-18.5 75.5q7 35 35 59.5t62 24.5zM612 577h-297l-20 -112h255l-30 -167
h-255l-22 -127h299l-31 -171h-491l132 748h490z" />
    <glyph glyph-name="Igrave" unicode="&#xcc;" horiz-adv-x="325" 
d="M336 795h-160l-171 162h244zM213 0h-193l132 748h193z" />
    <glyph glyph-name="Iacute" unicode="&#xcd;" horiz-adv-x="325" 
d="M346 795h-168l144 162h252zM213 0h-193l132 748h193z" />
    <glyph glyph-name="Icircumflex" unicode="&#xce;" horiz-adv-x="325" 
d="M464 795h-147l-37 66l-66 -66h-156l144 170h177zM213 0h-193l132 748h193z" />
    <glyph glyph-name="Idieresis" unicode="&#xcf;" horiz-adv-x="325" 
d="M172 980q46 0 72.5 -31.5t18.5 -75.5q-6 -36 -33.5 -60t-63.5 -24q-45 0 -71.5 31.5t-18.5 75.5q6 35 34 59.5t62 24.5zM392 980q45 0 72 -31.5t19 -75.5q-6 -36 -34 -60t-64 -24q-45 0 -71.5 31.5t-18.5 75.5q7 35 35 59.5t62 24.5zM213 0h-193l132 748h193z" />
    <glyph glyph-name="Eth" unicode="&#xd0;" horiz-adv-x="812" 
d="M152 748h298q169 0 265 -105t64 -279q-32 -176 -144 -270t-279 -94h-336l53 300h-55l25 147h56zM592 382q28 200 -151 200h-125l-24 -135h99l-25 -147h-100l-24 -134h128q89 0 147.5 54.5t74.5 161.5z" />
    <glyph glyph-name="Ntilde" unicode="&#xd1;" horiz-adv-x="773" 
d="M434 974q30 0 50 -12t34.5 -24.5t31.5 -12.5q48 0 54 41h99q3 -75 -41.5 -126.5t-102.5 -51.5q-40 0 -69.5 25t-46.5 25q-49 0 -54 -44h-99q-3 75 41.5 127.5t102.5 52.5zM661 0h-165l-214 392l-69 -392h-193l132 748h164l214 -394l70 394h193z" />
    <glyph glyph-name="Ograve" unicode="&#xd2;" horiz-adv-x="880" 
d="M609 795h-160l-171 162h244zM486 759q180 0 283.5 -109.5t84.5 -286.5q-18 -170 -134 -272t-285 -102q-180 0 -284 109.5t-85 286.5q18 170 134 272t286 102zM483 588q-96 0 -156 -61t-67 -164q-6 -95 42 -149t135 -54q96 0 156 61t67 164q6 95 -42 149t-135 54z" />
    <glyph glyph-name="Oacute" unicode="&#xd3;" horiz-adv-x="880" 
d="M619 795h-168l144 162h252zM486 759q180 0 283.5 -109.5t84.5 -286.5q-18 -170 -134 -272t-285 -102q-180 0 -284 109.5t-85 286.5q18 170 134 272t286 102zM483 588q-96 0 -156 -61t-67 -164q-6 -95 42 -149t135 -54q96 0 156 61t67 164q6 95 -42 149t-135 54z" />
    <glyph glyph-name="Ocircumflex" unicode="&#xd4;" horiz-adv-x="880" 
d="M737 795h-147l-37 66l-66 -66h-156l144 170h177zM486 759q180 0 283.5 -109.5t84.5 -286.5q-18 -170 -134 -272t-285 -102q-180 0 -284 109.5t-85 286.5q18 170 134 272t286 102zM483 588q-96 0 -156 -61t-67 -164q-6 -95 42 -149t135 -54q96 0 156 61t67 164
q6 95 -42 149t-135 54z" />
    <glyph glyph-name="Otilde" unicode="&#xd5;" horiz-adv-x="880" 
d="M488 974q30 0 50 -12t34.5 -24.5t31.5 -12.5q48 0 54 41h99q3 -75 -41.5 -126.5t-102.5 -51.5q-40 0 -69.5 25t-46.5 25q-49 0 -54 -44h-99q-3 75 41.5 127.5t102.5 52.5zM486 759q180 0 283.5 -109.5t84.5 -286.5q-18 -170 -134 -272t-285 -102q-180 0 -284 109.5
t-85 286.5q18 170 134 272t286 102zM483 588q-96 0 -156 -61t-67 -164q-6 -95 42 -149t135 -54q96 0 156 61t67 164q6 95 -42 149t-135 54z" />
    <glyph glyph-name="Odieresis" unicode="&#xd6;" horiz-adv-x="880" 
d="M445 980q46 0 72.5 -31.5t18.5 -75.5q-6 -36 -33.5 -60t-63.5 -24q-45 0 -71.5 31.5t-18.5 75.5q6 35 34 59.5t62 24.5zM665 980q45 0 72 -31.5t19 -75.5q-6 -36 -34 -60t-64 -24q-45 0 -71.5 31.5t-18.5 75.5q7 35 35 59.5t62 24.5zM486 759q180 0 283.5 -109.5
t84.5 -286.5q-18 -170 -134 -272t-285 -102q-180 0 -284 109.5t-85 286.5q18 170 134 272t286 102zM483 588q-96 0 -156 -61t-67 -164q-6 -95 42 -149t135 -54q96 0 156 61t67 164q6 95 -42 149t-135 54z" />
    <glyph glyph-name="multiply" unicode="&#xd7;" horiz-adv-x="565" 
d="M569 492l-147 -125l102 -123l-133 -115l-102 122l-146 -125l-109 125l147 125l-102 124l133 116l101 -124l146 125z" />
    <glyph glyph-name="Oslash" unicode="&#xd8;" horiz-adv-x="880" 
d="M878 719l-88 -94q80 -106 64 -262q-18 -170 -134 -272t-285 -102q-112 0 -199 45l-86 -92l-108 90l87 92q-79 106 -63 261q18 170 134 272t286 102q110 0 197 -45l88 94zM260 363q-3 -50 9 -89l285 303q-33 11 -71 11q-96 0 -156 -61t-67 -164zM660 385q3 49 -10 91
l-285 -304q31 -12 72 -12q96 0 156 61t67 164z" />
    <glyph glyph-name="Ugrave" unicode="&#xd9;" horiz-adv-x="785" 
d="M561 795h-160l-171 162h244zM809 748l-76 -436q-29 -155 -126 -239t-249 -84q-158 0 -235.5 90.5t-49.5 244.5l74 424h193l-77 -430q-27 -158 108 -158q143 0 171 163l74 425h193z" />
    <glyph glyph-name="Uacute" unicode="&#xda;" horiz-adv-x="785" 
d="M571 795h-168l144 162h252zM809 748l-76 -436q-29 -155 -126 -239t-249 -84q-158 0 -235.5 90.5t-49.5 244.5l74 424h193l-77 -430q-27 -158 108 -158q143 0 171 163l74 425h193z" />
    <glyph glyph-name="Ucircumflex" unicode="&#xdb;" horiz-adv-x="785" 
d="M689 795h-147l-37 66l-66 -66h-156l144 170h177zM809 748l-76 -436q-29 -155 -126 -239t-249 -84q-158 0 -235.5 90.5t-49.5 244.5l74 424h193l-77 -430q-27 -158 108 -158q143 0 171 163l74 425h193z" />
    <glyph glyph-name="Udieresis" unicode="&#xdc;" horiz-adv-x="785" 
d="M396 980q46 0 72.5 -31.5t18.5 -75.5q-6 -36 -33.5 -60t-63.5 -24q-45 0 -71.5 31.5t-18.5 75.5q6 35 34 59.5t62 24.5zM616 980q45 0 72 -31.5t19 -75.5q-6 -36 -34 -60t-64 -24q-45 0 -71.5 31.5t-18.5 75.5q7 35 35 59.5t62 24.5zM809 748l-76 -436
q-29 -155 -126 -239t-249 -84q-158 0 -235.5 90.5t-49.5 244.5l74 424h193l-77 -430q-27 -158 108 -158q143 0 171 163l74 425h193z" />
    <glyph glyph-name="Yacute" unicode="&#xdd;" horiz-adv-x="776" 
d="M566 795h-168l144 162h252zM490 274l-51 -274h-193l51 274l-201 474h216l103 -283l210 283h231z" />
    <glyph glyph-name="Thorn" unicode="&#xde;" horiz-adv-x="669" 
d="M329 659h133q115 0 173.5 -70.5t37.5 -190.5q-20 -113 -96 -176t-190 -63h-146l-28 -159h-193l132 748h193zM299 488l-27 -158h109q36 0 63.5 25t34.5 66q12 67 -59 67h-121z" />
    <glyph glyph-name="germandbls" unicode="&#xdf;" horiz-adv-x="674" 
d="M396 785q123 0 189 -54.5t49 -141.5q-6 -34 -23.5 -58.5t-35 -37t-34.5 -31.5t-21 -42q-4 -20 8 -37.5t30.5 -33.5t36.5 -35.5t27 -52t2 -73.5q-17 -94 -90.5 -145t-174.5 -51q-67 0 -117 18l48 147q31 -13 61 -13q35 0 62 17t34 54q4 25 -14 52t-42 48.5t-41 54.5
t-10 68q5 30 22 50t34 29t33 24.5t20 35.5q5 25 -10 41t-46 16q-40 0 -65.5 -26t-33.5 -70l-95 -538h-183l99 555q19 108 94.5 169t186.5 61z" />
    <glyph glyph-name="agrave" unicode="&#xe0;" horiz-adv-x="566" 
d="M407 600h-138l-103 191h202zM326 532q102 0 156 -57.5t36 -156.5l-56 -318h-169l6 32q-52 -43 -135 -43q-75 0 -116 45t-27 123q7 43 29 72t57 44.5t70.5 22t82.5 8.5l72 2l7 30q4 19 -5.5 32t-29.5 13q-47 0 -57 -49l-178 13q13 75 84.5 131t172.5 56zM315 200l-43 -2
q-65 -3 -71 -44q-3 -32 35 -32q28 0 49 16.5t27 46.5z" />
    <glyph glyph-name="aacute" unicode="&#xe1;" horiz-adv-x="566" 
d="M414 600h-146l107 191h210zM326 532q102 0 156 -57.5t36 -156.5l-56 -318h-169l6 32q-52 -43 -135 -43q-75 0 -116 45t-27 123q7 43 29 72t57 44.5t70.5 22t82.5 8.5l72 2l7 30q4 19 -5.5 32t-29.5 13q-47 0 -57 -49l-178 13q13 75 84.5 131t172.5 56zM315 200l-43 -2
q-65 -3 -71 -44q-3 -32 35 -32q28 0 49 16.5t27 46.5z" />
    <glyph glyph-name="acircumflex" unicode="&#xe2;" horiz-adv-x="566" 
d="M544 600h-147l-37 65l-66 -65h-156l147 182h177zM326 532q102 0 156 -57.5t36 -156.5l-56 -318h-169l6 32q-52 -43 -135 -43q-75 0 -116 45t-27 123q7 43 29 72t57 44.5t70.5 22t82.5 8.5l72 2l7 30q4 19 -5.5 32t-29.5 13q-47 0 -57 -49l-178 13q13 75 84.5 131
t172.5 56zM315 200l-43 -2q-65 -3 -71 -44q-3 -32 35 -32q28 0 49 16.5t27 46.5z" />
    <glyph glyph-name="atilde" unicode="&#xe3;" horiz-adv-x="566" 
d="M296 776q30 0 50 -12t34.5 -24.5t31.5 -12.5q48 0 54 41h99q3 -75 -41 -126t-103 -51q-40 0 -69.5 24.5t-46.5 24.5q-49 0 -54 -44h-99q-3 75 41.5 127.5t102.5 52.5zM326 532q102 0 156 -57.5t36 -156.5l-56 -318h-169l6 32q-52 -43 -135 -43q-75 0 -116 45t-27 123
q7 43 29 72t57 44.5t70.5 22t82.5 8.5l72 2l7 30q4 19 -5.5 32t-29.5 13q-47 0 -57 -49l-178 13q13 75 84.5 131t172.5 56zM315 200l-43 -2q-65 -3 -71 -44q-3 -32 35 -32q28 0 49 16.5t27 46.5z" />
    <glyph glyph-name="adieresis" unicode="&#xe4;" horiz-adv-x="566" 
d="M250 773q46 0 72.5 -31.5t18.5 -75.5q-7 -36 -35 -60t-63 -24q-45 0 -71 31.5t-18 75.5q6 36 33.5 60t62.5 24zM469 773q46 0 73 -31.5t19 -75.5q-8 -36 -36 -60t-63 -24q-45 0 -71 31.5t-18 75.5q6 36 34 60t62 24zM326 532q102 0 156 -57.5t36 -156.5l-56 -318h-169
l6 32q-52 -43 -135 -43q-75 0 -116 45t-27 123q7 43 29 72t57 44.5t70.5 22t82.5 8.5l72 2l7 30q4 19 -5.5 32t-29.5 13q-47 0 -57 -49l-178 13q13 75 84.5 131t172.5 56zM315 200l-43 -2q-65 -3 -71 -44q-3 -32 35 -32q28 0 49 16.5t27 46.5z" />
    <glyph glyph-name="aring" unicode="&#xe5;" horiz-adv-x="566" 
d="M372 838q64 0 102 -41t28 -101q-10 -53 -52.5 -87t-96.5 -34q-65 0 -103 41t-27 103q9 52 51.5 85.5t97.5 33.5zM367 745q-32 0 -41 -35q-4 -17 6 -29.5t29 -12.5q31 0 40 35q4 19 -5.5 30.5t-28.5 11.5zM326 532q102 0 156 -57.5t36 -156.5l-56 -318h-169l6 32
q-52 -43 -135 -43q-75 0 -116 45t-27 123q7 43 29 72t57 44.5t70.5 22t82.5 8.5l72 2l7 30q4 19 -5.5 32t-29.5 13q-47 0 -57 -49l-178 13q13 75 84.5 131t172.5 56zM315 200l-43 -2q-65 -3 -71 -44q-3 -32 35 -32q28 0 49 16.5t27 46.5z" />
    <glyph glyph-name="ae" unicode="&#xe6;" horiz-adv-x="882" 
d="M617 532q120 0 184.5 -72t47.5 -196l-8 -53h-331q-5 -37 12.5 -59.5t54.5 -22.5q49 0 69 41l183 -12q-23 -79 -94 -124t-161 -45q-124 0 -192 71q-86 -71 -185 -71q-97 0 -143.5 43.5t-32.5 124.5q7 43 29 72t57 44.5t70.5 22t82.5 8.5l71 2l5 19l3 11q4 19 -5.5 32
t-29.5 13q-47 0 -57 -49l-178 13q13 75 80.5 131t164.5 56q90 0 143 -44q68 44 160 44zM614 398q-69 0 -88 -80h147q5 39 -10.5 59.5t-48.5 20.5zM315 200l-42 -2q-65 -3 -72 -45q-2 -15 7 -23t28 -8q23 0 47 18.5t28 40.5z" />
    <glyph glyph-name="ccedilla" unicode="&#xe7;" horiz-adv-x="601" 
d="M291 145q35 0 59 18t33 46l176 -19q-26 -94 -99.5 -147.5t-167.5 -53.5h-5l-21 -34q49 -2 81 -32.5t23 -83.5q-8 -48 -52.5 -73.5t-98.5 -25.5q-66 0 -108 21l31 81q10 -7 37 -7q54 0 60 30q2 12 -5.5 21.5t-17.5 9.5q-20 0 -49 -9l51 110q-94 21 -142.5 93.5
t-34.5 181.5q15 121 95.5 190.5t196.5 69.5q103 0 169.5 -57t70.5 -152l-177 -13q0 32 -17 49t-47 17q-44 0 -73 -33.5t-38 -93.5q-6 -49 14 -76.5t56 -27.5z" />
    <glyph glyph-name="egrave" unicode="&#xe8;" horiz-adv-x="603" 
d="M291 600l-103 191h202l39 -191h-138zM333 532q120 0 184 -72t48 -196l-8 -53h-332q-4 -37 13.5 -59.5t54.5 -22.5q49 0 69 41l183 -12q-23 -79 -94 -124t-161 -45q-130 0 -198.5 77.5t-50.5 205.5q17 120 96.5 190t195.5 70zM330 398q-36 0 -58.5 -22t-30.5 -58h147
q9 80 -58 80z" />
    <glyph glyph-name="eacute" unicode="&#xe9;" horiz-adv-x="603" 
d="M436 600h-146l107 191h210zM333 532q120 0 184 -72t48 -196l-8 -53h-332q-4 -37 13.5 -59.5t54.5 -22.5q49 0 69 41l183 -12q-23 -79 -94 -124t-161 -45q-130 0 -198.5 77.5t-50.5 205.5q17 120 96.5 190t195.5 70zM330 398q-36 0 -58.5 -22t-30.5 -58h147q9 80 -58 80z
" />
    <glyph glyph-name="ecircumflex" unicode="&#xea;" horiz-adv-x="603" 
d="M316 600h-156l147 182h177l82 -182h-147l-37 65zM333 532q120 0 184 -72t48 -196l-8 -53h-332q-4 -37 13.5 -59.5t54.5 -22.5q49 0 69 41l183 -12q-23 -79 -94 -124t-161 -45q-130 0 -198.5 77.5t-50.5 205.5q17 120 96.5 190t195.5 70zM330 398q-36 0 -58.5 -22
t-30.5 -58h147q9 80 -58 80z" />
    <glyph glyph-name="edieresis" unicode="&#xeb;" horiz-adv-x="603" 
d="M265 582q-45 0 -71 31.5t-18 75.5q6 36 33.5 60t62.5 24q46 0 72.5 -31.5t18.5 -75.5q-7 -36 -35 -60t-63 -24zM491 773q46 0 73 -31.5t19 -75.5q-8 -36 -36 -60t-63 -24q-45 0 -71 31.5t-18 75.5q6 36 34 60t62 24zM333 532q120 0 184 -72t48 -196l-8 -53h-332
q-4 -37 13.5 -59.5t54.5 -22.5q49 0 69 41l183 -12q-23 -79 -94 -124t-161 -45q-130 0 -198.5 77.5t-50.5 205.5q17 120 96.5 190t195.5 70zM330 398q-36 0 -58.5 -22t-30.5 -58h147q9 80 -58 80z" />
    <glyph glyph-name="igrave" unicode="&#xec;" 
d="M282 600h-138l-103 191h202zM199 0h-182l92 521h183z" />
    <glyph glyph-name="iacute" unicode="&#xed;" 
d="M288 600h-146l107 191h210zM199 0h-182l92 521h183z" />
    <glyph glyph-name="icircumflex" unicode="&#xee;" 
d="M419 600h-147l-37 65l-66 -65h-156l147 182h177zM199 0h-182l92 521h183z" />
    <glyph glyph-name="idieresis" unicode="&#xef;" 
d="M124 773q46 0 72.5 -31.5t18.5 -75.5q-7 -36 -35 -60t-63 -24q-45 0 -71 31.5t-18 75.5q6 36 33.5 60t62.5 24zM343 773q46 0 73 -31.5t19 -75.5q-8 -36 -36 -60t-63 -24q-45 0 -71 31.5t-18 75.5q6 36 34 60t62 24zM199 0h-182l92 521h183z" />
    <glyph glyph-name="eth" unicode="&#xf0;" horiz-adv-x="610" 
d="M575 276l-1 -6l-1 -5q-24 -135 -99 -205.5t-195 -70.5q-116 0 -190 71t-53 189q19 108 96.5 169.5t179.5 61.5q48 0 96 -15q-6 55 -27 93l-64 -57l-73 80l51 46q-34 14 -90 17l11 133q117 0 199 -42l81 73l76 -78l-70 -63q115 -132 73 -391zM287 136q43 0 70.5 29
t35.5 74q7 47 -13 73t-61 26q-42 0 -72.5 -31.5t-34.5 -81.5q-4 -42 16 -65.5t59 -23.5z" />
    <glyph glyph-name="ntilde" unicode="&#xf1;" horiz-adv-x="624" 
d="M337 776q30 0 50 -12t34.5 -24.5t31.5 -12.5q48 0 54 41h99q3 -75 -41 -126t-103 -51q-40 0 -69.5 24.5t-46.5 24.5q-49 0 -54 -44h-99q-3 75 41.5 127.5t102.5 52.5zM397 532q99 0 148 -57t31 -156l-56 -319h-182l50 283q6 39 -8 59t-42 20q-73 0 -89 -85l-50 -277h-182
l92 521h168l-6 -31q42 42 126 42z" />
    <glyph glyph-name="ograve" unicode="&#xf2;" horiz-adv-x="643" 
d="M436 600h-138l-103 191h202zM338 532q129 0 204 -79t60 -204q-12 -117 -95 -188.5t-202 -71.5q-129 0 -204 79t-60 204q12 117 95 188.5t202 71.5zM340 376q-51 0 -83 -34.5t-35 -92.5q-1 -50 20 -77t61 -27q50 0 82 34.5t36 92.5q1 50 -20 77t-61 27z" />
    <glyph glyph-name="oacute" unicode="&#xf3;" horiz-adv-x="643" 
d="M443 600h-146l107 191h210zM338 532q129 0 204 -79t60 -204q-12 -117 -95 -188.5t-202 -71.5q-129 0 -204 79t-60 204q12 117 95 188.5t202 71.5zM340 376q-51 0 -83 -34.5t-35 -92.5q-1 -50 20 -77t61 -27q50 0 82 34.5t36 92.5q1 50 -20 77t-61 27z" />
    <glyph glyph-name="ocircumflex" unicode="&#xf4;" horiz-adv-x="643" 
d="M573 600h-147l-37 65l-66 -65h-156l147 182h177zM338 532q129 0 204 -79t60 -204q-12 -117 -95 -188.5t-202 -71.5q-129 0 -204 79t-60 204q12 117 95 188.5t202 71.5zM340 376q-51 0 -83 -34.5t-35 -92.5q-1 -50 20 -77t61 -27q50 0 82 34.5t36 92.5q1 50 -20 77t-61 27
z" />
    <glyph glyph-name="otilde" unicode="&#xf5;" horiz-adv-x="643" 
d="M324 776q30 0 50 -12t34.5 -24.5t31.5 -12.5q48 0 54 41h99q3 -75 -41 -126t-103 -51q-40 0 -69.5 24.5t-46.5 24.5q-49 0 -54 -44h-99q-3 75 41.5 127.5t102.5 52.5zM338 532q129 0 204 -79t60 -204q-12 -117 -95 -188.5t-202 -71.5q-129 0 -204 79t-60 204
q12 117 95 188.5t202 71.5zM340 376q-51 0 -83 -34.5t-35 -92.5q-1 -50 20 -77t61 -27q50 0 82 34.5t36 92.5q1 50 -20 77t-61 27z" />
    <glyph glyph-name="odieresis" unicode="&#xf6;" horiz-adv-x="643" 
d="M279 773q46 0 72.5 -31.5t18.5 -75.5q-7 -36 -35 -60t-63 -24q-45 0 -71 31.5t-18 75.5q6 36 33.5 60t62.5 24zM498 773q46 0 73 -31.5t19 -75.5q-8 -36 -36 -60t-63 -24q-45 0 -71 31.5t-18 75.5q6 36 34 60t62 24zM338 532q129 0 204 -79t60 -204q-12 -117 -95 -188.5
t-202 -71.5q-129 0 -204 79t-60 204q12 117 95 188.5t202 71.5zM340 376q-51 0 -83 -34.5t-35 -92.5q-1 -50 20 -77t61 -27q50 0 82 34.5t36 92.5q1 50 -20 77t-61 27z" />
    <glyph glyph-name="divide" unicode="&#xf7;" horiz-adv-x="548" 
d="M345 738q49 0 78.5 -35t20.5 -83q-7 -40 -38.5 -67t-70.5 -27q-50 0 -78.5 34.5t-20.5 82.5q7 40 38.5 67.5t70.5 27.5zM523 287h-489l30 171h489zM254 218q49 0 78 -34.5t21 -82.5q-7 -40 -39.5 -67.5t-71.5 -27.5q-49 0 -77 35t-20 83q7 40 38.5 67t70.5 27z" />
    <glyph glyph-name="oslash" unicode="&#xf8;" horiz-adv-x="643" 
d="M612 487l-52 -56q55 -76 42 -182q-12 -117 -95 -188.5t-202 -71.5q-71 0 -128 26l-63 -69l-92 74l62 68q-56 77 -43 184q12 117 95 188.5t202 71.5q74 0 131 -27l51 56zM222 249v-12l127 139h-9q-51 0 -83 -34.5t-35 -92.5zM421 272v8l-124 -135h6q50 0 82 34.5t36 92.5z
" />
    <glyph glyph-name="ugrave" unicode="&#xf9;" horiz-adv-x="609" 
d="M428 600h-138l-103 191h202zM500 0h-165l3 30q-43 -41 -121 -41q-97 0 -142 54t-29 151l58 327h182l-50 -291q-13 -71 43 -71q68 0 80 74l51 288h182z" />
    <glyph glyph-name="uacute" unicode="&#xfa;" horiz-adv-x="609" 
d="M435 600h-146l107 191h210zM500 0h-165l3 30q-43 -41 -121 -41q-97 0 -142 54t-29 151l58 327h182l-50 -291q-13 -71 43 -71q68 0 80 74l51 288h182z" />
    <glyph glyph-name="ucircumflex" unicode="&#xfb;" horiz-adv-x="609" 
d="M565 600h-147l-37 65l-66 -65h-156l147 182h177zM500 0h-165l3 30q-43 -41 -121 -41q-97 0 -142 54t-29 151l58 327h182l-50 -291q-13 -71 43 -71q68 0 80 74l51 288h182z" />
    <glyph glyph-name="udieresis" unicode="&#xfc;" horiz-adv-x="609" 
d="M271 773q46 0 72.5 -31.5t18.5 -75.5q-7 -36 -35 -60t-63 -24q-45 0 -71 31.5t-18 75.5q6 36 33.5 60t62.5 24zM490 773q46 0 73 -31.5t19 -75.5q-8 -36 -36 -60t-63 -24q-45 0 -71 31.5t-18 75.5q6 36 34 60t62 24zM500 0h-165l3 30q-43 -41 -121 -41q-97 0 -142 54
t-29 151l58 327h182l-50 -291q-13 -71 43 -71q68 0 80 74l51 288h182z" />
    <glyph glyph-name="yacute" unicode="&#xfd;" horiz-adv-x="598" 
d="M427 600h-146l107 191h210zM172 -255h-203l195 319l-117 457h201l52 -260l141 260h203z" />
    <glyph glyph-name="thorn" unicode="&#xfe;" horiz-adv-x="662" 
d="M336 777l-54 -278q50 33 125 33q117 0 177 -80t37 -205q-21 -117 -98 -187.5t-185 -70.5q-84 0 -128 40l-56 -284h-182l182 1032h182zM360 376q-46 0 -75.5 -28t-38.5 -77l-3 -16q-7 -51 15 -80.5t67 -29.5t75 28t39 80q9 57 -13.5 90t-65.5 33z" />
    <glyph glyph-name="ydieresis" unicode="&#xff;" horiz-adv-x="598" 
d="M263 773q46 0 72.5 -31.5t18.5 -75.5q-7 -36 -35 -60t-63 -24q-45 0 -71 31.5t-18 75.5q6 36 33.5 60t62.5 24zM482 773q46 0 73 -31.5t19 -75.5q-8 -36 -36 -60t-63 -24q-45 0 -71 31.5t-18 75.5q6 36 34 60t62 24zM172 -255h-203l195 319l-117 457h201l52 -260l141 260
h203z" />
    <glyph glyph-name="Amacron" unicode="&#x100;" horiz-adv-x="824" 
d="M676 803h-322l25 139h322zM774 0h-212l-31 118h-288l-72 -118h-212l458 748h163zM335 268h157l-47 181z" />
    <glyph glyph-name="amacron" unicode="&#x101;" horiz-adv-x="566" 
d="M506 609h-322l25 140h322zM326 532q102 0 156 -57.5t36 -156.5l-56 -318h-169l6 32q-52 -43 -135 -43q-75 0 -116 45t-27 123q7 43 29 72t57 44.5t70.5 22t82.5 8.5l72 2l7 30q4 19 -5.5 32t-29.5 13q-47 0 -57 -49l-178 13q13 75 84.5 131t172.5 56zM315 200l-43 -2
q-65 -3 -71 -44q-3 -32 35 -32q28 0 49 16.5t27 46.5z" />
    <glyph glyph-name="Abreve" unicode="&#x102;" horiz-adv-x="824" 
d="M603 976h145q-16 -95 -75 -140t-146 -45q-97 0 -148.5 48.5t-35.5 136.5h146q-10 -60 46 -60q26 0 44 17.5t24 42.5zM774 0h-212l-31 118h-288l-72 -118h-212l458 748h163zM335 268h157l-47 181z" />
    <glyph glyph-name="abreve" unicode="&#x103;" horiz-adv-x="566" 
d="M431 774h145q-16 -95 -74.5 -140t-146.5 -45q-96 0 -148 49.5t-36 135.5h146q-5 -31 8.5 -45.5t36.5 -14.5q27 0 45 17.5t24 42.5zM326 532q102 0 156 -57.5t36 -156.5l-56 -318h-169l6 32q-52 -43 -135 -43q-75 0 -116 45t-27 123q7 43 29 72t57 44.5t70.5 22t82.5 8.5
l72 2l7 30q4 19 -5.5 32t-29.5 13q-47 0 -57 -49l-178 13q13 75 84.5 131t172.5 56zM315 200l-43 -2q-65 -3 -71 -44q-3 -32 35 -32q28 0 49 16.5t27 46.5z" />
    <glyph glyph-name="Aogonek" unicode="&#x104;" horiz-adv-x="824" 
d="M650 -99q21 0 49 14l14 -92q-42 -17 -89 -17q-66 0 -102.5 29t-27.5 84q8 51 67 85l-30 114h-288l-72 -118h-212l458 748h163l194 -748h-64q-37 -21 -56.5 -38t-23.5 -40q-3 -21 20 -21zM492 268l-47 181l-110 -181h157z" />
    <glyph glyph-name="aogonek" unicode="&#x105;" horiz-adv-x="566" 
d="M326 532q102 0 156 -57.5t36 -156.5l-56 -318h-21q-35 -20 -54.5 -37.5t-23.5 -39.5q-3 -21 20 -21q21 0 49 14l14 -92q-42 -17 -89 -17q-66 0 -102.5 29t-27.5 84q8 51 67 84l5 28q-52 -43 -135 -43q-75 0 -116 45t-27 123q7 43 29 72t57 44.5t70.5 22t82.5 8.5l72 2
l7 30q4 19 -5.5 32t-29.5 13q-47 0 -57 -49l-178 13q13 75 84.5 131t172.5 56zM236 122q28 0 49 16.5t27 46.5l3 15l-43 -2q-65 -3 -71 -44q-3 -32 35 -32z" />
    <glyph glyph-name="Cacute" unicode="&#x106;" horiz-adv-x="837" 
d="M604 795h-168l144 162h252zM494 759q146 0 238.5 -79t95.5 -212l-201 -15q-5 68 -42.5 101.5t-99.5 33.5q-90 0 -151 -62t-75 -163q-14 -98 29 -150.5t120 -52.5q71 0 121.5 36t73.5 104l199 -22q-40 -133 -148 -211t-243 -78q-177 0 -274 107.5t-71 288.5
q24 173 143 273.5t285 100.5z" />
    <glyph glyph-name="cacute" unicode="&#x107;" horiz-adv-x="601" 
d="M432 600h-146l107 191h210zM333 532q103 0 169.5 -57t70.5 -152l-177 -13q0 32 -17 49t-47 17q-44 0 -73 -33.5t-38 -93.5q-6 -49 14 -76.5t56 -27.5q35 0 59 18t33 46l176 -19q-26 -94 -99.5 -147.5t-167.5 -53.5q-126 0 -196.5 76.5t-54.5 206.5q15 121 95.5 190.5
t196.5 69.5z" />
    <glyph glyph-name="Ccircumflex" unicode="&#x108;" horiz-adv-x="837" 
d="M722 795h-147l-37 66l-66 -66h-156l144 170h177zM494 759q146 0 238.5 -79t95.5 -212l-201 -15q-5 68 -42.5 101.5t-99.5 33.5q-90 0 -151 -62t-75 -163q-14 -98 29 -150.5t120 -52.5q71 0 121.5 36t73.5 104l199 -22q-40 -133 -148 -211t-243 -78q-177 0 -274 107.5
t-71 288.5q24 173 143 273.5t285 100.5z" />
    <glyph glyph-name="ccircumflex" unicode="&#x109;" horiz-adv-x="601" 
d="M563 600h-147l-37 65l-66 -65h-156l147 182h177zM333 532q103 0 169.5 -57t70.5 -152l-177 -13q0 32 -17 49t-47 17q-44 0 -73 -33.5t-38 -93.5q-6 -49 14 -76.5t56 -27.5q35 0 59 18t33 46l176 -19q-26 -94 -99.5 -147.5t-167.5 -53.5q-126 0 -196.5 76.5t-54.5 206.5
q15 121 95.5 190.5t196.5 69.5z" />
    <glyph glyph-name="Cdotaccent" unicode="&#x10a;" horiz-adv-x="837" 
d="M543 1003q49 0 78.5 -35t20.5 -83q-7 -40 -38.5 -67t-70.5 -27q-50 0 -78.5 34t-20.5 83q7 40 39 67.5t70 27.5zM494 759q146 0 238.5 -79t95.5 -212l-201 -15q-5 68 -42.5 101.5t-99.5 33.5q-90 0 -151 -62t-75 -163q-14 -98 29 -150.5t120 -52.5q71 0 121.5 36
t73.5 104l199 -22q-40 -133 -148 -211t-243 -78q-177 0 -274 107.5t-71 288.5q24 173 143 273.5t285 100.5z" />
    <glyph glyph-name="cdotaccent" unicode="&#x10b;" horiz-adv-x="601" 
d="M382 789q49 0 77.5 -35t20.5 -83q-7 -40 -39 -67t-71 -27q-50 0 -78.5 34t-19.5 83q7 40 39.5 67.5t70.5 27.5zM333 532q103 0 169.5 -57t70.5 -152l-177 -13q0 32 -17 49t-47 17q-44 0 -73 -33.5t-38 -93.5q-6 -49 14 -76.5t56 -27.5q35 0 59 18t33 46l176 -19
q-26 -94 -99.5 -147.5t-167.5 -53.5q-126 0 -196.5 76.5t-54.5 206.5q15 121 95.5 190.5t196.5 69.5z" />
    <glyph glyph-name="Ccaron" unicode="&#x10c;" horiz-adv-x="837" 
d="M612 795h-177l-86 170h148l37 -66l66 66h156zM494 759q146 0 238.5 -79t95.5 -212l-201 -15q-5 68 -42.5 101.5t-99.5 33.5q-90 0 -151 -62t-75 -163q-14 -98 29 -150.5t120 -52.5q71 0 121.5 36t73.5 104l199 -22q-40 -133 -148 -211t-243 -78q-177 0 -274 107.5
t-71 288.5q24 173 143 273.5t285 100.5z" />
    <glyph glyph-name="ccaron" unicode="&#x10d;" horiz-adv-x="601" 
d="M453 598h-177l-83 182h148l37 -64l66 64h156zM333 532q103 0 169.5 -57t70.5 -152l-177 -13q0 32 -17 49t-47 17q-44 0 -73 -33.5t-38 -93.5q-6 -49 14 -76.5t56 -27.5q35 0 59 18t33 46l176 -19q-26 -94 -99.5 -147.5t-167.5 -53.5q-126 0 -196.5 76.5t-54.5 206.5
q15 121 95.5 190.5t196.5 69.5z" />
    <glyph glyph-name="Dcaron" unicode="&#x10e;" horiz-adv-x="805" 
d="M533 795h-177l-86 170h148l37 -66l66 66h156zM152 748h298q169 0 265 -105t64 -279q-32 -176 -144 -270t-279 -94h-336zM316 582l-74 -416h128q89 0 147.5 54.5t74.5 161.5q28 200 -151 200h-125z" />
    <glyph glyph-name="dcaron" unicode="&#x10f;" horiz-adv-x="853" 
d="M824 791q51 0 75.5 -36t14.5 -91q-29 -162 -214 -246l2 81q60 32 88 83q-39 9 -59 41t-13 73t36.5 68t69.5 27zM507 777h183l-136 -777h-170l3 31q-49 -42 -122 -42q-117 0 -179.5 79t-44.5 204q16 118 89 189t186 71q50 0 86.5 -12.5t49.5 -27.5zM416 251l3 16
q5 50 -18.5 79.5t-67.5 29.5q-45 0 -74 -28t-36 -80q-7 -57 17 -90t67 -33q46 0 74.5 28t34.5 78z" />
    <glyph glyph-name="Dcroat" unicode="&#x110;" horiz-adv-x="812" 
d="M152 748h298q169 0 265 -105t64 -279q-32 -176 -144 -270t-279 -94h-336l53 300h-55l25 147h56zM592 382q28 200 -151 200h-125l-24 -135h99l-25 -147h-100l-24 -134h128q89 0 147.5 54.5t74.5 161.5z" />
    <glyph glyph-name="dcroat" unicode="&#x111;" horiz-adv-x="663" 
d="M720 586h-63l-103 -586h-170l3 31q-49 -42 -122 -42q-117 0 -179.5 79t-44.5 204q16 118 89 189t186 71q50 0 86.5 -12.5t49.5 -27.5l18 94h-72l25 140h74l10 51h183l-9 -51h64zM416 251l3 16q5 50 -18.5 79.5t-67.5 29.5q-45 0 -74 -28t-36 -80q-7 -57 17 -90t67 -33
q46 0 74.5 28t34.5 78z" />
    <glyph glyph-name="Emacron" unicode="&#x112;" horiz-adv-x="608" 
d="M572 803h-322l25 139h322zM612 577h-297l-20 -112h255l-30 -167h-255l-22 -127h299l-31 -171h-491l132 748h490z" />
    <glyph glyph-name="emacron" unicode="&#x113;" horiz-adv-x="603" 
d="M528 609h-322l25 140h322zM333 532q120 0 184 -72t48 -196l-8 -53h-332q-4 -37 13.5 -59.5t54.5 -22.5q49 0 69 41l183 -12q-23 -79 -94 -124t-161 -45q-130 0 -198.5 77.5t-50.5 205.5q17 120 96.5 190t195.5 70zM330 398q-36 0 -58.5 -22t-30.5 -58h147q9 80 -58 80z
" />
    <glyph glyph-name="Ebreve" unicode="&#x114;" horiz-adv-x="608" 
d="M499 976h145q-16 -95 -75 -140t-146 -45q-97 0 -148.5 48.5t-35.5 136.5h146q-10 -60 46 -60q26 0 44 17.5t24 42.5zM612 577h-297l-20 -112h255l-30 -167h-255l-22 -127h299l-31 -171h-491l132 748h490z" />
    <glyph glyph-name="ebreve" unicode="&#x115;" horiz-adv-x="603" 
d="M377 589q-96 0 -148 49.5t-36 135.5h146q-5 -31 8.5 -45.5t36.5 -14.5q27 0 45 17.5t24 42.5h145q-16 -95 -74.5 -140t-146.5 -45zM333 532q120 0 184 -72t48 -196l-8 -53h-332q-4 -37 13.5 -59.5t54.5 -22.5q49 0 69 41l183 -12q-23 -79 -94 -124t-161 -45
q-130 0 -198.5 77.5t-50.5 205.5q17 120 96.5 190t195.5 70zM330 398q-36 0 -58.5 -22t-30.5 -58h147q9 80 -58 80z" />
    <glyph glyph-name="Edotaccent" unicode="&#x116;" horiz-adv-x="608" 
d="M433 1003q49 0 78.5 -35t20.5 -83q-7 -40 -38.5 -67t-70.5 -27q-50 0 -78.5 34t-20.5 83q7 40 39 67.5t70 27.5zM612 577h-297l-20 -112h255l-30 -167h-255l-22 -127h299l-31 -171h-491l132 748h490z" />
    <glyph glyph-name="edotaccent" unicode="&#x117;" horiz-adv-x="603" 
d="M374 577q-50 0 -78.5 34t-19.5 83q7 40 39.5 67.5t70.5 27.5q49 0 77.5 -35t20.5 -83q-7 -40 -39 -67t-71 -27zM333 532q120 0 184 -72t48 -196l-8 -53h-332q-4 -37 13.5 -59.5t54.5 -22.5q49 0 69 41l183 -12q-23 -79 -94 -124t-161 -45q-130 0 -198.5 77.5t-50.5 205.5
q17 120 96.5 190t195.5 70zM330 398q-36 0 -58.5 -22t-30.5 -58h147q9 80 -58 80z" />
    <glyph glyph-name="Eogonek" unicode="&#x118;" horiz-adv-x="608" 
d="M315 577l-20 -112h255l-30 -167h-255l-22 -127h299l-30 -164l5 -6q-38 -21 -58 -38.5t-24 -40.5q-3 -21 20 -21q21 0 49 14l14 -92q-42 -17 -89 -17q-66 0 -102.5 29t-27.5 84q8 49 61 81h-340l132 748h490l-30 -171h-297z" />
    <glyph glyph-name="eogonek" unicode="&#x119;" horiz-adv-x="603" 
d="M333 532q120 0 184 -72t48 -196l-8 -53h-331q-4 -37 13 -59.5t54 -22.5q49 0 69 41l183 -12q-19 -67 -73.5 -110t-127.5 -55q-62 -36 -69 -71q-3 -21 20 -21q21 0 49 14l14 -92q-42 -17 -89 -17q-66 0 -102.5 29t-27.5 84q10 49 62 81q-88 25 -131 96.5t-29 175.5
q17 120 96.5 190t195.5 70zM330 398q-36 0 -58.5 -22t-30.5 -58h147q9 80 -58 80z" />
    <glyph glyph-name="Ecaron" unicode="&#x11a;" horiz-adv-x="608" 
d="M501 795h-177l-86 170h148l37 -66l66 66h156zM612 577h-297l-20 -112h255l-30 -167h-255l-22 -127h299l-31 -171h-491l132 748h490z" />
    <glyph glyph-name="ecaron" unicode="&#x11b;" horiz-adv-x="603" 
d="M279 598l-83 182h148l37 -64l66 64h156l-147 -182h-177zM333 532q120 0 184 -72t48 -196l-8 -53h-332q-4 -37 13.5 -59.5t54.5 -22.5q49 0 69 41l183 -12q-23 -79 -94 -124t-161 -45q-130 0 -198.5 77.5t-50.5 205.5q17 120 96.5 190t195.5 70zM330 398q-36 0 -58.5 -22
t-30.5 -58h147q9 80 -58 80z" />
    <glyph glyph-name="Gcircumflex" unicode="&#x11c;" horiz-adv-x="843" 
d="M472 795h-156l144 170h177l85 -170h-147l-37 66zM458 426h366l-10 -68q-24 -167 -132.5 -268t-270.5 -101q-177 0 -274 107.5t-71 288.5q24 173 143 273.5t286 100.5q136 0 224 -68.5t105 -189.5l-199 -22q-19 109 -136 109q-95 0 -154.5 -56.5t-75.5 -168.5
q-15 -103 26 -153t127 -50q114 0 167 95h-145z" />
    <glyph glyph-name="gcircumflex" unicode="&#x11d;" horiz-adv-x="650" 
d="M580 600h-147l-37 65l-66 -65h-156l147 182h177zM316 532q49 0 87.5 -14.5t56.5 -34.5l13 38h172l-95 -540q-20 -113 -102.5 -179.5t-204.5 -66.5q-128 0 -189.5 56t-57.5 148l178 5q-2 -28 16 -41.5t55 -13.5q49 0 81.5 24.5t41.5 66.5l8 42q-37 -33 -111 -33
q-117 0 -179.5 79t-44.5 204q16 118 89 189t186 71zM333 376q-45 0 -74 -28t-36 -80q-7 -57 17 -90t67 -33q45 0 73.5 28t35.5 78l2 16q6 50 -17.5 79.5t-67.5 29.5z" />
    <glyph glyph-name="Gbreve" unicode="&#x11e;" horiz-adv-x="843" 
d="M534 791q-97 0 -148.5 48.5t-35.5 136.5h146q-10 -60 46 -60q26 0 44 17.5t24 42.5h145q-16 -95 -75 -140t-146 -45zM458 426h366l-10 -68q-24 -167 -132.5 -268t-270.5 -101q-177 0 -274 107.5t-71 288.5q24 173 143 273.5t286 100.5q136 0 224 -68.5t105 -189.5
l-199 -22q-19 109 -136 109q-95 0 -154.5 -56.5t-75.5 -168.5q-15 -103 26 -153t127 -50q114 0 167 95h-145z" />
    <glyph glyph-name="gbreve" unicode="&#x11f;" horiz-adv-x="650" 
d="M467 774h145q-16 -95 -74.5 -140t-146.5 -45q-96 0 -148 49.5t-36 135.5h146q-5 -31 8.5 -45.5t36.5 -14.5q27 0 45 17.5t24 42.5zM316 532q49 0 87.5 -14.5t56.5 -34.5l13 38h172l-95 -540q-20 -113 -102.5 -179.5t-204.5 -66.5q-128 0 -189.5 56t-57.5 148l178 5
q-2 -28 16 -41.5t55 -13.5q49 0 81.5 24.5t41.5 66.5l8 42q-37 -33 -111 -33q-117 0 -179.5 79t-44.5 204q16 118 89 189t186 71zM333 376q-45 0 -74 -28t-36 -80q-7 -57 17 -90t67 -33q45 0 73.5 28t35.5 78l2 16q6 50 -17.5 79.5t-67.5 29.5z" />
    <glyph glyph-name="Gdotaccent" unicode="&#x120;" horiz-adv-x="843" 
d="M534 791q-50 0 -78.5 34t-20.5 83q7 40 39 67.5t70 27.5q49 0 78.5 -35t20.5 -83q-7 -40 -38.5 -67t-70.5 -27zM458 426h366l-10 -68q-24 -167 -132.5 -268t-270.5 -101q-177 0 -274 107.5t-71 288.5q24 173 143 273.5t286 100.5q136 0 224 -68.5t105 -189.5l-199 -22
q-19 109 -136 109q-95 0 -154.5 -56.5t-75.5 -168.5q-15 -103 26 -153t127 -50q114 0 167 95h-145z" />
    <glyph glyph-name="gdotaccent" unicode="&#x121;" horiz-adv-x="650" 
d="M400 789q49 0 77.5 -35t20.5 -83q-7 -40 -39 -67t-71 -27q-50 0 -78.5 34t-19.5 83q7 40 39.5 67.5t70.5 27.5zM316 532q49 0 87.5 -14.5t56.5 -34.5l13 38h172l-95 -540q-20 -113 -102.5 -179.5t-204.5 -66.5q-128 0 -189.5 56t-57.5 148l178 5q-2 -28 16 -41.5
t55 -13.5q49 0 81.5 24.5t41.5 66.5l8 42q-37 -33 -111 -33q-117 0 -179.5 79t-44.5 204q16 118 89 189t186 71zM333 376q-45 0 -74 -28t-36 -80q-7 -57 17 -90t67 -33q45 0 73.5 28t35.5 78l2 16q6 50 -17.5 79.5t-67.5 29.5z" />
    <glyph glyph-name="Gcommaaccent" unicode="&#x122;" horiz-adv-x="843" 
d="M458 426h366l-10 -68q-24 -167 -132.5 -268t-270.5 -101q-177 0 -274 107.5t-71 288.5q24 173 143 273.5t286 100.5q136 0 224 -68.5t105 -189.5l-199 -22q-19 109 -136 109q-95 0 -154.5 -56.5t-75.5 -168.5q-15 -103 26 -153t127 -50q114 0 167 95h-145zM355 -49
q51 0 75.5 -36t14.5 -91q-29 -162 -214 -246l2 81q60 32 88 83q-39 9 -59 41t-13 73t36.5 68t69.5 27z" />
    <glyph glyph-name="gcommaaccent" unicode="&#x123;" horiz-adv-x="650" 
d="M538 811q-29 -162 -214 -246l2 81q60 32 88 83q-39 9 -59 41t-13 73t36.5 68t69.5 27q51 0 75.5 -36t14.5 -91zM645 521l-95 -540q-20 -113 -102.5 -179.5t-204.5 -66.5q-128 0 -189.5 56t-57.5 148l178 5q-2 -28 16 -41.5t55 -13.5q49 0 81.5 24.5t41.5 66.5l8 42
q-37 -33 -111 -33q-117 0 -179.5 79t-44.5 204q16 118 89 189t186 71q49 0 87.5 -14.5t56.5 -34.5l13 38h172zM416 251l2 16q6 50 -17.5 79.5t-67.5 29.5q-45 0 -74 -28t-36 -80q-7 -57 17 -90t67 -33q45 0 73.5 28t35.5 78z" />
    <glyph glyph-name="Hcircumflex" unicode="&#x124;" horiz-adv-x="768" 
d="M680 795h-147l-37 66l-66 -66h-156l144 170h177zM656 0h-193l53 296h-251l-52 -296h-193l132 748h193l-50 -281h251l49 281h193z" />
    <glyph glyph-name="hcircumflex" unicode="&#x125;" horiz-adv-x="625" 
d="M454 803h-148l-36 67l-66 -67h-156l144 171h177zM336 777l-54 -281q47 36 115 36q99 0 148 -57t31 -156l-56 -319h-182l50 283q6 39 -8 59t-42 20q-73 0 -89 -85l-50 -277h-182l137 777h182z" />
    <glyph glyph-name="Hbar" unicode="&#x126;" horiz-adv-x="789" 
d="M826 532h-67l-94 -532h-192l52 296h-251l-52 -296h-193l94 532h-65l26 146h65l12 70h193l-12 -70h251l12 70h192l-12 -70h67zM567 532h-251l-11 -65h250z" />
    <glyph glyph-name="hbar" unicode="&#x127;" horiz-adv-x="625" 
d="M397 532q99 0 148 -57t31 -156l-56 -319h-182l50 283q6 39 -8 59t-42 20q-73 0 -89 -85l-50 -277h-182l103 586h-60l25 140h60l9 51h182l-10 -51h82l-25 -140h-84l-17 -90q47 36 115 36z" />
    <glyph glyph-name="Itilde" unicode="&#x128;" horiz-adv-x="325" 
d="M215 974q30 0 50 -12t34.5 -24.5t31.5 -12.5q48 0 54 41h99q3 -75 -41.5 -126.5t-102.5 -51.5q-40 0 -69.5 25t-46.5 25q-49 0 -54 -44h-99q-3 75 41.5 127.5t102.5 52.5zM213 0h-193l132 748h193z" />
    <glyph glyph-name="itilde" unicode="&#x129;" 
d="M170 776q30 0 50 -12t34.5 -24.5t31.5 -12.5q48 0 54 41h99q3 -75 -41 -126t-103 -51q-40 0 -69.5 24.5t-46.5 24.5q-49 0 -54 -44h-99q-3 75 41.5 127.5t102.5 52.5zM199 0h-182l92 521h183z" />
    <glyph glyph-name="Imacron" unicode="&#x12a;" horiz-adv-x="325" 
d="M425 803h-322l25 139h322zM213 0h-193l132 748h193z" />
    <glyph glyph-name="imacron" unicode="&#x12b;" 
d="M381 609h-322l25 140h322zM199 0h-182l92 521h183z" />
    <glyph glyph-name="Ibreve" unicode="&#x12c;" horiz-adv-x="325" 
d="M352 976h145q-16 -95 -75 -140t-146 -45q-97 0 -148.5 48.5t-35.5 136.5h146q-10 -60 46 -60q26 0 44 17.5t24 42.5zM213 0h-193l132 748h193z" />
    <glyph glyph-name="ibreve" unicode="&#x12d;" 
d="M306 774h145q-16 -95 -74.5 -140t-146.5 -45q-96 0 -148 49.5t-36 135.5h146q-5 -31 8.5 -45.5t36.5 -14.5q27 0 45 17.5t24 42.5zM199 0h-182l92 521h183z" />
    <glyph glyph-name="Iogonek" unicode="&#x12e;" horiz-adv-x="325" 
d="M213 0h-72q-35 -20 -54.5 -37.5t-23.5 -39.5q-3 -21 20 -21q21 0 49 14l14 -92q-42 -17 -89 -17q-66 0 -102.5 29t-27.5 84q11 63 96 99l129 729h193z" />
    <glyph glyph-name="iogonek" unicode="&#x12f;" 
d="M239 789q49 0 77.5 -35t20.5 -83q-7 -40 -39 -67t-71 -27q-50 0 -78.5 34t-19.5 83q7 40 39.5 67.5t70.5 27.5zM109 521h183l-93 -521h-41q-35 -20 -54.5 -37.5t-23.5 -39.5q-3 -21 20 -21q21 0 49 14l14 -92q-42 -17 -89 -17q-66 0 -102.5 29t-27.5 84q9 54 75 89z" />
    <glyph glyph-name="Idotaccent" unicode="&#x130;" horiz-adv-x="325" 
d="M286 1003q49 0 78.5 -35t20.5 -83q-7 -40 -38.5 -67t-70.5 -27q-50 0 -78.5 34t-20.5 83q7 40 39 67.5t70 27.5zM213 0h-193l132 748h193z" />
    <glyph glyph-name="dotlessi" unicode="&#x131;" 
d="M199 0h-182l92 521h183z" />
    <glyph glyph-name="Jcircumflex" unicode="&#x134;" horiz-adv-x="635" 
d="M783 795h-147l-37 66l-66 -66h-156l144 170h177zM660 748l-82 -470q-25 -138 -109 -213.5t-211 -75.5q-126 0 -191 75.5t-51 201.5l195 8q-6 -59 7.5 -86.5t52.5 -27.5q43 0 73 32t41 88l82 468h193z" />
    <glyph glyph-name="jcircumflex" unicode="&#x135;" 
d="M413 600h-147l-37 65l-66 -65h-156l147 182h177zM291 521l-99 -562q-21 -116 -85.5 -170.5t-156.5 -54.5q-99 0 -158 44l90 142q24 -26 49 -26q32 0 53 18t26 49l99 560h182z" />
    <glyph glyph-name="Kcommaaccent" unicode="&#x136;" horiz-adv-x="749" 
d="M513 444l177 -444h-206l-117 297l-121 -120l-33 -177h-193l132 748h193l-51 -280l263 280h251zM312 -44q51 0 75.5 -36t14.5 -91q-29 -162 -214 -246l2 81q60 32 88 83q-39 9 -59 41t-13 73t36.5 68t69.5 27z" />
    <glyph glyph-name="kcommaaccent" unicode="&#x137;" horiz-adv-x="609" 
d="M416 300l134 -300h-196l-74 170l-58 -52l-23 -118h-182l137 777h182l-75 -416l160 160h224zM240 -44q51 0 75.5 -36t14.5 -91q-29 -162 -214 -246l2 81q60 32 88 83q-39 9 -59 41t-13 73t36.5 68t69.5 27z" />
    <glyph glyph-name="Lacute" unicode="&#x139;" horiz-adv-x="591" 
d="M348 795h-168l144 162h252zM243 171h297l-30 -171h-490l132 748h193z" />
    <glyph glyph-name="lacute" unicode="&#x13a;" 
d="M343 814h-168l144 162h252zM199 0h-182l137 777h182z" />
    <glyph glyph-name="Lcommaaccent" unicode="&#x13b;" horiz-adv-x="591" 
d="M540 171l-30 -171h-490l132 748h193l-102 -577h297zM248 -44q51 0 75.5 -36t14.5 -91q-29 -162 -214 -246l2 81q60 32 88 83q-39 9 -59 41t-13 73t36.5 68t69.5 27z" />
    <glyph glyph-name="lcommaaccent" unicode="&#x13c;" 
d="M336 777l-137 -777h-182l137 777h182zM85 -44q51 0 75.5 -36t14.5 -91q-29 -162 -214 -246l2 81q60 32 88 83q-39 9 -59 41t-13 73t36.5 68t69.5 27z" />
    <glyph glyph-name="Lcaron" unicode="&#x13d;" horiz-adv-x="591" 
d="M605 791q51 0 75.5 -36t14.5 -91q-29 -162 -214 -246l2 81q60 32 88 83q-39 9 -59 41t-13 73t36.5 68t69.5 27zM243 171h297l-30 -171h-490l132 748h193z" />
    <glyph glyph-name="lcaron" unicode="&#x13e;" horiz-adv-x="500" 
d="M466 791q51 0 75.5 -36t14.5 -91q-29 -162 -214 -246l2 81q60 32 88 83q-39 9 -59 41t-13 73t36.5 68t69.5 27zM154 777h182l-137 -777h-182z" />
    <glyph glyph-name="Ldot" unicode="&#x13f;" horiz-adv-x="591" 
d="M243 171h297l-30 -171h-490l132 748h193zM525 537q50 0 79 -35t21 -83q-7 -40 -39 -67t-71 -27q-49 0 -78 34.5t-20 82.5q7 40 38.5 67.5t69.5 27.5z" />
    <glyph glyph-name="ldot" unicode="&#x140;" horiz-adv-x="517" 
d="M199 0h-182l137 777h182zM408 447q50 0 79 -35t21 -83q-7 -40 -39 -67t-71 -27q-49 0 -78 34.5t-20 82.5q7 40 38.5 67.5t69.5 27.5z" />
    <glyph glyph-name="Lslash" unicode="&#x141;" horiz-adv-x="601" 
d="M540 171l-30 -171h-490l50 281l-52 -7l5 146l73 9l56 319h193l-52 -294l84 11l-5 -146l-105 -13l-24 -135h297z" />
    <glyph glyph-name="lslash" unicode="&#x142;" horiz-adv-x="334" 
d="M256 251l-44 -251h-183l37 210l-63 -13l-9 144l99 21l73 415h183l-66 -376l65 14l9 -143z" />
    <glyph glyph-name="Nacute" unicode="&#x143;" horiz-adv-x="773" 
d="M566 795h-168l144 162h252zM661 0h-165l-214 392l-69 -392h-193l132 748h164l214 -394l70 394h193z" />
    <glyph glyph-name="nacute" unicode="&#x144;" horiz-adv-x="624" 
d="M455 600h-146l107 191h210zM397 532q99 0 148 -57t31 -156l-56 -319h-182l50 283q6 39 -8 59t-42 20q-73 0 -89 -85l-50 -277h-182l92 521h168l-6 -31q42 42 126 42z" />
    <glyph glyph-name="Ncommaaccent" unicode="&#x145;" horiz-adv-x="773" 
d="M793 748l-132 -748h-165l-214 392l-69 -392h-193l132 748h164l214 -394l70 394h193zM346 -44q51 0 75.5 -36t14.5 -91q-29 -162 -214 -246l2 81q60 32 88 83q-39 9 -59 41t-13 73t36.5 68t69.5 27z" />
    <glyph glyph-name="ncommaaccent" unicode="&#x146;" horiz-adv-x="624" 
d="M397 532q99 0 148 -57t31 -156l-56 -319h-182l50 283q6 39 -8 59t-42 20q-73 0 -89 -85l-50 -277h-182l92 521h168l-6 -31q42 42 126 42zM244 -44q51 0 75.5 -36t14.5 -91q-29 -162 -214 -246l2 81q60 32 88 83q-39 9 -59 41t-13 73t36.5 68t69.5 27z" />
    <glyph glyph-name="Ncaron" unicode="&#x147;" horiz-adv-x="773" 
d="M574 795h-177l-86 170h148l37 -66l66 66h156zM661 0h-165l-214 392l-69 -392h-193l132 748h164l214 -394l70 394h193z" />
    <glyph glyph-name="ncaron" unicode="&#x148;" horiz-adv-x="624" 
d="M475 598h-177l-83 182h148l37 -64l66 64h156zM397 532q99 0 148 -57t31 -156l-56 -319h-182l50 283q6 39 -8 59t-42 20q-73 0 -89 -85l-50 -277h-182l92 521h168l-6 -31q42 42 126 42z" />
    <glyph glyph-name="Eng" unicode="&#x14a;" horiz-adv-x="773" 
d="M750 504l-90 -525q-17 -101 -104 -167.5t-215 -66.5l17 171q42 0 74.5 31.5t45.5 86.5l-196 358l-69 -392h-193l132 748h164l214 -394l70 394h193z" />
    <glyph glyph-name="eng" unicode="&#x14b;" horiz-adv-x="624" 
d="M397 532q99 0 148 -57t31 -156l-33 -186l-29 -173q-19 -103 -96 -163t-191 -60l26 158q25 0 50 22.5t29 50.5l36 201l20 114q6 39 -8 59t-42 20q-73 0 -89 -85l-50 -277h-182l92 521h168l-6 -31q42 42 126 42z" />
    <glyph glyph-name="Omacron" unicode="&#x14c;" horiz-adv-x="880" 
d="M698 803h-322l25 139h322zM486 759q180 0 283.5 -109.5t84.5 -286.5q-18 -170 -134 -272t-285 -102q-180 0 -284 109.5t-85 286.5q18 170 134 272t286 102zM483 588q-96 0 -156 -61t-67 -164q-6 -95 42 -149t135 -54q96 0 156 61t67 164q6 95 -42 149t-135 54z" />
    <glyph glyph-name="omacron" unicode="&#x14d;" horiz-adv-x="643" 
d="M535 609h-322l25 140h322zM338 532q129 0 204 -79t60 -204q-12 -117 -95 -188.5t-202 -71.5q-129 0 -204 79t-60 204q12 117 95 188.5t202 71.5zM340 376q-51 0 -83 -34.5t-35 -92.5q-1 -50 20 -77t61 -27q50 0 82 34.5t36 92.5q1 50 -20 77t-61 27z" />
    <glyph glyph-name="Obreve" unicode="&#x14e;" horiz-adv-x="880" 
d="M625 976h145q-16 -95 -75 -140t-146 -45q-97 0 -148.5 48.5t-35.5 136.5h146q-10 -60 46 -60q26 0 44 17.5t24 42.5zM486 759q180 0 283.5 -109.5t84.5 -286.5q-18 -170 -134 -272t-285 -102q-180 0 -284 109.5t-85 286.5q18 170 134 272t286 102zM483 588
q-96 0 -156 -61t-67 -164q-6 -95 42 -149t135 -54q96 0 156 61t67 164q6 95 -42 149t-135 54z" />
    <glyph glyph-name="obreve" unicode="&#x14f;" horiz-adv-x="643" 
d="M460 774h145q-16 -95 -74.5 -140t-146.5 -45q-96 0 -148 49.5t-36 135.5h146q-5 -31 8.5 -45.5t36.5 -14.5q27 0 45 17.5t24 42.5zM338 532q129 0 204 -79t60 -204q-12 -117 -95 -188.5t-202 -71.5q-129 0 -204 79t-60 204q12 117 95 188.5t202 71.5zM340 376
q-51 0 -83 -34.5t-35 -92.5q-1 -50 20 -77t61 -27q50 0 82 34.5t36 92.5q1 50 -20 77t-61 27z" />
    <glyph glyph-name="Ohungarumlaut" unicode="&#x150;" horiz-adv-x="880" 
d="M492 798h-146l95 182h175zM714 798h-146l95 182h175zM486 759q180 0 283.5 -109.5t84.5 -286.5q-18 -170 -134 -272t-285 -102q-180 0 -284 109.5t-85 286.5q18 170 134 272t286 102zM483 588q-96 0 -156 -61t-67 -164q-6 -95 42 -149t135 -54q96 0 156 61t67 164
q6 95 -42 149t-135 54z" />
    <glyph glyph-name="ohungarumlaut" unicode="&#x151;" horiz-adv-x="643" 
d="M332 600h-145l96 193h176zM554 600h-145l96 193h176zM338 532q129 0 204 -79t60 -204q-12 -117 -95 -188.5t-202 -71.5q-129 0 -204 79t-60 204q12 117 95 188.5t202 71.5zM340 376q-51 0 -83 -34.5t-35 -92.5q-1 -50 20 -77t61 -27q50 0 82 34.5t36 92.5q1 50 -20 77
t-61 27z" />
    <glyph glyph-name="OE" unicode="&#x152;" horiz-adv-x="1181" 
d="M888 577l-20 -112h255l-30 -167h-250q-1 -4 -3.5 -12l-4.5 -14.5l-4 -12.5l-15 -88h298l-30 -171h-491l3 17q-76 -28 -161 -28q-180 0 -284 109.5t-85 286.5q18 170 134 272t286 102q133 0 230 -64l9 53h490l-30 -171h-297zM437 160q81 0 137 43.5t76 120.5l9 51l1 10
q6 95 -42 149t-135 54q-96 0 -156 -61t-67 -164q-6 -95 42 -149t135 -54z" />
    <glyph glyph-name="oe" unicode="&#x153;" horiz-adv-x="984" 
d="M714 532q120 0 184 -72t48 -196l-8 -53h-332q-4 -37 13.5 -59.5t54.5 -22.5q48 0 68 41l184 -12q-23 -79 -94 -124t-161 -45q-112 0 -180 59q-78 -59 -186 -59q-129 0 -204 79t-60 204q12 117 95 188.5t202 71.5q115 0 188 -64q76 64 188 64zM711 398q-36 0 -58.5 -22
t-30.5 -58h147q9 80 -58 80zM303 145q50 0 82 34.5t36 92.5q1 50 -20 77t-61 27q-51 0 -83 -34.5t-35 -92.5q-1 -50 20 -77t61 -27z" />
    <glyph glyph-name="Racute" unicode="&#x154;" horiz-adv-x="720" 
d="M498 795h-168l144 162h252zM152 748h312q116 0 181.5 -72t48.5 -191q-29 -159 -152 -211l98 -274h-202l-88 250h-93l-44 -250h-193zM287 421h122q36 0 59.5 20t30.5 59q5 33 -11 55t-51 22h-122z" />
    <glyph glyph-name="racute" unicode="&#x155;" horiz-adv-x="402" 
d="M371 600h-146l107 191h210zM421 526l-29 -176q-59 0 -100.5 -31.5t-49.5 -81.5l-43 -237h-182l92 521h171l-6 -40q48 45 147 45z" />
    <glyph glyph-name="Rcommaaccent" unicode="&#x156;" horiz-adv-x="720" 
d="M694 485q-29 -159 -152 -211l98 -274h-202l-88 250h-93l-44 -250h-193l132 748h312q116 0 181.5 -72t48.5 -191zM287 421h122q36 0 59.5 20t30.5 59q5 33 -11 55t-51 22h-122zM293 -44q51 0 75.5 -36t14.5 -91q-29 -162 -214 -246l2 81q60 32 88 83q-39 9 -59 41t-13 73
t36.5 68t69.5 27z" />
    <glyph glyph-name="rcommaaccent" unicode="&#x157;" horiz-adv-x="402" 
d="M280 521l-6 -40q48 45 147 45l-29 -176q-59 0 -100.5 -31.5t-49.5 -81.5l-43 -237h-182l92 521h171zM84 -44q51 0 75.5 -36t14.5 -91q-29 -162 -214 -246l2 81q60 32 88 83q-39 9 -59 41t-13 73t36.5 68t69.5 27z" />
    <glyph glyph-name="Rcaron" unicode="&#x158;" horiz-adv-x="720" 
d="M329 795l-86 170h148l37 -66l66 66h156l-144 -170h-177zM694 485q-29 -159 -152 -211l98 -274h-202l-88 250h-93l-44 -250h-193l132 748h312q116 0 181.5 -72t48.5 -191zM287 421h122q36 0 59.5 20t30.5 59q5 33 -11 55t-51 22h-122z" />
    <glyph glyph-name="rcaron" unicode="&#x159;" horiz-adv-x="402" 
d="M391 598h-177l-83 182h148l37 -64l66 64h156zM421 526l-29 -176q-59 0 -100.5 -31.5t-49.5 -81.5l-43 -237h-182l92 521h171l-6 -40q48 45 147 45z" />
    <glyph glyph-name="Sacute" unicode="&#x15a;" horiz-adv-x="668" 
d="M497 795h-168l144 162h252zM390 759q135 0 208.5 -65.5t58.5 -173.5l-197 -8q5 38 -12.5 59t-55.5 21q-42 0 -68 -19t-31 -51q-4 -27 16.5 -42.5t86.5 -32.5q125 -32 184.5 -84t46.5 -149q-11 -77 -56 -129t-107 -74t-138 -22q-145 0 -224 66.5t-61 183.5l197 7
q-6 -42 17.5 -66t69.5 -24q98 0 105 65q4 27 -21 46t-82 33q-59 15 -98 30t-75 40.5t-50.5 65.5t-6.5 95q14 99 90.5 163.5t202.5 64.5z" />
    <glyph glyph-name="sacute" unicode="&#x15b;" horiz-adv-x="510" 
d="M369 600h-146l107 191h210zM277 532q106 0 160 -49.5t51 -123.5l-181 -4q4 22 -6 35.5t-30 13.5q-37 0 -42 -33q-2 -18 15.5 -28t58.5 -20q86 -21 128.5 -58t33.5 -107q-11 -78 -72 -123.5t-163 -45.5q-111 0 -166.5 45t-50.5 125l180 6q-10 -48 43 -48q42 0 47 32
q4 33 -60 50q-51 14 -80 25t-56 30t-36 48t-3 71q10 75 71.5 117t157.5 42z" />
    <glyph glyph-name="Scircumflex" unicode="&#x15c;" horiz-adv-x="668" 
d="M615 795h-147l-37 66l-66 -66h-156l144 170h177zM390 759q135 0 208.5 -65.5t58.5 -173.5l-197 -8q5 38 -12.5 59t-55.5 21q-42 0 -68 -19t-31 -51q-4 -27 16.5 -42.5t86.5 -32.5q125 -32 184.5 -84t46.5 -149q-11 -77 -56 -129t-107 -74t-138 -22q-145 0 -224 66.5
t-61 183.5l197 7q-6 -42 17.5 -66t69.5 -24q98 0 105 65q4 27 -21 46t-82 33q-59 15 -98 30t-75 40.5t-50.5 65.5t-6.5 95q14 99 90.5 163.5t202.5 64.5z" />
    <glyph glyph-name="scircumflex" unicode="&#x15d;" horiz-adv-x="510" 
d="M500 600h-147l-37 65l-66 -65h-156l147 182h177zM277 532q106 0 160 -49.5t51 -123.5l-181 -4q4 22 -6 35.5t-30 13.5q-37 0 -42 -33q-2 -18 15.5 -28t58.5 -20q86 -21 128.5 -58t33.5 -107q-11 -78 -72 -123.5t-163 -45.5q-111 0 -166.5 45t-50.5 125l180 6
q-10 -48 43 -48q42 0 47 32q4 33 -60 50q-51 14 -80 25t-56 30t-36 48t-3 71q10 75 71.5 117t157.5 42z" />
    <glyph glyph-name="Scedilla" unicode="&#x15e;" horiz-adv-x="668" 
d="M657 520l-197 -8q5 38 -12.5 59t-55.5 21q-42 0 -68 -19t-31 -51q-4 -27 16.5 -42.5t86.5 -32.5q125 -32 184.5 -84t46.5 -149q-16 -111 -95.5 -166.5t-193.5 -58.5l-22 -35q49 -2 81 -32.5t23 -83.5q-8 -48 -52.5 -73.5t-98.5 -25.5q-66 0 -108 21l31 81q10 -7 37 -7
q54 0 60 30q2 12 -5.5 21.5t-17.5 9.5q-20 0 -49 -9l50 106q-118 14 -179.5 78.5t-46.5 168.5l197 7q-6 -42 17.5 -66t69.5 -24q98 0 105 65q4 27 -21 46t-82 33q-59 15 -98 30t-75 40.5t-50.5 65.5t-6.5 95q14 99 90.5 163.5t202.5 64.5q135 0 208.5 -65.5t58.5 -173.5z
" />
    <glyph glyph-name="scedilla" unicode="&#x15f;" horiz-adv-x="510" 
d="M488 359l-181 -4q4 22 -6 35.5t-30 13.5q-37 0 -42 -33q-2 -18 15.5 -28t58.5 -20q86 -21 128.5 -58t33.5 -107q-11 -75 -67.5 -120t-150.5 -49l-22 -35q49 -2 81 -32.5t23 -83.5q-8 -48 -52.5 -73.5t-98.5 -25.5q-66 0 -108 21l31 81q10 -7 37 -7q54 0 60 30
q2 12 -5.5 21.5t-17.5 9.5q-20 0 -49 -9l50 106q-85 10 -126.5 53.5t-36.5 113.5l180 6q-10 -48 43 -48q42 0 47 32q4 33 -60 50q-51 14 -80 25t-56 30t-36 48t-3 71q10 75 71.5 117t157.5 42q106 0 160 -49.5t51 -123.5z" />
    <glyph glyph-name="Scaron" unicode="&#x160;" horiz-adv-x="668" 
d="M505 795h-177l-86 170h148l37 -66l66 66h156zM390 759q135 0 208.5 -65.5t58.5 -173.5l-197 -8q5 38 -12.5 59t-55.5 21q-42 0 -68 -19t-31 -51q-4 -27 16.5 -42.5t86.5 -32.5q125 -32 184.5 -84t46.5 -149q-11 -77 -56 -129t-107 -74t-138 -22q-145 0 -224 66.5
t-61 183.5l197 7q-6 -42 17.5 -66t69.5 -24q98 0 105 65q4 27 -21 46t-82 33q-59 15 -98 30t-75 40.5t-50.5 65.5t-6.5 95q14 99 90.5 163.5t202.5 64.5z" />
    <glyph glyph-name="scaron" unicode="&#x161;" horiz-adv-x="510" 
d="M390 598h-177l-83 182h148l37 -64l66 64h156zM277 532q106 0 160 -49.5t51 -123.5l-181 -4q4 22 -6 35.5t-30 13.5q-37 0 -42 -33q-2 -18 15.5 -28t58.5 -20q86 -21 128.5 -58t33.5 -107q-11 -78 -72 -123.5t-163 -45.5q-111 0 -166.5 45t-50.5 125l180 6q-10 -48 43 -48
q42 0 47 32q4 33 -60 50q-51 14 -80 25t-56 30t-36 48t-3 71q10 75 71.5 117t157.5 42z" />
    <glyph glyph-name="Tcaron" unicode="&#x164;" horiz-adv-x="700" 
d="M540 795h-177l-86 170h148l37 -66l66 66h156zM736 577h-234l-102 -577h-192l102 577h-234l30 171h660z" />
    <glyph glyph-name="tcaron" unicode="&#x165;" horiz-adv-x="629" 
d="M595 791q51 0 75.5 -36t14.5 -91q-29 -162 -214 -246l2 81q60 32 88 83q-39 9 -59 41t-13 73t36.5 68t69.5 27zM333 521h111l-28 -156h-112l-28 -153q-5 -32 11 -46t42 -14q23 0 50 5l-27 -163q-40 -5 -82 -5q-101 0 -150 48.5t-32 140.5l34 187h-94l28 156h95l31 168
h182z" />
    <glyph glyph-name="Tbar" unicode="&#x166;" horiz-adv-x="700" 
d="M502 577l-28 -157h114l-26 -147h-114l-48 -273h-192l48 273h-113l26 147h113l28 157h-234l30 171h660l-30 -171h-234z" />
    <glyph glyph-name="tbar" unicode="&#x167;" horiz-adv-x="433" 
d="M308 365l-8 -41h109l-23 -130h-107q3 -42 53 -42q22 0 50 5l-27 -163q-40 -5 -82 -5q-101 0 -150 48.5t-32 140.5l3 16h-96l23 130h97l7 41h-94l28 156h95l31 168h182l-31 -168h111l-28 -156h-111z" />
    <glyph glyph-name="Utilde" unicode="&#x168;" horiz-adv-x="785" 
d="M440 974q30 0 50 -12t34.5 -24.5t31.5 -12.5q48 0 54 41h99q3 -75 -41.5 -126.5t-102.5 -51.5q-40 0 -69.5 25t-46.5 25q-49 0 -54 -44h-99q-3 75 41.5 127.5t102.5 52.5zM809 748l-76 -436q-29 -155 -126 -239t-249 -84q-158 0 -235.5 90.5t-49.5 244.5l74 424h193
l-77 -430q-27 -158 108 -158q143 0 171 163l74 425h193z" />
    <glyph glyph-name="utilde" unicode="&#x169;" horiz-adv-x="609" 
d="M316 776q30 0 50 -12t34.5 -24.5t31.5 -12.5q48 0 54 41h99q3 -75 -41 -126t-103 -51q-40 0 -69.5 24.5t-46.5 24.5q-49 0 -54 -44h-99q-3 75 41.5 127.5t102.5 52.5zM500 0h-165l3 30q-43 -41 -121 -41q-97 0 -142 54t-29 151l58 327h182l-50 -291q-13 -71 43 -71
q68 0 80 74l51 288h182z" />
    <glyph glyph-name="Umacron" unicode="&#x16a;" horiz-adv-x="785" 
d="M650 803h-322l25 139h322zM809 748l-76 -436q-29 -155 -126 -239t-249 -84q-158 0 -235.5 90.5t-49.5 244.5l74 424h193l-77 -430q-27 -158 108 -158q143 0 171 163l74 425h193z" />
    <glyph glyph-name="umacron" unicode="&#x16b;" horiz-adv-x="609" 
d="M527 609h-322l25 140h322zM500 0h-165l3 30q-43 -41 -121 -41q-97 0 -142 54t-29 151l58 327h182l-50 -291q-13 -71 43 -71q68 0 80 74l51 288h182z" />
    <glyph glyph-name="Ubreve" unicode="&#x16c;" horiz-adv-x="785" 
d="M577 976h145q-16 -95 -75 -140t-146 -45q-97 0 -148.5 48.5t-35.5 136.5h146q-10 -60 46 -60q26 0 44 17.5t24 42.5zM809 748l-76 -436q-29 -155 -126 -239t-249 -84q-158 0 -235.5 90.5t-49.5 244.5l74 424h193l-77 -430q-27 -158 108 -158q143 0 171 163l74 425h193z
" />
    <glyph glyph-name="ubreve" unicode="&#x16d;" horiz-adv-x="609" 
d="M452 774h145q-16 -95 -74.5 -140t-146.5 -45q-96 0 -148 49.5t-36 135.5h146q-5 -31 8.5 -45.5t36.5 -14.5q27 0 45 17.5t24 42.5zM500 0h-165l3 30q-43 -41 -121 -41q-97 0 -142 54t-29 151l58 327h182l-50 -291q-13 -71 43 -71q68 0 80 74l51 288h182z" />
    <glyph glyph-name="Uring" unicode="&#x16e;" horiz-adv-x="785" 
d="M514 1019q56 0 89 -35.5t23 -88.5q-7 -45 -43.5 -73.5t-82.5 -28.5q-57 0 -89.5 36t-23.5 89q8 45 44 73t83 28zM510 941q-31 0 -37 -31q-3 -16 6 -27t25 -11q32 0 37 31q3 17 -5.5 27.5t-25.5 10.5zM809 748l-76 -436q-29 -155 -126 -239t-249 -84q-158 0 -235.5 90.5
t-49.5 244.5l74 424h193l-77 -430q-27 -158 108 -158q143 0 171 163l74 425h193z" />
    <glyph glyph-name="uring" unicode="&#x16f;" horiz-adv-x="609" 
d="M393 838q64 0 102 -41t28 -101q-10 -53 -52.5 -87t-96.5 -34q-65 0 -103 41t-27 103q9 52 51.5 85.5t97.5 33.5zM388 745q-32 0 -41 -35q-4 -17 6 -29.5t29 -12.5q31 0 40 35q4 19 -5.5 30.5t-28.5 11.5zM500 0h-165l3 30q-43 -41 -121 -41q-97 0 -142 54t-29 151l58 327
h182l-50 -291q-13 -71 43 -71q68 0 80 74l51 288h182z" />
    <glyph glyph-name="Uhungarumlaut" unicode="&#x170;" horiz-adv-x="785" 
d="M443 798h-146l95 182h175zM665 798h-146l95 182h175zM809 748l-76 -436q-29 -155 -126 -239t-249 -84q-158 0 -235.5 90.5t-49.5 244.5l74 424h193l-77 -430q-27 -158 108 -158q143 0 171 163l74 425h193z" />
    <glyph glyph-name="uhungarumlaut" unicode="&#x171;" horiz-adv-x="609" 
d="M324 600h-145l96 193h176zM546 600h-145l96 193h176zM500 0h-165l3 30q-43 -41 -121 -41q-97 0 -142 54t-29 151l58 327h182l-50 -291q-13 -71 43 -71q68 0 80 74l51 288h182z" />
    <glyph glyph-name="Uogonek" unicode="&#x172;" horiz-adv-x="785" 
d="M809 748l-76 -436q-25 -132 -99 -212.5t-190 -102.5q-66 -38 -72 -74q-3 -21 20 -21q21 0 49 14l14 -92q-42 -17 -89 -17q-66 0 -102.5 29t-27.5 84q7 44 51 74q-124 20 -181.5 107.5t-32.5 222.5l74 424h193l-77 -430q-27 -158 108 -158q143 0 171 163l74 425h193z" />
    <glyph glyph-name="uogonek" unicode="&#x173;" horiz-adv-x="609" 
d="M500 0h-31q-37 -21 -56.5 -38t-23.5 -40q-3 -21 20 -21q21 0 49 14l14 -92q-42 -17 -89 -17q-66 0 -102.5 29t-27.5 84q10 57 83 93l2 18q-43 -41 -121 -41q-97 0 -142 54t-29 151l58 327h182l-50 -291q-13 -71 43 -71q68 0 80 74l51 288h182z" />
    <glyph glyph-name="Wcircumflex" unicode="&#x174;" horiz-adv-x="1129" 
d="M853 795h-147l-37 66l-66 -66h-156l144 170h177zM815 0h-163l-61 412l-207 -412h-162l-129 748h201l57 -428l210 428h158l58 -428l209 428h222z" />
    <glyph glyph-name="wcircumflex" unicode="&#x175;" horiz-adv-x="862" 
d="M688 600h-147l-37 65l-66 -65h-156l147 182h177zM614 0h-145l-45 219l-123 -219h-145l-109 521h193l32 -257l132 257h128l40 -257l124 257h211z" />
    <glyph glyph-name="Ycircumflex" unicode="&#x176;" horiz-adv-x="776" 
d="M684 795h-147l-37 66l-66 -66h-156l144 170h177zM490 274l-51 -274h-193l51 274l-201 474h216l103 -283l210 283h231z" />
    <glyph glyph-name="ycircumflex" unicode="&#x177;" horiz-adv-x="598" 
d="M557 600h-147l-37 65l-66 -65h-156l147 182h177zM172 -255h-203l195 319l-117 457h201l52 -260l141 260h203z" />
    <glyph glyph-name="Ydieresis" unicode="&#x178;" horiz-adv-x="776" 
d="M391 980q46 0 72.5 -31.5t18.5 -75.5q-6 -36 -33.5 -60t-63.5 -24q-45 0 -71.5 31.5t-18.5 75.5q6 35 34 59.5t62 24.5zM611 980q45 0 72 -31.5t19 -75.5q-6 -36 -34 -60t-64 -24q-45 0 -71.5 31.5t-18.5 75.5q7 35 35 59.5t62 24.5zM490 274l-51 -274h-193l51 274
l-201 474h216l103 -283l210 283h231z" />
    <glyph glyph-name="Zacute" unicode="&#x179;" horiz-adv-x="631" 
d="M497 795h-168l144 162h252zM647 602l-371 -431h306l-30 -171h-560l26 146l370 431h-294l30 171h549z" />
    <glyph glyph-name="zacute" unicode="&#x17a;" horiz-adv-x="460" 
d="M360 600h-146l107 191h210zM445 401l-216 -254h176l-25 -147h-391l21 120l217 254h-169l26 147h382z" />
    <glyph glyph-name="Zdotaccent" unicode="&#x17b;" horiz-adv-x="631" 
d="M437 1003q49 0 78.5 -35t20.5 -83q-7 -40 -38.5 -67t-70.5 -27q-50 0 -78.5 34t-20.5 83q7 40 39 67.5t70 27.5zM647 602l-371 -431h306l-30 -171h-560l26 146l370 431h-294l30 171h549z" />
    <glyph glyph-name="zdotaccent" unicode="&#x17c;" horiz-adv-x="460" 
d="M311 789q49 0 77.5 -35t20.5 -83q-7 -40 -39 -67t-71 -27q-50 0 -78.5 34t-19.5 83q7 40 39.5 67.5t70.5 27.5zM445 401l-216 -254h176l-25 -147h-391l21 120l217 254h-169l26 147h382z" />
    <glyph glyph-name="Zcaron" unicode="&#x17d;" horiz-adv-x="631" 
d="M505 795h-177l-86 170h148l37 -66l66 66h156zM647 602l-371 -431h306l-30 -171h-560l26 146l370 431h-294l30 171h549z" />
    <glyph glyph-name="zcaron" unicode="&#x17e;" horiz-adv-x="460" 
d="M381 598h-177l-83 182h148l37 -64l66 64h156zM445 401l-216 -254h176l-25 -147h-391l21 120l217 254h-169l26 147h382z" />
    <glyph glyph-name="florin" unicode="&#x192;" horiz-adv-x="452" 
d="M461 786q92 0 158 -43l-91 -141q-15 24 -49 24q-65 0 -84 -59l-16 -46h105l-27 -151h-133l-183 -512h-188l180 512h-84l27 151h111l31 89q32 90 95.5 133t147.5 43z" />
    <glyph glyph-name="Aringacute" unicode="&#x1fa;" horiz-adv-x="824" 
d="M510 772q-57 0 -90 36t-24 89q9 46 46 75l134 117h231l-205 -117q44 -36 33 -98q-7 -45 -43.5 -73.5t-81.5 -28.5zM550 882q3 17 -5.5 27.5t-25.5 10.5q-31 0 -37 -31q-3 -16 6 -27t25 -11q15 0 25.5 8.5t11.5 22.5zM580 748l194 -748h-212l-31 118h-288l-72 -118h-212
l458 748h163zM492 268l-47 181l-110 -181h157z" />
    <glyph glyph-name="aringacute" unicode="&#x1fb;" horiz-adv-x="566" 
d="M355 571q-57 0 -89.5 36t-23.5 89q10 55 59 84l123 108h231l-206 -117q43 -36 31 -98q-7 -45 -43 -73.5t-82 -28.5zM396 681q3 17 -5.5 27.5t-25.5 10.5q-32 0 -38 -30q-3 -16 6 -27t25 -11q33 0 38 30zM326 532q102 0 156 -57.5t36 -156.5l-56 -318h-169l6 32
q-52 -43 -135 -43q-75 0 -116 45t-27 123q7 43 29 72t57 44.5t70.5 22t82.5 8.5l72 2l7 30q4 19 -5.5 32t-29.5 13q-47 0 -57 -49l-178 13q13 75 84.5 131t172.5 56zM315 200l-43 -2q-65 -3 -71 -44q-3 -32 35 -32q28 0 49 16.5t27 46.5z" />
    <glyph glyph-name="AEacute" unicode="&#x1fc;" horiz-adv-x="1052" 
d="M850 795h-168l144 162h252zM759 577l-20 -112h255l-30 -167h-255l-22 -127h299l-31 -171h-491l13 75h-218l-65 -75h-240l640 748h492l-30 -171h-297zM504 224l32 181l-153 -181h121z" />
    <glyph glyph-name="aeacute" unicode="&#x1fd;" horiz-adv-x="882" 
d="M561 600h-146l107 191h210zM617 532q120 0 184.5 -72t47.5 -196l-8 -53h-331q-5 -37 12.5 -59.5t54.5 -22.5q49 0 69 41l183 -12q-23 -79 -94 -124t-161 -45q-124 0 -192 71q-86 -71 -185 -71q-97 0 -143.5 43.5t-32.5 124.5q7 43 29 72t57 44.5t70.5 22t82.5 8.5l71 2
l5 19l3 11q4 19 -5.5 32t-29.5 13q-47 0 -57 -49l-178 13q13 75 80.5 131t164.5 56q90 0 143 -44q68 44 160 44zM614 398q-69 0 -88 -80h147q5 39 -10.5 59.5t-48.5 20.5zM315 200l-42 -2q-65 -3 -72 -45q-2 -15 7 -23t28 -8q23 0 47 18.5t28 40.5z" />
    <glyph glyph-name="Oslashacute" unicode="&#x1fe;" horiz-adv-x="880" 
d="M619 795h-168l144 162h252zM878 719l-88 -94q80 -106 64 -262q-18 -170 -134 -272t-285 -102q-112 0 -199 45l-86 -92l-108 90l87 92q-79 106 -63 261q18 170 134 272t286 102q110 0 197 -45l88 94zM260 363q-3 -50 9 -89l285 303q-33 11 -71 11q-96 0 -156 -61t-67 -164
zM660 385q3 49 -10 91l-285 -304q31 -12 72 -12q96 0 156 61t67 164z" />
    <glyph glyph-name="oslashacute" unicode="&#x1ff;" horiz-adv-x="643" 
d="M443 600h-146l107 191h210zM612 487l-52 -56q55 -76 42 -182q-12 -117 -95 -188.5t-202 -71.5q-71 0 -128 26l-63 -69l-92 74l62 68q-56 77 -43 184q12 117 95 188.5t202 71.5q74 0 131 -27l51 56zM222 249v-12l127 139h-9q-51 0 -83 -34.5t-35 -92.5zM421 272v8
l-124 -135h6q50 0 82 34.5t36 92.5z" />
    <glyph glyph-name="Scommaaccent" unicode="&#x218;" horiz-adv-x="668" 
d="M657 520l-197 -8q5 38 -12.5 59t-55.5 21q-42 0 -68 -19t-31 -51q-4 -27 16.5 -42.5t86.5 -32.5q125 -32 184.5 -84t46.5 -149q-11 -77 -56 -129t-107 -74t-138 -22q-145 0 -224 66.5t-61 183.5l197 7q-6 -42 17.5 -66t69.5 -24q98 0 105 65q4 27 -21 46t-82 33
q-59 15 -98 30t-75 40.5t-50.5 65.5t-6.5 95q14 99 90.5 163.5t202.5 64.5q135 0 208.5 -65.5t58.5 -173.5zM281 -49q51 0 75.5 -36t14.5 -91q-29 -162 -214 -246l2 81q60 32 88 83q-39 9 -59 41t-13 73t36.5 68t69.5 27z" />
    <glyph glyph-name="scommaaccent" unicode="&#x219;" horiz-adv-x="510" 
d="M488 359l-181 -4q4 22 -6 35.5t-30 13.5q-37 0 -42 -33q-2 -18 15.5 -28t58.5 -20q86 -21 128.5 -58t33.5 -107q-11 -78 -72 -123.5t-163 -45.5q-111 0 -166.5 45t-50.5 125l180 6q-10 -48 43 -48q42 0 47 32q4 33 -60 50q-51 14 -80 25t-56 30t-36 48t-3 71
q10 75 71.5 117t157.5 42q106 0 160 -49.5t51 -123.5zM190 -49q51 0 75.5 -36t14.5 -91q-29 -162 -214 -246l2 81q60 32 88 83q-39 9 -59 41t-13 73t36.5 68t69.5 27z" />
    <glyph glyph-name="uni021A" unicode="&#x21a;" horiz-adv-x="700" 
d="M766 748l-30 -171h-234l-102 -577h-192l102 577h-234l30 171h660zM281 -44q51 0 75.5 -36t14.5 -91q-29 -162 -214 -246l2 81q60 32 88 83q-39 9 -59 41t-13 73t36.5 68t69.5 27z" />
    <glyph glyph-name="uni021B" unicode="&#x21b;" horiz-adv-x="433" 
d="M304 365l-28 -153q-5 -32 11 -46t42 -14q23 0 50 5l-27 -163q-40 -5 -82 -5q-101 0 -150 48.5t-32 140.5l34 187h-94l28 156h95l31 168h182l-31 -168h111l-28 -156h-112zM175 -52q51 0 75.5 -36t14.5 -91q-29 -162 -214 -246l2 81q60 32 88 83q-39 9 -59 41t-13 73
t36.5 68t69.5 27z" />
    <glyph glyph-name="dotlessj" unicode="&#x237;" 
d="M291 521l-99 -562q-21 -116 -85.5 -170.5t-156.5 -54.5q-99 0 -158 44l90 142q24 -26 49 -26q32 0 53 18t26 49l99 560h182z" />
    <glyph glyph-name="circumflex" unicode="&#x2c6;" horiz-adv-x="415" 
d="M468 600h-147l-37 65l-66 -65h-156l147 182h177z" />
    <glyph glyph-name="caron" unicode="&#x2c7;" horiz-adv-x="415" 
d="M358 598h-177l-83 182h148l37 -64l66 64h156z" />
    <glyph glyph-name="breve" unicode="&#x2d8;" horiz-adv-x="415" 
d="M355 774h145q-16 -95 -74.5 -140t-146.5 -45q-96 0 -148 49.5t-36 135.5h146q-5 -31 8.5 -45.5t36.5 -14.5q27 0 45 17.5t24 42.5z" />
    <glyph glyph-name="dotaccent" unicode="&#x2d9;" horiz-adv-x="220" 
d="M190 789q49 0 77.5 -35t20.5 -83q-7 -40 -39 -67t-71 -27q-50 0 -78.5 34t-19.5 83q7 40 39.5 67.5t70.5 27.5z" />
    <glyph glyph-name="ring" unicode="&#x2da;" horiz-adv-x="291" 
d="M234 838q64 0 102 -41t28 -101q-10 -53 -52.5 -87t-96.5 -34q-65 0 -103 41t-27 103q9 52 51.5 85.5t97.5 33.5zM229 745q-32 0 -41 -35q-4 -17 6 -29.5t29 -12.5q31 0 40 35q4 19 -5.5 30.5t-28.5 11.5z" />
    <glyph glyph-name="ogonek" unicode="&#x2db;" horiz-adv-x="236" 
d="M125 49l36 -45q-38 -21 -58 -38.5t-24 -40.5q-3 -21 20 -21q21 0 49 14l14 -92q-42 -17 -89 -17q-66 0 -102.5 29t-27.5 84q8 48 54.5 77t127.5 50z" />
    <glyph glyph-name="tilde" unicode="&#x2dc;" horiz-adv-x="398" 
d="M211 776q30 0 50 -12t34.5 -24.5t31.5 -12.5q48 0 54 41h99q3 -75 -41 -126t-103 -51q-40 0 -69.5 24.5t-46.5 24.5q-49 0 -54 -44h-99q-3 75 41.5 127.5t102.5 52.5z" />
    <glyph glyph-name="hungarumlaut" unicode="&#x2dd;" horiz-adv-x="464" 
d="M207 600h-145l96 193h176zM429 600h-145l96 193h176z" />
    <glyph glyph-name="uni0326" unicode="&#x326;" horiz-adv-x="0" 
d="M67 -44q51 0 75 -36t15 -91q-29 -163 -214 -246l2 81q59 33 87 82q-38 9 -58.5 41t-13.5 74q8 41 37.5 68t69.5 27z" />
    <glyph glyph-name="Omega" unicode="&#x3a9;" horiz-adv-x="807" 
d="M473 730q158 0 235.5 -103t50.5 -257q-13 -72 -47 -135t-77 -100l131 4l-25 -139h-327l19 132q64 36 113 107.5t63 147.5q16 92 -19.5 147.5t-114.5 55.5q-90 0 -155 -63t-82 -163q-12 -71 8.5 -137t70.5 -101l-17 -126h-326l25 139l140 5q-31 39 -46 105.5t-2 143.5
q26 146 130 241.5t252 95.5z" />
    <glyph glyph-name="mu" unicode="&#x3bc;" horiz-adv-x="614" 
d="M597 521l-92 -521h-165l3 30q-43 -41 -121 -41q-17 0 -25 1l-43 -245h-182l77 434l2 15l58 327h182l-50 -291q-13 -71 43 -71q68 0 80 74l51 288h182z" />
    <glyph glyph-name="pi" unicode="&#x3c0;" horiz-adv-x="758" 
d="M571 303l-40 -138q-7 -23 -4 -23q19 0 40 18l72 -114q-58 -55 -137 -55q-80 0 -110.5 48.5t-7.5 126.5l41 137h-73l-55 -184q-24 -76 -59 -124l-174 10l26.5 40l26.5 40.5t18 33.5t16 40l47 144q-26 -1 -51 -17.5t-41 -39.5l-70 134q52 46 96.5 65t120.5 19h246
q59 0 90.5 19t52.5 57l132 -93q-62 -144 -197 -144h-6z" />
    <glyph glyph-name="Wgrave" unicode="&#x1e80;" horiz-adv-x="1129" 
d="M725 795h-160l-171 162h244zM815 0h-163l-61 412l-207 -412h-162l-129 748h201l57 -428l210 428h158l58 -428l209 428h222z" />
    <glyph glyph-name="wgrave" unicode="&#x1e81;" horiz-adv-x="862" 
d="M551 600h-138l-103 191h202zM614 0h-145l-45 219l-123 -219h-145l-109 521h193l32 -257l132 257h128l40 -257l124 257h211z" />
    <glyph glyph-name="Wacute" unicode="&#x1e82;" horiz-adv-x="1129" 
d="M735 795h-168l144 162h252zM815 0h-163l-61 412l-207 -412h-162l-129 748h201l57 -428l210 428h158l58 -428l209 428h222z" />
    <glyph glyph-name="wacute" unicode="&#x1e83;" horiz-adv-x="862" 
d="M557 600h-146l107 191h210zM614 0h-145l-45 219l-123 -219h-145l-109 521h193l32 -257l132 257h128l40 -257l124 257h211z" />
    <glyph glyph-name="Wdieresis" unicode="&#x1e84;" horiz-adv-x="1129" 
d="M560 980q46 0 72.5 -31.5t18.5 -75.5q-6 -36 -33.5 -60t-63.5 -24q-45 0 -71.5 31.5t-18.5 75.5q6 35 34 59.5t62 24.5zM780 980q45 0 72 -31.5t19 -75.5q-6 -36 -34 -60t-64 -24q-45 0 -71.5 31.5t-18.5 75.5q7 35 35 59.5t62 24.5zM815 0h-163l-61 412l-207 -412h-162
l-129 748h201l57 -428l210 428h158l58 -428l209 428h222z" />
    <glyph glyph-name="wdieresis" unicode="&#x1e85;" horiz-adv-x="862" 
d="M394 773q46 0 72.5 -31.5t18.5 -75.5q-7 -36 -35 -60t-63 -24q-45 0 -71 31.5t-18 75.5q6 36 33.5 60t62.5 24zM613 773q46 0 73 -31.5t19 -75.5q-8 -36 -36 -60t-63 -24q-45 0 -71 31.5t-18 75.5q6 36 34 60t62 24zM614 0h-145l-45 219l-123 -219h-145l-109 521h193
l32 -257l132 257h128l40 -257l124 257h211z" />
    <glyph glyph-name="Ygrave" unicode="&#x1ef2;" horiz-adv-x="776" 
d="M556 795h-160l-171 162h244zM490 274l-51 -274h-193l51 274l-201 474h216l103 -283l210 283h231z" />
    <glyph glyph-name="ygrave" unicode="&#x1ef3;" horiz-adv-x="598" 
d="M420 600h-138l-103 191h202zM172 -255h-203l195 319l-117 457h201l52 -260l141 260h203z" />
    <glyph glyph-name="endash" unicode="&#x2013;" horiz-adv-x="568" 
d="M509 177h-479l30 171h479z" />
    <glyph glyph-name="emdash" unicode="&#x2014;" horiz-adv-x="800" 
d="M741 177h-711l30 171h711z" />
    <glyph glyph-name="quoteleft" unicode="&#x2018;" horiz-adv-x="250" 
d="M292 794l-2 -81q-60 -32 -88 -82q38 -9 58.5 -41t13.5 -73t-37 -68t-70 -27q-51 0 -75 35.5t-15 91.5q31 162 215 245z" />
    <glyph glyph-name="quoteright" unicode="&#x2019;" horiz-adv-x="250" 
d="M205 791q51 0 75.5 -36t14.5 -91q-29 -162 -214 -246l2 81q60 32 88 83q-39 9 -59 41t-13 73t36.5 68t69.5 27z" />
    <glyph glyph-name="quotesinglbase" unicode="&#x201a;" horiz-adv-x="250" 
d="M101 201q51 0 75.5 -36t14.5 -91q-29 -161 -214 -246l2 81q58 31 88 83q-38 9 -59 41t-14 73q8 41 37.5 68t69.5 27z" />
    <glyph glyph-name="quotedblleft" unicode="&#x201c;" horiz-adv-x="485" 
d="M73 549q29 162 214 246l-2 -81q-60 -32 -88 -83q39 -9 59 -41t13 -73t-36.5 -68t-69.5 -27q-51 0 -75.5 36t-14.5 91zM523 795l-2 -81q-60 -32 -88 -83q39 -9 59 -41t13 -73t-36.5 -68t-69.5 -27q-51 0 -75.5 36t-14.5 91q29 162 214 246z" />
    <glyph glyph-name="quotedblright" unicode="&#x201d;" horiz-adv-x="485" 
d="M204 791q51 0 75.5 -36t14.5 -91q-29 -162 -214 -246l2 81q60 32 88 83q-39 9 -59 41t-13 73t36.5 68t69.5 27zM439 791q51 0 75.5 -36t14.5 -91q-29 -162 -214 -246l2 81q60 32 88 83q-39 9 -59 41t-13 73t36.5 68t69.5 27z" />
    <glyph glyph-name="quotedblbase" unicode="&#x201e;" horiz-adv-x="485" 
d="M104 201q51 0 75 -36t15 -91q-30 -162 -215 -246l2 81q60 32 88 83q-39 9 -59 41t-13 73t37 68t70 27zM339 201q51 0 75 -36t15 -91q-30 -162 -215 -246l2 81q60 32 88 83q-39 9 -59 41t-13 73t37 68t70 27z" />
    <glyph glyph-name="dagger" unicode="&#x2020;" horiz-adv-x="560" 
d="M424 565h175l-28 -164h-175l-83 -468h-182l83 468h-174l28 164h174l33 183h182z" />
    <glyph glyph-name="daggerdbl" unicode="&#x2021;" horiz-adv-x="560" 
d="M424 565h175l-28 -164h-175l-21 -121h174l-29 -164h-174l-33 -183h-182l32 183h-174l29 164h175l21 121h-175l29 164h174l33 183h182z" />
    <glyph glyph-name="bullet" unicode="&#x2022;" horiz-adv-x="349" 
d="M184 385q58 0 93.5 -42t24.5 -99q-9 -51 -49.5 -85.5t-88.5 -34.5q-59 0 -94.5 42t-24.5 100q9 50 49 84.5t90 34.5z" />
    <glyph glyph-name="ellipsis" unicode="&#x2026;" horiz-adv-x="874" 
d="M115 201q50 0 79 -35t21 -83q-7 -40 -39 -67t-71 -27q-49 0 -78 34.5t-20 82.5q7 40 38.5 67.5t69.5 27.5zM402 201q49 0 78.5 -35t20.5 -83q-7 -40 -39 -67t-71 -27q-49 0 -77.5 34.5t-20.5 82.5q7 40 38.5 67.5t70.5 27.5zM688 201q49 0 78.5 -35t20.5 -83
q-7 -40 -38.5 -67t-70.5 -27q-50 0 -78.5 34.5t-20.5 82.5q8 41 39 68t70 27z" />
    <glyph glyph-name="perthousand" unicode="&#x2030;" horiz-adv-x="1329" 
d="M286 759q86 0 131.5 -57t29.5 -148q-14 -82 -70 -132t-132 -50q-86 0 -132 57.5t-30 147.5q15 83 71 132.5t132 49.5zM270 0h-179l603 748h180zM279 633q-55 0 -66 -74q-6 -61 39 -61q54 0 65 75q6 60 -38 60zM721 376q86 0 131.5 -57t28.5 -147q-14 -83 -70 -133
t-132 -50q-86 0 -132 57.5t-30 148.5q15 82 71.5 131.5t132.5 49.5zM1125 376q86 0 131.5 -57t29.5 -147q-14 -83 -70.5 -133t-132.5 -50q-86 0 -131.5 57.5t-29.5 148.5q15 82 71 131.5t132 49.5zM713 250q-56 0 -65 -74q-5 -28 6.5 -44.5t33.5 -16.5q54 0 63 75
q4 28 -6.5 44t-31.5 16zM1118 250q-57 0 -66 -74q-5 -28 6.5 -44.5t33.5 -16.5q53 0 64 75q6 60 -38 60z" />
    <glyph glyph-name="guilsinglleft" unicode="&#x2039;" horiz-adv-x="357" 
d="M364 376l-131 -126l86 -126l-141 -105l-164 246l230 237z" />
    <glyph glyph-name="guilsinglright" unicode="&#x203a;" horiz-adv-x="357" 
d="M344 255l-230 -237l-120 126l131 126l-86 126l141 105z" />
    <glyph glyph-name="fraction" unicode="&#x2044;" horiz-adv-x="237" 
d="M-79 0h-190l625 748h190z" />
    <glyph glyph-name="Euro" unicode="&#x20ac;" horiz-adv-x="706" 
d="M449 160q78 0 142 52l70 -168q-55 -30 -104 -42.5t-118 -12.5q-114 0 -196 64.5t-103 180.5h-130l57 112h68q2 26 4 39l1 10h-108l57 113h82q48 121 145 186t208 65q71 0 117.5 -16t92.5 -49l-77 -152q-46 46 -122 46q-95 0 -151 -80h254l-58 -113h-242q0 -2 -6 -32
l-2 -17h227l-57 -112h-161q26 -74 110 -74z" />
    <glyph glyph-name="trademark" unicode="&#x2122;" horiz-adv-x="903" 
d="M427 619h-109l-41 -230h-133l41 230h-107l23 129h348zM872 389h-134l21 113l-75 -108h-60l-35 108l-21 -113h-133l64 359h109l70 -197l140 197h118z" />
    <glyph glyph-name="estimated" unicode="&#x212e;" horiz-adv-x="598" 
d="M311 542q112 0 182.5 -68t70.5 -196h-369v-180q0 -49 40 -66q23 -9 76 -9q139 0 216 126l32 -21q-43 -67 -107 -104.5t-141 -37.5q-120 0 -198.5 76.5t-78.5 200.5q0 126 78 202.5t199 76.5zM311 505q-49 0 -79 -12q-37 -15 -37 -65v-114h222v112q0 31 -6.5 46t-29.5 23
q-35 10 -70 10z" />
    <glyph glyph-name="partialdiff" unicode="&#x2202;" horiz-adv-x="615" 
d="M337 759q159 0 220.5 -111.5t32.5 -318.5q-24 -167 -104.5 -253.5t-204.5 -86.5t-192.5 73.5t-52.5 195.5q16 105 91 166t184 61q59 0 104 -25q10 77 -8.5 102.5t-62.5 25.5q-78 0 -140 -57l-90 166q104 62 223 62zM283 160q40 0 69 26.5t34 64.5l1 9q4 36 -10 55.5
t-43 19.5q-39 0 -68 -27t-35 -71q-10 -77 52 -77z" />
    <glyph glyph-name="product" unicode="&#x220f;" horiz-adv-x="672" 
d="M714 577h-91l-131 -741h-165l131 741h-132l-131 -741h-165l131 741h-91l30 171h644z" />
    <glyph glyph-name="summation" unicode="&#x2211;" horiz-adv-x="600" 
d="M617 577h-297l118 -203l-185 -203h293l-31 -171h-515l23 142l215 232l-129 232l23 142h515z" />
    <glyph glyph-name="minus" unicode="&#x2212;" horiz-adv-x="548" 
d="M523 286h-489l30 171h489z" />
    <glyph glyph-name="radical" unicode="&#x221a;" horiz-adv-x="702" 
d="M755 629l-446 -706l-107 307l-111 -61l-67 143l279 156l57 -176l252 401z" />
    <glyph glyph-name="infinity" unicode="&#x221e;" horiz-adv-x="771" 
d="M567 513q91 0 142 -65t38 -157q-12 -85 -72 -142.5t-140 -57.5q-39 0 -72 12.5t-50.5 27.5t-38.5 38l-9 10l-12 -12q-65 -62 -149 -62q-85 0 -131 60t-34 148q12 80 65 134t128 54q51 0 81.5 -17t63.5 -51l10 -9l12 10q48 41 83 60t85 19zM564 359q-7 0 -13 -1t-10.5 -2
t-10.5 -4l-9 -4.5t-9.5 -7t-8 -7t-9.5 -8.5t-10 -9l-18 -18l9 -12q31 -41 63 -41q52 0 61 57q2 22 -8.5 39.5t-26.5 17.5zM233 353q-24 0 -38 -16t-18 -40q-2 -19 7.5 -32t24.5 -13q39 0 69 35l12 14l-5 8q-29 44 -52 44z" />
    <glyph glyph-name="integral" unicode="&#x222b;" horiz-adv-x="335" 
d="M306 759q68 0 124 -23l-41 -133q-22 9 -44 9q-14 0 -27.5 -9.5t-15.5 -20.5l-104 -595q-13 -77 -53.5 -117.5t-103.5 -40.5q-66 0 -125 23l42 133q24 -9 37 -9q17 0 31.5 10t17.5 19l104 596q13 78 54 118t104 40z" />
    <glyph glyph-name="approxequal" unicode="&#x2248;" horiz-adv-x="549" 
d="M520 610l68 -131q-85 -93 -174 -93q-46 0 -99 27t-80 27q-71 0 -121 -54l-69 131q84 93 174 93q47 0 99.5 -27.5t78.5 -27.5q71 0 123 55zM475 357l69 -131q-88 -93 -175 -93q-46 0 -98.5 27.5t-79.5 27.5q-71 0 -123 -55l-67 132q84 92 174 92q47 0 99.5 -27t78.5 -27
q71 0 122 54z" />
    <glyph glyph-name="notequal" unicode="&#x2260;" horiz-adv-x="548" 
d="M392 410l-31 -78h170l-30 -170h-206l-44 -112l-152 36l30 76h-117l30 170h153l30 78h-169l30 171h206l42 108l153 -35l-29 -73h117l-30 -171h-153z" />
    <glyph glyph-name="lessequal" unicode="&#x2264;" horiz-adv-x="550" 
d="M571 544l-138 -59l116 -59l-31 -188l-448 247l533 245zM481 31h-491l29 171h491z" />
    <glyph glyph-name="greaterequal" unicode="&#x2265;" horiz-adv-x="550" 
d="M560 485l-533 -247l31 188l138 59l-116 59l31 186zM480 31h-490l29 171h490z" />
    <glyph glyph-name="lozenge" unicode="&#x25ca;" horiz-adv-x="572" 
d="M563 346l-272 -401h-117l-135 401l273 402h117zM229 346l42 -143l103 143l-42 142z" />
    <glyph glyph-name="fl" unicode="&#xfb02;" horiz-adv-x="711" 
d="M413 784q38 0 65 -5l-28 -155q-9 2 -29 2q-37 0 -64 -22t-33 -51l-5 -32h114l-29 -156h-113l-64 -365h-183l64 365h-89l28 156h89l8 40q18 102 92 162.5t177 60.5zM602 0h-182l137 777h182z" />
    <glyph glyph-name="n.001" horiz-adv-x="624" 
d="M362 532q93 0 148.5 -55t55.5 -154v-323h-182v281q0 81 -68 81q-33 0 -52 -21.5t-19 -60.5v-280h-182v521h172v-35q39 46 127 46z" />
    <glyph glyph-name="germandbls.cap" horiz-adv-x="712" 
d="M418 756q189 0 277 -125l-143 -176q146 -69 118 -222q-19 -111 -104.5 -176t-206.5 -65q-63 0 -116 12l55 167q21 -8 55 -8q46 0 80 24t43 69q9 56 -26 84.5t-113 46.5l128 178q-18 20 -58 20q-42 0 -75 -25.5t-41 -68.5l-86 -491h-193l89 501q21 119 109 187t208 68z
" />
    <glyph glyph-name="a.sups" horiz-adv-x="467" 
d="M306 757q97 0 144 -44.5t31 -128.5l-45 -255h-153l4 22q-43 -31 -103 -31q-68 0 -102.5 32t-26.5 93q5 35 24 60t50 38.5t64 20t77 9.5l48 4l3 20q3 34 -25 34q-37 0 -42 -36l-159 5q11 61 68.5 109t142.5 48zM301 488l-35 -5q-38 -5 -42 -28q-2 -11 5 -16.5t21 -5.5
q41 0 47 33z" />
    <glyph glyph-name="b.sups" horiz-adv-x="532" 
d="M331 951l-38 -211q34 17 80 17q94 0 142.5 -62.5t35.5 -163.5q-11 -91 -76 -151t-151 -60q-60 0 -103 29l-5 -20h-158l110 622h163zM331 619q-61 0 -72 -74l-1 -6q-6 -35 10 -57.5t47 -22.5q29 0 48 19t23 55q6 39 -10 62.5t-45 23.5z" />
    <glyph glyph-name="c.sups" horiz-adv-x="486" 
d="M311 757q85 0 140.5 -45.5t60.5 -123.5l-156 -9q-2 18 -12.5 29t-28.5 11q-63 0 -74 -92q-3 -32 11 -50t36 -18q47 0 59 45l156 -17q-20 -77 -78.5 -122t-133.5 -45q-104 0 -163.5 63t-48.5 167q10 96 74.5 151.5t157.5 55.5z" />
    <glyph glyph-name="d.sups" horiz-adv-x="533" 
d="M498 329h-148l2 15q-42 -24 -95 -24q-94 0 -142.5 62.5t-35.5 163.5q11 91 75.5 151t150.5 60q49 0 101 -23l39 217h162zM314 619q-60 0 -71 -75q-5 -39 10.5 -62t44.5 -23q62 0 73 73l1 6q5 36 -11 58.5t-47 22.5z" />
    <glyph glyph-name="e.sups" horiz-adv-x="485" 
d="M316 757q98 0 151 -58.5t38 -159.5l-6 -45h-253l-1 -5q-4 -20 6.5 -32t34.5 -12q31 0 40 24l164 -10q-18 -63 -76 -101t-129 -38q-107 0 -163.5 63t-41.5 167q13 96 77.5 151.5t158.5 55.5zM313 636q-45 0 -54 -47h88q6 47 -34 47z" />
    <glyph glyph-name="f.sups" horiz-adv-x="327" 
d="M387 957q33 0 56 -5l-25 -139q-12 3 -28 3q-28 0 -46.5 -15t-22.5 -38l-2 -15h88l-25 -139h-88l-49 -280h-163l50 280h-70l25 139h70l4 25q15 84 78 134t148 50z" />
    <glyph glyph-name="g.sups" horiz-adv-x="528" 
d="M306 757q57 0 104 -29l5 20h156l-76 -433q-17 -92 -82.5 -145t-165.5 -53q-107 0 -157 45t-46 125l159 5q-3 -18 8 -28t37 -10q35 0 57.5 16t26.5 46l3 21q-43 -17 -80 -17q-96 0 -144.5 65t-30.5 165q17 93 79 150t147 57zM318 619q-61 0 -75 -75q-7 -39 8 -62t44 -23
q63 0 76 72l2 13q5 34 -10 54.5t-45 20.5z" />
    <glyph glyph-name="h.sups" horiz-adv-x="502" 
d="M331 951l-43 -213q33 19 82 19q81 0 121 -46.5t26 -127.5l-46 -254h-162l40 224q8 53 -27 53q-52 0 -63 -58l-38 -219h-163l110 622h163z" />
    <glyph glyph-name="i.sups" horiz-adv-x="255" 
d="M238 966q44 0 70 -31.5t18 -74.5q-6 -35 -33 -58t-61 -23q-44 0 -70 30.5t-18 73.5q6 35 33.5 59t60.5 24zM221 329h-163l74 419h163z" />
    <glyph glyph-name="j.sups" horiz-adv-x="255" 
d="M237 966q45 0 71 -31t18 -75q-6 -35 -33 -58t-62 -23q-44 0 -69.5 30.5t-17.5 73.5q6 35 33 59t60 24zM295 748l-79 -445q-15 -84 -77.5 -134.5t-148.5 -50.5q-32 0 -56 4l24 139q8 -2 24 -2q28 0 49 16.5t25 36.5l76 436h163z" />
    <glyph glyph-name="k.sups" horiz-adv-x="500" 
d="M272 631l109 117h201l-178 -179l100 -240h-176l-48 123l-42 -38l-17 -85h-163l110 622h163z" />
    <glyph glyph-name="l.sups" horiz-adv-x="255" 
d="M221 329h-163l110 622h163z" />
    <glyph glyph-name="m.sups" horiz-adv-x="740" 
d="M611 757q80 0 119 -46t25 -128l-45 -254h-162l39 224q10 53 -25 53q-44 0 -54 -42l-3 -15l-39 -220h-163l40 224q10 53 -26 53q-47 0 -58 -57l-38 -220h-163l74 419h149l-4 -15q31 24 90 24q86 0 124 -52q49 52 120 52z" />
    <glyph glyph-name="n.sups" horiz-adv-x="502" 
d="M370 757q81 0 121 -46.5t26 -127.5l-46 -254h-162l41 223q9 54 -29 54q-51 0 -62 -58l-38 -219h-163l74 419h149l-3 -15q29 24 92 24z" />
    <glyph glyph-name="o.sups" horiz-adv-x="517" 
d="M325 757q106 0 165.5 -64.5t44.5 -165.5q-13 -94 -80.5 -150.5t-163.5 -56.5q-107 0 -166.5 64t-44.5 166q13 93 81 150t164 57zM323 619q-34 0 -56 -24t-26 -65q-2 -34 11.5 -52.5t40.5 -18.5q34 0 56.5 23.5t25.5 63.5q3 35 -11 54t-41 19z" />
    <glyph glyph-name="p.sups" horiz-adv-x="532" 
d="M374 757q94 0 142.5 -62.5t35.5 -163.5q-11 -91 -76 -151t-151 -60q-52 0 -100 24l-39 -219h-163l109 623h148l-1 -15q40 24 95 24zM332 619q-61 0 -72 -74l-1 -6q-6 -35 10 -57.5t47 -22.5q29 0 48 19t23 55q6 39 -10 62.5t-45 23.5z" />
    <glyph glyph-name="q.sups" horiz-adv-x="532" 
d="M305 757q62 0 103 -29l6 20h157l-110 -623h-162l37 212q-32 -17 -80 -17q-93 0 -141.5 62.5t-35.5 163.5q11 91 75.5 151t150.5 60zM314 619q-60 0 -71 -75q-5 -39 10.5 -62t44.5 -23q60 0 73 73l1 6q5 36 -11 58.5t-47 22.5z" />
    <glyph glyph-name="r.sups" horiz-adv-x="325" 
d="M398 752l-29 -157q-46 0 -77.5 -23.5t-38.5 -62.5l-32 -180h-163l74 419h153l-2 -26q38 30 115 30z" />
    <glyph glyph-name="s.sups" horiz-adv-x="410" 
d="M277 757q91 0 134.5 -39.5t37.5 -104.5l-162 -1q8 31 -13 31q-24 0 -26 -22q-2 -8 10 -16t37 -15q73 -24 106 -51.5t23 -84.5q-12 -63 -61.5 -98.5t-132.5 -35.5q-94 0 -140 37.5t-38 107.5l163 1q-8 -32 19 -32q25 0 29 22q2 8 -5.5 14.5t-30.5 14.5q-22 7 -32 10.5
l-27.5 10t-25.5 10.5t-20 11t-17 13.5t-11.5 16t-8 19.5t-2 23t2.5 28q10 61 61.5 95.5t129.5 34.5z" />
    <glyph glyph-name="t.sups" horiz-adv-x="353" 
d="M308 609l-19 -104q-4 -22 7.5 -31t29.5 -9q13 0 41 4l-26 -146q-40 -4 -66 -4q-85 0 -126.5 41t-27.5 116l25 133h-76l25 139h76l25 133h162l-24 -133h84l-25 -139h-85z" />
    <glyph glyph-name="u.sups" horiz-adv-x="491" 
d="M457 329h-146l2 16q-31 -25 -90 -25q-80 0 -117 43.5t-24 121.5l46 263h163l-41 -228q-9 -49 24 -49q45 0 54 48l40 229h163z" />
    <glyph glyph-name="v.sups" horiz-adv-x="491" 
d="M321 329h-128l-107 419h167l38 -167l97 167h188z" />
    <glyph glyph-name="w.sups" horiz-adv-x="701" 
d="M551 329h-127l-28 192l-95 -192h-127l-88 419h167l26 -177l90 177h113l26 -177l91 177h188z" />
    <glyph glyph-name="x.sups" horiz-adv-x="471" 
d="M392 524l83 -195h-174l-33 95l-64 -95h-188l161 222l-85 197h174l33 -98l70 98h186z" />
    <glyph glyph-name="y.sups" horiz-adv-x="491" 
d="M196 125h-182l165 265l-93 358h172l39 -167l97 167h182z" />
    <glyph glyph-name="z.sups" horiz-adv-x="375" 
d="M409 636l-156 -177h129l-23 -130h-319l20 112l155 176h-121l23 131h312z" />
    <glyph glyph-name="zero.onum" horiz-adv-x="657" 
d="M356 601q136 0 212 -86.5t59 -229.5q-16 -136 -102.5 -216t-211.5 -80q-136 0 -212 87t-60 231q18 136 104.5 215t210.5 79zM355 430q-47 0 -79 -39t-38 -106q-5 -60 15.5 -92.5t59.5 -32.5q48 0 79.5 39.5t37.5 107.5q5 60 -15 91.5t-60 31.5z" />
    <glyph glyph-name="one.onum" horiz-adv-x="406" 
d="M293 0h-192l60 344l-64 -38l-69 154l228 130h141z" />
    <glyph glyph-name="two.onum" horiz-adv-x="546" 
d="M327 601q117 0 170.5 -64t35.5 -162q-11 -60 -44 -98.5t-94 -75.5l-49 -30h150l-30 -171h-475l28 156l222 128q50 29 71 48t27 50q8 48 -33 48q-45 0 -59 -66l-190 11q20 106 92 166t178 60z" />
    <glyph glyph-name="three.onum" horiz-adv-x="575" 
d="M329 601q121 0 177 -65t36 -174q-9 -51 -29.5 -81.5t-59.5 -58.5q26 -18 40.5 -62t4.5 -101q-19 -108 -95 -168t-183 -60q-127 0 -185.5 65.5t-40.5 173.5l193 -1q-12 -67 44 -67q64 0 76 75q6 31 -7 50t-43 19h-86l29 161h71q67 0 80 65q4 27 -5 42.5t-29 15.5
q-55 0 -71 -74l-188 23q20 107 89.5 164.5t181.5 57.5z" />
    <glyph glyph-name="four.onum" horiz-adv-x="608" 
d="M453 116h103l-30 -171h-103l-18 -103h-164l18 103h-291l28 159l394 486h147zM192 116h97l29 157z" />
    <glyph glyph-name="five.onum" horiz-adv-x="577" 
d="M285 419l-15 -95q15 3 34 3q109 0 171 -66.5t41 -186.5q-16 -114 -91 -178.5t-189 -64.5q-121 0 -182.5 61t-48.5 161l193 6q-4 -27 9.5 -42t39.5 -15q65 0 78 83q5 32 -7.5 51t-37.5 19q-26 0 -54 -14l-183 -1l80 450h454l-30 -171h-262z" />
    <glyph glyph-name="six.onum" horiz-adv-x="617" 
d="M643 748l-227 -262q88 -24 135 -92t33 -162q-16 -110 -94 -176.5t-190 -66.5q-125 0 -200 74.5t-58 191.5q14 93 73 160l293 333h235zM389 252q9 89 -61 89q-38 0 -63 -28q-23 -29 -28 -65q-8 -88 62 -88q39 0 63 27.5t27 64.5z" />
    <glyph glyph-name="seven.onum" horiz-adv-x="542" 
d="M543 435l-360 -593h-223l359 577h-271l31 171h492z" />
    <glyph glyph-name="eight.onum" horiz-adv-x="624" 
d="M378 759q117 0 182.5 -62.5t48.5 -166.5q-13 -80 -71 -136q58 -68 41 -176q-17 -106 -99 -167.5t-196 -61.5q-124 0 -194 69t-52 183q18 106 96 169q-40 60 -26 143q15 97 89.5 151.5t180.5 54.5zM368 588q-29 0 -49 -18.5t-23 -48.5q-3 -55 47 -55q29 0 49 18t23 48
q2 27 -10.5 41.5t-36.5 14.5zM328 322q-42 0 -68 -24t-30 -65q-3 -35 14 -54t50 -19q41 0 67 24t30 65q5 73 -63 73z" />
    <glyph glyph-name="nine.onum" horiz-adv-x="617" 
d="M326 601q125 0 200 -74.5t58 -191.5q-14 -93 -73 -160l-292 -333h-236l227 262q-88 24 -135 92t-33 162q16 110 94 176.5t190 66.5zM298 249q38 0 63 28q23 29 28 65q8 88 -62 88q-39 0 -63 -27.5t-27 -64.5q-9 -89 61 -89z" />
    <glyph glyph-name="zero.slash" horiz-adv-x="656" 
d="M389 759q136 0 206 -105t43 -291q-25 -178 -116 -276t-216 -98q-136 0 -206 105t-43 291q24 178 115 276t217 98zM383 588q-56 0 -86.5 -53t-47.5 -168q-4 -32 -5 -42l170 256q-13 7 -31 7zM311 160q57 0 87.5 53.5t46.5 167.5l4 38l-167 -253q12 -6 29 -6z" />
    <glyph glyph-name="zero.subs" horiz-adv-x="373" 
d="M187 338q79 0 119.5 -59.5t22.5 -163.5q-17 -97 -69.5 -149.5t-121.5 -52.5q-79 0 -120 60t-23 164q17 96 70 148.5t122 52.5zM179 214q-16 0 -26 -20.5t-18 -68.5q-8 -41 -6.5 -64.5t17.5 -23.5t24.5 20t17.5 70q8 40 7 63.5t-16 23.5z" />
    <glyph glyph-name="one.subs" horiz-adv-x="241" 
d="M154 -80h-139l37 219l-32 -16l-43 119l162 89h87z" />
    <glyph glyph-name="two.subs" horiz-adv-x="324" 
d="M172 338q72 0 102.5 -42t20.5 -105q-3 -25 -15 -47.5t-24 -36t-34 -35.5l-28 -28h73l-22 -124h-288l16 96l157 142q21 19 26 44q2 12 -3 12q-7 0 -11 -17l-135 8q12 62 56.5 97.5t108.5 35.5z" />
    <glyph glyph-name="three.subs" horiz-adv-x="333" 
d="M165 338q74 0 108 -38.5t22 -103.5q-4 -24 -14 -39.5t-32 -31.5q12 -11 19 -34.5t2 -53.5q-10 -59 -52 -91.5t-102 -32.5q-76 0 -112 38.5t-24 96.5l140 5q-5 -16 2 -16q5 0 9 8.5t4 20.5q-2 8 -7 8h-50l19 108h37q9 0 19.5 10t9.5 24q0 2 -4 2t-8.5 -6.5t-5.5 -14.5
l-131 12q20 129 151 129z" />
    <glyph glyph-name="four.subs" horiz-adv-x="354" 
d="M271 89h33l-22 -123h-32l-8 -46h-139l7 46h-155l20 108l205 257h134zM99 89h33l11 55z" />
    <glyph glyph-name="five.subs" horiz-adv-x="325" 
d="M159 207l-2 -12q61 -2 93.5 -40t20.5 -108q-12 -64 -55 -99t-107 -35q-72 0 -108 34.5t-25 90.5l138 4q-2 -5 4 -5q8 0 13 19q3 15 -2 15t-7 -6l-127 3l46 263h263l-22 -124h-123z" />
    <glyph glyph-name="six.subs" horiz-adv-x="357" 
d="M349 331l-123 -144q41 -18 60 -55.5t10 -85.5q-10 -60 -57 -96.5t-109 -36.5q-74 0 -115.5 44t-29.5 112q8 41 44 88l147 174h173zM158 64q5 24 -10 24q-5 0 -13 -8q-7 -6 -9 -19q-2 -10 0.5 -17t9.5 -7q18 0 22 27z" />
    <glyph glyph-name="seven.subs" horiz-adv-x="316" 
d="M293 222l-168 -302h-162l162 287h-113l22 124h279z" />
    <glyph glyph-name="eight.subs" horiz-adv-x="359" 
d="M177 338q70 0 109.5 -38t28.5 -99q-6 -38 -36 -67q29 -37 19 -93q-10 -60 -56.5 -94t-111.5 -34q-75 0 -117 41.5t-30 109.5q9 48 51 87q-18 32 -11 73q10 53 52.5 83.5t101.5 30.5zM171 214q-20 0 -23 -24q-4 -20 12 -20q18 0 23 25q2 19 -12 19zM149 86q-22 0 -25 -27
q-3 -22 13 -22q20 0 25 27q5 22 -13 22z" />
    <glyph glyph-name="nine.subs" horiz-adv-x="357" 
d="M178 338q74 0 115.5 -44t29.5 -112q-9 -41 -44 -88l-147 -174h-173l123 144q-41 18 -60 55t-10 86q10 60 57 96.5t109 36.5zM160 163q5 0 13 8q7 7 9 19q4 24 -10 24q-18 0 -22 -27q-5 -24 10 -24z" />
    <glyph glyph-name="zero.sups" horiz-adv-x="373" 
d="M273 820q79 0 119.5 -59.5t22.5 -163.5q-17 -97 -69.5 -149.5t-121.5 -52.5q-79 0 -120 60t-23 164q17 96 70 148.5t122 52.5zM265 696q-16 0 -26 -20.5t-18 -68.5q-8 -41 -6.5 -64.5t17.5 -23.5t24.5 20t17.5 70q8 40 7 63.5t-16 23.5z" />
    <glyph glyph-name="one.sups" horiz-adv-x="241" 
d="M236 402h-139l37 219l-32 -16l-43 119l162 89h87z" />
    <glyph glyph-name="two.sups" horiz-adv-x="324" 
d="M256 820q72 0 102.5 -42t20.5 -105q-3 -25 -15 -47.5t-24 -36t-34 -35.5l-28 -28h73l-22 -124h-288l16 96l157 142q21 19 26 44q2 12 -3 12q-7 0 -11 -17l-135 8q12 62 56.5 97.5t108.5 35.5z" />
    <glyph glyph-name="three.sups" horiz-adv-x="333" 
d="M249 820q74 0 108 -38.5t22 -103.5q-4 -24 -14 -39.5t-32 -31.5q12 -11 19 -34.5t2 -53.5q-10 -59 -52 -91.5t-102 -32.5q-76 0 -112 38.5t-24 96.5l140 5q-5 -16 2 -16q5 0 9 8.5t4 20.5q-2 8 -7 8h-50l19 108h37q9 0 19.5 10t9.5 24q0 2 -4 2t-8.5 -6.5t-5.5 -14.5
l-131 12q20 129 151 129z" />
    <glyph glyph-name="four.sups" horiz-adv-x="354" 
d="M357 571h33l-22 -123h-32l-8 -46h-139l7 46h-155l20 108l205 257h134zM185 571h33l11 55z" />
    <glyph glyph-name="five.sups" horiz-adv-x="325" 
d="M245 689l-2 -12q61 -2 93.5 -40t20.5 -108q-12 -64 -55 -99t-107 -35q-72 0 -108 34.5t-25 90.5l138 4q-2 -5 4 -5q8 0 13 19q3 15 -2 15t-7 -6l-127 3l46 263h263l-22 -124h-123z" />
    <glyph glyph-name="six.sups" horiz-adv-x="357" 
d="M435 813l-123 -144q41 -18 60 -55.5t10 -85.5q-10 -60 -57 -96.5t-109 -36.5q-74 0 -115.5 44t-29.5 112q8 41 44 88l147 174h173zM244 546q5 24 -10 24q-5 0 -13 -8q-7 -6 -9 -19q-2 -10 0.5 -17t9.5 -7q18 0 22 27z" />
    <glyph glyph-name="seven.sups" horiz-adv-x="316" 
d="M375 704l-168 -302h-162l162 287h-113l22 124h279z" />
    <glyph glyph-name="eight.sups" horiz-adv-x="359" 
d="M263 820q70 0 109.5 -38t28.5 -99q-6 -38 -36 -67q29 -37 19 -93q-10 -60 -56.5 -94t-111.5 -34q-75 0 -117 41.5t-30 109.5q9 48 51 87q-18 32 -11 73q10 53 52.5 83.5t101.5 30.5zM257 696q-20 0 -23 -24q-4 -20 12 -20q18 0 23 25q2 19 -12 19zM235 568q-22 0 -25 -27
q-3 -22 13 -22q20 0 25 27q5 22 -13 22z" />
    <glyph glyph-name="nine.sups" horiz-adv-x="357" 
d="M262 820q74 0 115.5 -44t29.5 -112q-9 -41 -44 -88l-147 -174h-173l123 144q-41 18 -60 55t-10 86q10 60 57 96.5t109 36.5zM244 645q5 0 13 8q7 6 9 19q4 24 -10 24q-18 0 -22 -27q-5 -24 10 -24z" />
    <glyph glyph-name="zero.tnum" horiz-adv-x="650" 
d="M384 759q136 0 206.5 -105t43.5 -291q-25 -178 -116 -276t-216 -98q-136 0 -206.5 105t-43.5 291q25 178 116 276t216 98zM379 588q-57 0 -87.5 -53.5t-46.5 -167.5q-29 -207 62 -207q57 0 87.5 53.5t46.5 167.5q29 207 -62 207z" />
    <glyph glyph-name="one.tnum" horiz-adv-x="650" 
d="M439 171h114l-30 -171h-439l30 171h132l60 332l-63 -38l-71 153l227 130h142z" />
    <glyph glyph-name="two.tnum" horiz-adv-x="650" 
d="M406 759q111 0 168 -63.5t40 -167.5q-7 -44 -21.5 -79t-40.5 -67t-43.5 -49t-55.5 -51l-122 -111h218l-30 -171h-475l26 147l242 230q97 91 107 159q6 52 -32 52q-26 0 -39 -18.5t-21 -57.5l-190 10q43 237 269 237z" />
    <glyph glyph-name="three.tnum" horiz-adv-x="650" 
d="M393 759q121 0 177 -65t36 -174q-9 -51 -30 -82t-59 -58q26 -18 40.5 -62t4.5 -101q-19 -108 -95 -168t-184 -60q-126 0 -184.5 65.5t-40.5 173.5l193 -1q-12 -67 44 -67q64 0 76 75q6 31 -7 50t-43 19h-86l29 161h71q67 0 80 65q4 27 -5 42.5t-29 15.5q-56 0 -71 -74
l-188 23q20 107 89.5 164.5t181.5 57.5z" />
    <glyph glyph-name="four.tnum" horiz-adv-x="650" 
d="M503 274h104l-30 -171h-104l-18 -103h-164l18 103h-290l28 159l393 486h147zM242 274h98l29 157z" />
    <glyph glyph-name="five.tnum" horiz-adv-x="650" 
d="M343 577l-15 -95q15 3 34 3q109 0 171 -66.5t41 -186.5q-16 -114 -91 -178.5t-189 -64.5q-121 0 -183 61t-48 161l193 6q-4 -27 9.5 -42t39.5 -15q66 0 77 83q5 33 -7 51.5t-38 18.5t-54 -14l-182 -1l79 450h455l-31 -171h-261z" />
    <glyph glyph-name="six.tnum" horiz-adv-x="650" 
d="M654 748l-227 -262q88 -24 135 -92t33 -162q-16 -110 -94 -176.5t-190 -66.5q-125 0 -200 74.5t-58 191.5q14 91 73 160l293 333h235zM400 252q9 89 -61 89q-38 0 -63 -28q-23 -30 -27 -65q-10 -88 61 -88q39 0 63 27.5t27 64.5z" />
    <glyph glyph-name="seven.tnum" horiz-adv-x="650" 
d="M608 593l-360 -593h-223l358 577h-270l30 171h492z" />
    <glyph glyph-name="eight.tnum" horiz-adv-x="650" 
d="M385 759q117 0 182.5 -62.5t48.5 -166.5q-13 -80 -71 -136q58 -68 41 -176q-17 -106 -99 -167.5t-196 -61.5q-124 0 -194 69t-52 183q18 105 95 169q-39 61 -25 143q15 97 89.5 151.5t180.5 54.5zM375 588q-29 0 -49 -18.5t-23 -48.5q-3 -55 47 -55q29 0 49 18t23 48
q2 27 -10.5 41.5t-36.5 14.5zM335 322q-42 0 -68 -24t-30 -65q-3 -35 14 -54t50 -19q41 0 67 24t30 65q5 73 -63 73z" />
    <glyph glyph-name="nine.tnum" horiz-adv-x="650" 
d="M377 759q126 0 201 -74.5t58 -191.5q-14 -91 -73 -160l-293 -333h-235l227 261q-88 25 -135 93t-33 162q16 110 93.5 176.5t189.5 66.5zM349 407q37 0 64 28q22 28 27 65q10 88 -62 88q-38 0 -62 -27.5t-27 -64.5q-6 -46 11.5 -67.5t48.5 -21.5z" />
    <glyph glyph-name="zero.dnom" horiz-adv-x="373" 
d="M202 418q79 0 119.5 -59.5t22.5 -163.5q-17 -97 -69.5 -149.5t-121.5 -52.5q-79 0 -120 60t-23 164q17 96 70 148.5t122 52.5zM194 294q-16 0 -26 -20.5t-18 -68.5q-8 -41 -6.5 -64.5t17.5 -23.5t24.5 20t17.5 70q8 40 7 63.5t-16 23.5z" />
    <glyph glyph-name="one.dnom" horiz-adv-x="241" 
d="M172 0h-139l37 219l-32 -16l-43 119l162 89h87z" />
    <glyph glyph-name="two.dnom" horiz-adv-x="324" 
d="M185 418q72 0 102.5 -42t20.5 -105q-3 -25 -15 -47.5t-24 -36t-34 -35.5l-28 -28h73l-22 -124h-288l16 96l157 142q21 19 26 44q1 12 -3 12q-7 0 -11 -17l-135 8q12 62 56.5 97.5t108.5 35.5z" />
    <glyph glyph-name="three.dnom" horiz-adv-x="333" 
d="M178 418q74 0 108 -38.5t22 -103.5q-4 -24 -14 -39.5t-32 -31.5q12 -11 19 -34.5t2 -53.5q-10 -59 -52 -91.5t-102 -32.5q-76 0 -112 38.5t-24 96.5l140 5q-5 -16 2 -16q5 0 9 8.5t4 20.5q-2 8 -7 8h-50l19 108h37q9 0 19.5 10t9.5 24q0 2 -4 2t-8.5 -6.5t-5.5 -14.5
l-131 12q19 129 151 129z" />
    <glyph glyph-name="four.dnom" horiz-adv-x="354" 
d="M290 169h33l-22 -123h-32l-8 -46h-139l7 46h-155l20 108l205 257h134zM118 169h33l11 55z" />
    <glyph glyph-name="five.dnom" horiz-adv-x="325" 
d="M176 287l-2 -12q61 -2 93.5 -40t20.5 -108q-12 -64 -55 -99t-107 -35q-72 0 -108 34.5t-25 90.5l138 4q-3 -5 4 -5q8 0 13 19q3 15 -2 15t-7 -6l-127 3l46 263h263l-22 -124h-123z" />
    <glyph glyph-name="six.dnom" horiz-adv-x="357" 
d="M365 411l-123 -144q41 -18 60 -55.5t10 -85.5q-10 -60 -57 -96.5t-109 -36.5q-74 0 -115.5 44t-29.5 112q8 41 44 88l147 174h173zM174 144q5 24 -10 24q-5 0 -13 -8q-7 -6 -9 -19q-2 -10 0.5 -17t9.5 -7q18 0 22 27z" />
    <glyph glyph-name="seven.dnom" horiz-adv-x="316" 
d="M300 302l-168 -302h-162l162 287h-113l22 124h279z" />
    <glyph glyph-name="eight.dnom" horiz-adv-x="359" 
d="M193 418q70 0 109.5 -38t28.5 -99q-6 -38 -36 -67q29 -37 19 -93q-10 -60 -56.5 -94t-111.5 -34q-75 0 -117 41.5t-30 109.5q9 48 51 87q-18 32 -11 73q10 53 52.5 83.5t101.5 30.5zM187 294q-20 0 -23 -24q-4 -20 12 -20q18 0 23 25q2 19 -12 19zM165 166q-22 0 -25 -27
q-3 -22 13 -22q20 0 25 27q5 22 -13 22z" />
    <glyph glyph-name="nine.dnom" horiz-adv-x="357" 
d="M192 418q74 0 115.5 -44t29.5 -112q-9 -41 -44 -88l-147 -174h-173l123 144q-41 18 -60 55t-10 86q10 60 57 96.5t109 36.5zM174 243q5 0 13 8q7 7 9 19q4 24 -10 24q-18 0 -22 -27q-5 -24 10 -24z" />
    <glyph glyph-name="zero.numr" horiz-adv-x="373" 
d="M257 739q79 0 119.5 -59.5t22.5 -163.5q-17 -97 -69.5 -149.5t-121.5 -52.5q-79 0 -120 60t-23 164q17 96 70 148.5t122 52.5zM249 615q-16 0 -26 -20.5t-18 -68.5q-8 -40 -6.5 -64t17.5 -24t24.5 20t17.5 70q8 40 7 63.5t-16 23.5z" />
    <glyph glyph-name="one.numr" horiz-adv-x="241" 
d="M227 322h-139l37 219l-32 -16l-43 119l162 89h87z" />
    <glyph glyph-name="two.numr" horiz-adv-x="324" 
d="M241 739q72 0 102.5 -42t20.5 -105q-3 -25 -15 -47.5t-24 -36t-34 -35.5l-28 -28h73l-22 -124h-288l16 96l157 142q21 19 26 44q1 12 -3 12q-7 0 -11 -17l-135 8q12 62 56.5 97.5t108.5 35.5z" />
    <glyph glyph-name="three.numr" horiz-adv-x="333" 
d="M237 739q74 0 108 -38.5t22 -103.5q-4 -24 -14 -39.5t-32 -31.5q12 -11 19 -34.5t2 -53.5q-10 -59 -52 -91.5t-102 -32.5q-76 0 -112 38.5t-24 96.5l140 5q-5 -16 2 -16q5 0 9 8.5t4 20.5q-2 8 -7 8h-50l19 108h37q9 0 19.5 10t9.5 24q0 2 -4 2t-8.5 -6.5t-5.5 -14.5
l-131 12q20 129 151 129z" />
    <glyph glyph-name="four.numr" horiz-adv-x="354" 
d="M345 490h33l-22 -123h-32l-8 -46h-139l7 46h-155l20 108l205 257h134zM173 490h33l11 55z" />
    <glyph glyph-name="five.numr" horiz-adv-x="325" 
d="M229 609l-2 -12q61 -2 93.5 -40t20.5 -108q-12 -64 -55 -99t-107 -35q-72 0 -108 34.5t-25 90.5l138 4q-2 -5 4 -5q8 0 13 19q3 15 -2 15t-7 -6l-127 3l46 263h263l-22 -124h-123z" />
    <glyph glyph-name="six.numr" horiz-adv-x="357" 
d="M420 732l-123 -144q41 -18 60 -55.5t10 -85.5q-10 -60 -57 -96.5t-109 -36.5q-74 0 -115.5 44t-29.5 112q8 41 44 88l147 174h173zM229 465q5 24 -10 24q-5 0 -13 -8q-6 -7 -9 -19q-2 -10 0.5 -17t9.5 -7q18 0 22 27z" />
    <glyph glyph-name="seven.numr" horiz-adv-x="316" 
d="M361 624l-168 -302h-162l162 287h-113l22 124h279z" />
    <glyph glyph-name="eight.numr" horiz-adv-x="359" 
d="M248 739q70 0 109.5 -38t28.5 -99q-6 -38 -36 -67q29 -37 19 -93q-10 -60 -56.5 -94t-111.5 -34q-75 0 -117 41.5t-30 109.5q9 48 51 87q-18 32 -11 73q10 53 52.5 83.5t101.5 30.5zM242 615q-20 0 -23 -24q-4 -20 12 -20q18 0 23 25q2 19 -12 19zM220 487q-22 0 -25 -27
q-3 -22 13 -22q20 0 25 27q5 22 -13 22z" />
    <glyph glyph-name="nine.numr" horiz-adv-x="357" 
d="M246 739q74 0 115.5 -44t29.5 -112q-9 -41 -44 -88l-147 -174h-173l123 144q-41 18 -60 55t-10 86q10 60 57 96.5t109 36.5zM228 564q5 0 13 8q7 6 9 19q4 24 -10 24q-18 0 -22 -27q-5 -24 10 -24z" />
    <glyph glyph-name="periodcentered.cap" horiz-adv-x="301" 
d="M187 564q49 0 78.5 -35t20.5 -83q-7 -40 -38.5 -67t-70.5 -27q-50 0 -78.5 34.5t-20.5 82.5q7 40 38.5 67.5t70.5 27.5z" />
    <glyph glyph-name="exclamdown.cap" horiz-adv-x="350" 
d="M244 547q-49 0 -78.5 35t-20.5 83q7 40 38.5 67t70.5 27q50 0 78.5 -34.5t20.5 -82.5q-8 -41 -39 -68t-70 -27zM125 504h193l-78 -504h-213z" />
    <glyph glyph-name="questiondown.cap" horiz-adv-x="555" 
d="M340 547q-50 0 -79 35t-21 83q7 40 39 67t71 27q49 0 78 -34.5t20 -82.5q-7 -40 -38.5 -67.5t-69.5 -27.5zM246 -13q-127 0 -191.5 66.5t-43.5 179.5q9 51 37.5 87t73.5 69q10 8 31.5 22t31 21t19.5 20.5t13 27.5l4 24h193l-6 -39q-12 -75 -114 -155q-7 -6 -28.5 -21
t-29.5 -22.5t-18.5 -21t-12.5 -27.5q-5 -29 10 -44.5t42 -15.5q35 0 58 22t31 62l189 -18q-22 -108 -100.5 -172.5t-188.5 -64.5z" />
    <glyph glyph-name="braceleft.cap" horiz-adv-x="334" 
d="M402 770l-27 -151q-42 0 -62 -26t-25 -95q-2 -61 -20.5 -91.5t-78.5 -34.5q96 -7 54 -147q-19 -63 -13.5 -81t46.5 -18h12l-26 -151q-126 0 -186.5 66t-15.5 189q24 46 21.5 57t-48.5 11h-14l26 149h2q47 0 61 18t13 73q-6 116 69 174t200 58h12z" />
    <glyph glyph-name="braceright.cap" horiz-adv-x="334" 
d="M81 619l27 151q126 0 186 -66t15 -189q-24 -46 -21.5 -57t48.5 -11h14l-26 -149h-2q-47 0 -61 -18t-13 -73q6 -116 -68.5 -174t-199.5 -58h-12l26 151q42 0 62 26t26 96q1 59 20 90t80 36q-98 5 -56 146q20 64 14 81.5t-47 17.5h-12z" />
    <glyph glyph-name="bracketleft.cap" horiz-adv-x="333" 
d="M374 619h-82l-86 -493h81l-26 -151h-264l140 795h264z" />
    <glyph glyph-name="bracketright.cap" horiz-adv-x="348" 
d="M232 -25h-264l26 151h81l87 493h-81l27 151h264z" />
    <glyph glyph-name="parenleft.cap" horiz-adv-x="324" 
d="M232 787l153 -65q-128 -184 -160 -371q-34 -192 25 -359l-157 -45q-89 189 -47 426q40 235 186 414z" />
    <glyph glyph-name="parenright.cap" horiz-adv-x="318" 
d="M99 732l160 45q88 -190 47 -426q-43 -237 -187 -414l-153 65q127 182 161 371q34 196 -28 359z" />
    <glyph glyph-name="emdash.cap" horiz-adv-x="800" 
d="M761 292h-711l30 171h711z" />
    <glyph glyph-name="endash.cap" horiz-adv-x="568" 
d="M527 292h-479l30 171h479z" />
    <glyph glyph-name="hyphen.cap" horiz-adv-x="408" 
d="M369 292h-319l30 171h319z" />
    <glyph glyph-name="guillemotleft.cap" horiz-adv-x="612" 
d="M364 537l-130 -162l65 -146l-147 -84l-118 249l189 241zM649 537l-130 -162l65 -146l-147 -84l-118 249l189 241z" />
    <glyph glyph-name="guillemotright.cap" horiz-adv-x="612" 
d="M336 386l-190 -241l-140 98l130 162l-65 146l146 84zM620 386l-189 -241l-140 98l129 162l-65 146l147 84z" />
    <glyph glyph-name="guilsinglleft.cap" horiz-adv-x="357" 
d="M384 505l-131 -126l86 -126l-141 -105l-164 246l230 237z" />
    <glyph glyph-name="guilsinglright.cap" horiz-adv-x="357" 
d="M364 384l-230 -237l-120 126l131 126l-86 126l141 105z" />
    <glyph glyph-name="emdash_guilsinglright" horiz-adv-x="905" 
d="M870 260l-287 -279l-117 121l90 85h-523l26 150h543l-67 94l137 109z" />
    <glyph glyph-name="endash_guilsinglright" horiz-adv-x="630" 
d="M595 260l-287 -279l-117 121l90 85h-248l26 150h268l-67 94l136 109z" />
    <glyph glyph-name="guilsinglleft_emdash" horiz-adv-x="905" 
d="M438 419l-89 -86h524l-26 -150h-544l68 -94l-137 -108l-199 279l287 280z" />
    <glyph glyph-name="guilsinglleft_endash" horiz-adv-x="630" 
d="M438 419l-89 -86h249l-27 -150h-268l68 -94l-137 -108l-199 279l287 280z" />
    <glyph glyph-name="at.cap" horiz-adv-x="795" 
d="M463 733q161 0 248.5 -105.5t64.5 -264.5q-29 -202 -183 -202q-74 0 -108 39q-46 -41 -109 -41q-92 0 -145 63.5t-39 160.5q13 91 70 146.5t137 55.5q73 0 113 -40l7 24h131l-52 -301q-5 -27 22 -27q26 0 51.5 38t35.5 106q17 120 -50.5 199.5t-185.5 79.5
q-131 0 -230 -86.5t-117 -214.5q-18 -127 53.5 -202.5t193.5 -75.5q86 0 167 43l33 -68q-83 -43 -196 -43q-163 0 -253.5 102.5t-66.5 265.5q21 150 137.5 249t270.5 99zM391 281q35 0 58 22t29 60l2 13q5 39 -12 62.5t-51 23.5q-33 0 -55 -22t-29 -63q-7 -43 9.5 -69.5
t48.5 -26.5z" />
    <glyph glyph-name="acute.case" horiz-adv-x="371" 
d="M265 797h-168l144 162h252z" />
    <glyph glyph-name="breve.case" horiz-adv-x="415" 
d="M391 978h145q-16 -95 -75 -140t-146 -45q-97 0 -148.5 48.5t-35.5 136.5h146q-10 -60 46 -60q26 0 44 17.5t24 42.5z" />
    <glyph glyph-name="caron.case" horiz-adv-x="414" 
d="M393 797h-177l-86 170h148l37 -66l66 66h156z" />
    <glyph glyph-name="circumflex.case" horiz-adv-x="414" 
d="M503 797h-147l-37 66l-66 -66h-156l144 170h177z" />
    <glyph glyph-name="dieresis.case" horiz-adv-x="418" 
d="M212 982q46 0 72.5 -31.5t18.5 -75.5q-6 -36 -33.5 -60t-63.5 -24q-45 0 -71.5 31.5t-18.5 75.5q6 35 34 59.5t62 24.5zM432 982q45 0 72 -31.5t19 -75.5q-6 -36 -34 -60t-64 -24q-45 0 -71.5 31.5t-18.5 75.5q7 35 35 59.5t62 24.5z" />
    <glyph glyph-name="dotaccent.case" horiz-adv-x="220" 
d="M227 1005q49 0 78.5 -35t20.5 -83q-7 -40 -38.5 -67t-70.5 -27q-50 0 -78.5 34t-20.5 83q7 40 39 67.5t70 27.5z" />
    <glyph glyph-name="grave.case" horiz-adv-x="371" 
d="M460 797h-160l-171 162h244z" />
    <glyph glyph-name="hungarumlaut.case" horiz-adv-x="464" 
d="M243 800h-146l95 182h175zM465 800h-146l95 182h175z" />
    <glyph glyph-name="macron.case" horiz-adv-x="331" 
d="M422 805h-322l25 139h322z" />
    <glyph glyph-name="ring.case" horiz-adv-x="250" 
d="M247 1021q56 0 89 -35.5t23 -88.5q-7 -45 -43.5 -73.5t-82.5 -28.5q-57 0 -89.5 36t-23.5 89q8 45 44 73t83 28zM243 943q-31 0 -37 -31q-3 -16 6 -27t25 -11q32 0 37 31q3 17 -5.5 27.5t-25.5 10.5z" />
    <glyph glyph-name="tilde.case" horiz-adv-x="398" 
d="M246 976q30 0 50 -12t34.5 -24.5t31.5 -12.5q48 0 54 41h99q3 -75 -41.5 -126.5t-102.5 -51.5q-40 0 -69.5 25t-46.5 25q-49 0 -54 -44h-99q-3 75 41.5 127.5t102.5 52.5z" />
    <glyph glyph-name="anneau" horiz-adv-x="603" 
d="M368 762q124 0 196 -78t55 -193q-15 -107 -99 -176t-198 -69q-126 0 -198 78.5t-56 194.5q16 107 100 175t200 68zM370 701q-90 0 -154.5 -53.5t-76.5 -138.5q-13 -88 38 -144.5t143 -56.5q88 0 152.5 54t76.5 140q13 87 -37.5 143t-141.5 56z" />
    <glyph glyph-name="null" horiz-adv-x="600" 
 />
    </font>
</defs>
</svg>
